<svg id="Слой_1" data-name="Слой 1" xmlns="http://www.w3.org/2000/svg" xmlns:xlink="http://www.w3.org/1999/xlink" viewBox="0 0 603 385.16"><defs><style>.cls-1{fill:none;}.cls-2{opacity:0.2;}.cls-3{clip-path:url(#clip-path);}.cls-4{fill:#998675;}</style><clipPath id="clip-path" transform="translate(-358.58 -182.32)"><rect class="cls-1" x="475.58" y="228" width="393.42" height="324" transform="translate(1344.58 780) rotate(-180)"/></clipPath></defs><title>6</title><g class="cls-2"><g class="cls-3"><path class="cls-4" d="M480.11,273.09,584.25,428.61l-80.63,80.27L373.44,379.28Zm89.34,154.06L478.32,291.07l-88.6,88.21,113.91,113.4Z" transform="translate(-358.58 -182.32)"/><polygon class="cls-4" points="164.31 102.32 174.6 97.2 125.78 0 115.49 5.12 164.31 102.32"/><path class="cls-4" d="M462.94,484.58a23.11,23.11,0,0,1,32.54,0,22.86,22.86,0,0,1,0,32.4,23.11,23.11,0,0,1-32.54,0A22.86,22.86,0,0,1,462.94,484.58Zm8.14,8.1a11.43,11.43,0,0,0,0,16.2,11.56,11.56,0,0,0,16.27,0,11.43,11.43,0,0,0,0-16.2A11.56,11.56,0,0,0,471.08,492.68Z" transform="translate(-358.58 -182.32)"/><path class="cls-4" d="M365.31,387.38a23.11,23.11,0,0,1,32.54,0,22.86,22.86,0,0,1,0,32.4,23.11,23.11,0,0,1-32.54,0A22.86,22.86,0,0,1,365.31,387.38Zm8.14,8.1a11.43,11.43,0,0,0,0,16.2,11.56,11.56,0,0,0,16.27,0,11.43,11.43,0,0,0,0-16.2A11.56,11.56,0,0,0,373.44,395.48Z" transform="translate(-358.58 -182.32)"/><polygon class="cls-4" points="116.57 290.11 124.7 298.21 197.93 225.31 189.79 217.21 116.57 290.11"/><polygon class="cls-4" points="92.16 265.81 100.3 273.91 173.52 201.01 165.38 192.91 92.16 265.81"/><polygon class="cls-4" points="67.75 241.51 75.89 249.61 149.11 176.71 140.97 168.61 67.75 241.51"/><polygon class="cls-4" points="43.34 217.21 51.48 225.31 124.7 152.41 116.57 144.31 43.34 217.21"/><polygon class="cls-4" points="67.75 152.41 189.79 273.91 197.93 265.81 75.89 144.31 67.75 152.41"/><polygon class="cls-4" points="43.34 176.71 165.38 298.21 173.52 290.11 51.48 168.61 43.34 176.71"/><path class="cls-4" d="M544.78,530.59,592.41,499,617,523.46,577.3,563ZM592,503.48l-41.67,27.66,27,26.89L612,523.46Z" transform="translate(-358.58 -182.32)"/><polygon class="cls-4" points="189.75 335.29 188.18 332.17 158.41 346.98 159.98 350.11 189.75 335.29"/><path class="cls-4" d="M609.55,535.81a7,7,0,0,1,0-9.88,7,7,0,0,1,9.92,0,7,7,0,0,1,0,9.88A7,7,0,0,1,609.55,535.81Zm2.48-2.47a3.52,3.52,0,0,0,5,0,3.49,3.49,0,0,0,0-4.94,3.52,3.52,0,0,0-5,0A3.49,3.49,0,0,0,612,533.34Z" transform="translate(-358.58 -182.32)"/><path class="cls-4" d="M579.78,565.44a7,7,0,0,1,0-9.88,7,7,0,0,1,9.92,0,7,7,0,0,1,0,9.88A7,7,0,0,1,579.78,565.44Zm2.48-2.47a3.52,3.52,0,0,0,5,0,3.49,3.49,0,0,0,0-4.94,3.52,3.52,0,0,0-5,0A3.49,3.49,0,0,0,582.27,563Z" transform="translate(-358.58 -182.32)"/><polygon class="cls-4" points="247.25 349.78 249.73 347.31 227.41 325.08 224.93 327.55 247.25 349.78"/><polygon class="cls-4" points="239.81 357.19 242.29 354.72 219.97 332.49 217.49 334.96 239.81 357.19"/><polygon class="cls-4" points="232.37 364.6 234.85 362.13 212.53 339.9 210.04 342.37 232.37 364.6"/><polygon class="cls-4" points="224.93 372 227.41 369.54 205.08 347.31 202.6 349.78 224.93 372"/><polygon class="cls-4" points="205.08 364.6 242.29 327.55 239.81 325.08 202.6 362.13 205.08 364.6"/><polygon class="cls-4" points="212.53 372 249.73 334.96 247.25 332.49 210.04 369.54 212.53 372"/><path class="cls-4" d="M915.36,445H784.68V364.43l130.68-26Zm-122.51-8.13H907.2V348.32L792.85,371.09Z" transform="translate(-358.58 -182.32)"/><polygon class="cls-4" points="529.49 140.5 526.91 132.79 600.42 108.4 603 116.11 529.49 140.5"/><path class="cls-4" d="M801,469.4a16.26,16.26,0,1,1,16.34-16.26A16.32,16.32,0,0,1,801,469.4ZM801,445a8.13,8.13,0,1,0,8.17,8.13A8.16,8.16,0,0,0,801,445Z" transform="translate(-358.58 -182.32)"/><path class="cls-4" d="M899,469.4a16.26,16.26,0,1,1,16.34-16.26A16.32,16.32,0,0,1,899,469.4ZM899,445a8.13,8.13,0,1,0,8.17,8.13A8.16,8.16,0,0,0,899,445Z" transform="translate(-358.58 -182.32)"/><rect class="cls-4" x="450.61" y="185.44" width="8.17" height="73.18"/><rect class="cls-4" x="475.11" y="185.44" width="8.17" height="73.18"/><rect class="cls-4" x="499.61" y="185.44" width="8.17" height="73.18"/><rect class="cls-4" x="524.12" y="185.44" width="8.17" height="73.18"/><rect class="cls-4" x="430.19" y="205.76" width="122.51" height="8.13"/><rect class="cls-4" x="430.19" y="230.16" width="122.51" height="8.13"/><path class="cls-4" d="M710.24,237.62l-39.51,26.22-20.39-20.3,32.92-32.78ZM671.1,260.11l34.57-22.94-22.41-22.31-28.81,28.68Z" transform="translate(-358.58 -182.32)"/><polygon class="cls-4" points="348.73 66.07 350.03 68.66 374.72 56.37 373.42 53.78 348.73 66.07"/><path class="cls-4" d="M656.51,233.3a5.78,5.78,0,0,1,0,8.19,5.84,5.84,0,0,1-8.23,0,5.78,5.78,0,0,1,0-8.19A5.84,5.84,0,0,1,656.51,233.3Zm-2.06,2a2.92,2.92,0,0,0-4.12,0,2.89,2.89,0,0,0,0,4.1,2.92,2.92,0,0,0,4.12,0A2.89,2.89,0,0,0,654.45,235.34Z" transform="translate(-358.58 -182.32)"/><path class="cls-4" d="M681.2,208.71a5.78,5.78,0,0,1,0,8.19,5.84,5.84,0,0,1-8.23,0,5.78,5.78,0,0,1,0-8.19A5.84,5.84,0,0,1,681.2,208.71Zm-2.06,2a2.92,2.92,0,0,0-4.12,0,2.89,2.89,0,0,0,0,4.1,2.92,2.92,0,0,0,4.12,0A2.89,2.89,0,0,0,679.15,210.76Z" transform="translate(-358.58 -182.32)"/><polygon class="cls-4" points="301.02 54.05 298.96 56.09 317.48 74.53 319.54 72.48 301.02 54.05"/><polygon class="cls-4" points="307.19 47.9 305.13 49.95 323.65 68.39 325.71 66.34 307.19 47.9"/><polygon class="cls-4" points="313.37 41.76 311.31 43.8 329.83 62.24 331.88 60.19 313.37 41.76"/><polygon class="cls-4" points="319.54 35.61 317.48 37.66 336 56.09 338.06 54.05 319.54 35.61"/><polygon class="cls-4" points="336 41.76 305.13 72.48 307.19 74.53 338.06 43.8 336 41.76"/><polygon class="cls-4" points="329.83 35.61 298.96 66.34 301.02 68.39 331.88 37.66 329.83 35.61"/></g></g></svg>