<svg id="Слой_1" data-name="Слой 1" xmlns="http://www.w3.org/2000/svg" xmlns:xlink="http://www.w3.org/1999/xlink" viewBox="0 0 777.43 426.78"><defs><style>.cls-1{fill:none;}.cls-2{clip-path:url(#clip-path);}.cls-3{opacity:0.2;}.cls-4{fill:#998675;}</style><clipPath id="clip-path" transform="translate(-270.83 -162.47)"><rect class="cls-1" x="387" y="238" width="558" height="324"/></clipPath></defs><title>5</title><g class="cls-2"><g class="cls-3"><path class="cls-4" d="M806,462.25c.63,3.25,1.24,6.49,1.88,9.74q1.29,6.59,2.61,13.17,1.52,7.65,3,15.29c.74,3.74,1.46,7.49,2.19,11.23.06.29.13.59.24,1.08L838.39,490l48.85,49.66-48.77,49.57q-24.09-24.48-48.19-49c-.62-.63-.4-.93.08-1.42q10.35-10.49,20.67-21l1-1.06L806,515.56l-18.61-3.78-21.75-4.4-3.31-.66Zm32.43,34.06-42.64,43.35L838.47,583l42.64-43.35ZM803.39,471.2,771.11,504l40.38,8.21Z" transform="translate(-270.83 -162.47)"/></g><g class="cls-3"><path class="cls-4" d="M618.39,162.47c.63,3.25,1.24,6.49,1.88,9.74q1.29,6.59,2.61,13.17,1.52,7.65,3,15.29c.74,3.74,1.46,7.49,2.19,11.23.06.29.13.59.24,1.08l22.38-22.75,48.85,49.66-48.77,49.57q-24.09-24.48-48.19-49c-.62-.63-.4-.93.08-1.42q10.35-10.49,20.67-21l1-1.06-6.11-1.26L599.71,212,578,207.6l-3.31-.66Zm32.43,34.06-42.64,43.35,42.63,43.34,42.64-43.35Zm-35.09-25.11-32.28,32.81,40.38,8.21Z" transform="translate(-270.83 -162.47)"/></g><g class="cls-3"><path class="cls-4" d="M555.32,495.89c-6.9-4.72-13.79-9.46-20.71-14.15q-14.06-9.53-28.16-19-16.34-11-32.68-22.07-12-8.12-23.94-16.28c-.63-.43-1.28-.82-2.35-1.51v82.26H270.83V325.88q87.09,0,174.18-.07c2.23,0,2.39.94,2.38,2.73q-.06,38,0,76c0,1.12,0,2.24,0,3.84,4.74-3.19,9-6.07,13.28-9Q480.85,385.7,501,372q23.57-16,47.14-32l7.15-4.88Zm-119.21-2V337.18H282V493.92Zm108.1-19.09V356.18l-87.6,59.36Z" transform="translate(-270.83 -162.47)"/></g><g class="cls-3"><path class="cls-4" d="M1048.26,299c-7.36,1.47-14.73,2.91-22.09,4.41q-14.95,3-29.89,6.13-17.35,3.56-34.69,7.11c-8.49,1.73-17,3.42-25.48,5.13-.67.13-1.33.3-2.45.56l51.61,52.47L872.61,489.33,760.15,375Q815.7,318.53,871.2,262c1.42-1.45,2.11-.95,3.23.19q23.79,24.26,47.64,48.46l2.41,2.45c1-5.11,1.94-9.72,2.85-14.32q4.3-21.81,8.59-43.63,5-25.49,10-51,.76-3.87,1.5-7.75ZM971,375l-98.34-100L774.34,375l98.34,100Zm57-82.27-74.44-75.67-18.63,94.66Z" transform="translate(-270.83 -162.47)"/></g></g></svg>