<?xml version="1.0" encoding="utf-8"?>
<!-- Generator: Adobe Illustrator 21.1.0, SVG Export Plug-In . SVG Version: 6.00 Build 0)  -->
<svg version="1.1" id="Слой_1" xmlns="http://www.w3.org/2000/svg" xmlns:xlink="http://www.w3.org/1999/xlink" x="0px" y="0px"
	 viewBox="0 0 558.2 324.3" style="enable-background:new 0 0 558.2 324.3;" xml:space="preserve">
<style type="text/css">
	.st0{opacity:0.2;}
	.st1{fill:#998675;}
</style>
<title>5</title>
<g class="st0">
	<path class="st1" d="M428.9,274.9c-0.1-0.5-0.2-0.8-0.2-1.1c-0.7-3.7-1.5-7.5-2.2-11.2c-1-5.1-2-10.2-3-15.3
		c-0.9-4.4-1.8-8.8-2.6-13.2c-0.6-3.2-1.2-6.5-1.9-9.7l-43.7,44.5l3.3,0.7l21.8,4.4l18.6,3.8l6,1.2l-1,1.1c-6.9,7-13.8,14-20.7,21
		c-0.5,0.5-0.7,0.8-0.1,1.4c7.1,7.3,14.3,14.5,21.4,21.8h6.1l-22-22.3l42.6-43.3L494,302l-22,22.3h6.1l22-22.3l-48.8-49.7
		L428.9,274.9z M384.1,266.1l32.3-32.8l8.1,41L384.1,266.1z"/>
	<path class="st1" d="M304.6,0.1l1.8,1.9l-42.6,43.3L221.2,2l1.8-1.9h-6.3c-0.3,0.3-0.7,0.7-1,1c-0.5,0.5-0.7,0.8-0.1,1.4
		c16.1,16.3,32.1,32.7,48.2,49l48.8-49.6L310.7,0h-6.1V0.1z"/>
	<path class="st1" d="M161.1,102.1c-15.7,10.7-31.4,21.3-47.1,32c-13.4,9.1-26.9,18.3-40.3,27.4c-4.3,2.9-8.5,5.8-13.3,9
		c0-1.6,0-2.7,0-3.8c0-25.3,0-50.7,0-76c0-1.8-0.1-2.7-2.4-2.7c-19.3,0-38.7,0-58,0v11.3h49.1V256H0v11.2h60.5v-82.3
		c1.1,0.7,1.7,1.1,2.3,1.5c8,5.4,15.9,10.9,23.9,16.3c10.9,7.4,21.8,14.7,32.7,22.1c9.4,6.3,18.8,12.6,28.2,19
		c6.9,4.7,13.8,9.4,20.7,14.2V97.2L161.1,102.1z M157.2,236.9l-87.6-59.3l87.6-59.4V236.9z"/>
	<path class="st1" d="M558,0.1h-5.7c-1.1,5.7-2.2,11.4-3.4,17.1c-2.9,14.5-5.7,29.1-8.6,43.6c-0.9,4.6-1.8,9.2-2.8,14.3l-2.4-2.5
		c-15.9-16.1-31.8-32.3-47.6-48.5c-1.1-1.1-1.8-1.6-3.2-0.2c-37,37.7-74,75.4-111,113l112.5,114.3l72.4-73.6v-14l-72.3,73.6
		l-98.3-100l98.3-100l72.3,73.6V96.1l-11.3-11.5c1.1-0.3,1.8-0.4,2.5-0.6c3-0.6,5.9-1.2,8.9-1.8V71.9L548.2,74l10.1-51.2V0.1H558z"
		/>
</g>
</svg>
