<?xml version="1.0" encoding="utf-8"?>
<!-- Generator: Adobe Illustrator 21.1.0, SVG Export Plug-In . SVG Version: 6.00 Build 0)  -->
<svg version="1.1" id="Слой_1" xmlns="http://www.w3.org/2000/svg" xmlns:xlink="http://www.w3.org/1999/xlink" x="0px" y="0px"
	 viewBox="0 0 558.2 324.3" style="enable-background:new 0 0 558.2 324.3;" xml:space="preserve">
<style type="text/css">
	.st0{opacity:0.2;fill:#998675;}
</style>
<title>5</title>
<polygon class="st0" points="154.3,79.7 157.6,91.8 118.5,102.2 118.9,103.6 312.3,52.1 298.3,0.2 283.8,0.2 295.1,42.2 "/>
<polygon class="st0" points="92.6,6 94.1,11.7 107.2,8.3 110.8,21.8 97.8,25.2 99.3,31 112.4,27.5 116,41 103,44.5 114.9,88.7 
	128.4,85.1 105.5,0.1 105,0.1 105.6,2.5 "/>
<polygon class="st0" points="145.6,0.1 132.8,0.1 133.7,3.3 "/>
<polygon class="st0" points="118.5,102.2 157.6,91.8 154.3,79.7 133.7,3.3 132.8,0.1 118.4,0.1 140.4,81.8 128.4,85.1 114.9,88.7 
	38.5,109 9.1,0.1 -0.1,0.1 -0.1,19.8 28.6,126.1 "/>
<polygon class="st0" points="37.2,0.1 22.4,0.1 23.4,3.8 "/>
<polygon class="st0" points="28.6,23.1 92.6,6 105.6,2.5 105,0.1 60.3,0.1 25,9.5 "/>
<polygon class="st0" points="107.2,8.3 94.1,11.7 30.2,28.8 33.8,42.3 97.8,25.2 110.8,21.8 "/>
<polygon class="st0" points="112.4,27.5 99.3,31 35.4,48 39,61.5 103,44.5 116,41 "/>
<polygon class="st0" points="117.7,246.4 116.6,242.1 130.5,238.6 130.4,238.1 61.7,255.5 79.2,324.1 84.4,324.1 67.7,259.1 "/>
<polygon class="st0" points="139.2,292.6 144,291.4 142.3,284.4 137.6,285.6 136.4,280.8 141,279.6 140.5,277.6 135.9,278.8 
	134.6,274 139.3,272.8 138.8,270.8 134.1,271.9 132.9,267.1 137.5,266 137,263.9 132.4,265.1 131.1,260.3 135.8,259.1 131.8,243.4 
	127,244.6 "/>
<polygon class="st0" points="140.5,297.4 146.6,321.5 136,324.1 152.4,324.1 145.3,296.2 "/>
<polygon class="st0" points="133.7,305.3 91.1,316.1 92.3,320.9 134.9,310.1 "/>
<polygon class="st0" points="88.3,305.4 89.6,310.2 131.4,299.7 130.2,294.9 "/>
<polygon class="st0" points="85.6,294.8 86.9,299.6 128.7,289 127.4,284.2 "/>
<polygon class="st0" points="82.9,284.1 84.1,288.9 125.9,278.4 124.7,273.6 "/>
<path class="st0" d="M117.7,246.4l7,27.1l1.2,4.8l1.5,5.8l1.2,4.8l1.5,5.8l1.2,4.8v0l9.1-2.3l4.8-1.2l32-8.1l-14.7-57.5l-32,8.1
	l-13.9,3.5L117.7,246.4z M158.9,236.6l12.3,47.9l-27.2,6.9l-4.8,1.2l-4.3,1.1l-12.3-47.9l4.3-1.1l4.8-1.2L158.9,236.6z"/>
<polygon class="st0" points="163.8,273.9 141,279.6 136.4,280.8 137.6,285.6 142.3,284.4 165,278.7 "/>
<polygon class="st0" points="162,267.1 139.3,272.8 134.6,274 135.9,278.8 140.5,277.6 163.2,271.9 "/>
<polygon class="st0" points="160.3,260.2 137.5,266 132.9,267.1 134.1,271.9 138.8,270.8 161.5,265 "/>
<polygon class="st0" points="158.5,253.4 135.8,259.1 131.1,260.3 132.4,265.1 137,263.9 159.7,258.2 "/>
<polygon class="st0" points="438.4,321.2 441.4,324.2 446.7,324.2 472.2,298.6 497.7,324.2 508.9,324.2 472.2,287.4 "/>
<polygon class="st0" points="466,324.2 466.3,324.2 466.2,324 "/>
<polygon class="st0" points="401,283.7 360.5,324.2 371.8,324.2 401,295 430.2,324.2 441.4,324.2 438.4,321.2 "/>
<polygon class="st0" points="392.5,313.8 402.8,324.2 414,324.2 398.1,308.2 "/>
<polygon class="st0" points="384.5,321.8 386.9,324.2 398.1,324.2 390.1,316.2 "/>
<polygon class="st0" points="496.2,91.5 493.6,88.8 496.1,86.3 495,85.1 492.5,87.7 489.8,85 492.4,82.5 491.2,81.3 488.7,83.9 
	486,81.2 488.6,78.7 487.5,77.6 484.9,80.1 482.2,77.5 484.8,74.9 476.1,66.2 473.5,68.9 500,95.4 502.6,92.7 498.8,88.9 "/>
<polygon class="st0" points="516,111.4 483.4,144 440.6,101.2 468.2,73.6 465.8,71.2 473.4,63.6 473.2,63.3 435.3,101.2 
	483.4,149.3 521.3,111.4 505.3,95.4 502.6,98 "/>
<rect x="474.3" y="117" transform="matrix(0.7071 -0.7071 0.7071 0.7071 59.7053 381.9574)" class="st0" width="33.2" height="3.8"/>
<rect x="468.5" y="111.4" transform="matrix(0.7071 -0.7071 0.7071 0.7071 61.9194 375.9686)" class="st0" width="32.6" height="3.8"/>
<rect x="462.6" y="105.5" transform="matrix(0.7071 -0.7071 0.7071 0.7071 64.3606 370.0749)" class="st0" width="32.6" height="3.8"/>
<rect x="456.7" y="99.6" transform="matrix(0.7071 -0.7071 0.7071 0.7071 66.8022 364.1803)" class="st0" width="32.6" height="3.8"/>
<path class="st0" d="M491.1,45.9l-17.6,17.6l-7.7,7.7l2.4,2.4l15,15l2.7,2.7l3.2,3.2l2.7,2.7l3.2,3.2l2.7,2.7l5-5l2.6-2.6l17.6-17.6
	L491.1,45.9z M500,95.4l-2.4,2.4l-26.5-26.5l2.4-2.4l2.6-2.6l15-15l26.5,26.5l-15,15L500,95.4z"/>
<polygon class="st0" points="496.2,91.5 498.8,88.9 511.3,76.4 508.7,73.7 496.1,86.3 493.6,88.8 "/>
<polygon class="st0" points="492.5,87.7 495,85.1 507.5,72.6 504.9,69.9 492.4,82.5 489.8,85 "/>
<polygon class="st0" points="488.7,83.9 491.2,81.3 503.8,68.8 501.1,66.2 488.6,78.7 486,81.2 "/>
<polygon class="st0" points="484.9,80.1 487.5,77.6 500,65 497.3,62.4 484.8,74.9 482.2,77.5 "/>
</svg>
