<svg id="Слой_1" data-name="Слой 1" xmlns="http://www.w3.org/2000/svg" xmlns:xlink="http://www.w3.org/1999/xlink" viewBox="0 0 552.74 574.69"><defs><style>.cls-1{fill:none;}.cls-2{opacity:0.2;}.cls-3{clip-path:url(#clip-path);}.cls-4{fill:#998675;}</style><clipPath id="clip-path" transform="translate(-382.61 -88.61)"><rect class="cls-1" x="508.53" y="194" width="397.47" height="324" transform="translate(1414.53 712) rotate(-180)"/></clipPath></defs><title>8</title><g class="cls-2"><g class="cls-3"><path class="cls-4" d="M475.52,88.61,675.64,89l.47,253.3L476,341.91Zm186.16,14.33-172.14-.32L490,327.95l172.14.32Z" transform="translate(-382.61 -88.61)"/><polygon class="cls-4" points="131.05 67.24 255.14 67.47 255.11 53.48 131.03 53.25 131.05 67.24"/><polygon class="cls-4" points="131.11 98.26 255.2 98.5 255.17 84.51 131.08 84.28 131.11 98.26"/><polygon class="cls-4" points="131.17 129.28 255.25 129.51 255.23 115.53 131.14 115.3 131.17 129.28"/><polygon class="cls-4" points="131.23 160.31 255.31 160.54 255.28 146.55 131.2 146.32 131.23 160.31"/><path class="cls-4" d="M382.61,172.64l133.49.25.31,167.63-133.49-.25Zm119.53,14.21-105.51-.2.26,139.65,105.51.2Z" transform="translate(-382.61 -88.61)"/><polygon class="cls-4" points="27 132.21 106.67 132.36 106.64 118.37 26.98 118.22 27 132.21"/><polygon class="cls-4" points="27.04 152.13 106.7 152.28 106.68 138.29 27.01 138.14 27.04 152.13"/><polygon class="cls-4" points="27.07 172.04 106.74 172.19 106.71 158.2 27.05 158.06 27.07 172.04"/><polygon class="cls-4" points="27.11 191.96 106.78 192.11 106.75 178.12 27.09 177.97 27.11 191.96"/><path class="cls-4" d="M550.85,509l-70.9-.13-.17-89.75,70.9.13Zm-66-5.08,61,.11-.15-79.83-61-.11Z" transform="translate(-382.61 -88.61)"/><polygon class="cls-4" points="154.73 396.57 110.77 396.49 110.78 401.44 154.74 401.52 154.73 396.57"/><polygon class="cls-4" points="154.71 385.57 110.75 385.49 110.76 390.45 154.72 390.53 154.71 385.57"/><polygon class="cls-4" points="154.69 374.58 110.73 374.5 110.73 379.46 154.7 379.54 154.69 374.58"/><polygon class="cls-4" points="154.67 363.59 110.71 363.51 110.72 368.47 154.68 368.55 154.67 363.59"/><path class="cls-4" d="M583.77,479.22l-47.3-.09-.11-59.39,47.3.09Zm-42.35-5,37.38.07-.09-49.48-37.38-.07Z" transform="translate(-382.61 -88.61)"/><polygon class="cls-4" points="191.6 373.55 163.37 373.49 163.38 378.45 191.61 378.5 191.6 373.55"/><polygon class="cls-4" points="191.58 366.49 163.36 366.44 163.37 371.39 191.59 371.45 191.58 366.49"/><polygon class="cls-4" points="191.57 359.43 163.34 359.38 163.35 364.34 191.58 364.39 191.57 359.43"/><polygon class="cls-4" points="191.56 352.38 163.33 352.32 163.34 357.28 191.57 357.33 191.56 352.38"/><path class="cls-4" d="M854.84,481.26l80.51,80.51L833.82,663.3l-80.51-80.51Zm69.27,80.49-69.25-69.25-90.31,90.31,69.25,69.25Z" transform="translate(-382.61 -88.61)"/><rect class="cls-4" x="867.01" y="510.33" width="7.93" height="70.6" transform="translate(-513.33 687.08) rotate(-45)"/><rect class="cls-4" x="854.57" y="522.77" width="7.93" height="70.6" transform="translate(-525.76 681.92) rotate(-45)"/><rect class="cls-4" x="842.14" y="535.2" width="7.93" height="70.6" transform="translate(-538.2 676.77) rotate(-45)"/><rect class="cls-4" x="829.7" y="547.64" width="7.93" height="70.6" transform="translate(-550.63 671.62) rotate(-45)"/><path class="cls-4" d="M783.64,477.57l53.7,53.7-67.19,67.19-53.7-53.7Zm42.47,53.68L783.66,488.8l-56,56,42.45,42.45Z" transform="translate(-382.61 -88.61)"/><rect class="cls-4" x="790.04" y="498.25" width="7.93" height="45.32" transform="translate(-518.39 625.41) rotate(-45)"/><rect class="cls-4" x="782.06" y="506.23" width="7.93" height="45.32" transform="translate(-526.37 622.11) rotate(-45)"/><rect class="cls-4" x="774.08" y="514.21" width="7.93" height="45.32" transform="translate(-534.35 618.8) rotate(-45)"/><rect class="cls-4" x="766.1" y="522.19" width="7.93" height="45.32" transform="translate(-542.34 615.49) rotate(-45)"/><path class="cls-4" d="M848,324.25l-37.88,37.88L761.94,314l37.88-37.88Zm-37.89,32.58,32.59-32.59-42.81-42.81L767.25,314Z" transform="translate(-382.61 -88.61)"/><rect class="cls-4" x="800.97" y="329.88" width="33.22" height="3.76" transform="translate(-377.73 586.68) rotate(-45)"/><rect class="cls-4" x="795.08" y="323.98" width="33.22" height="3.76" transform="translate(-375.29 580.78) rotate(-45)"/><rect class="cls-4" x="789.18" y="318.09" width="33.22" height="3.76" transform="translate(-372.85 574.89) rotate(-45)"/><rect class="cls-4" x="783.29" y="312.2" width="33.22" height="3.76" transform="translate(-370.41 569) rotate(-45)"/><path class="cls-4" d="M849.57,290.63,824.3,315.9l-31.85-31.85,25.27-25.27Zm-25.28,20,20-20-26.53-26.53-20,20Z" transform="translate(-382.61 -88.61)"/><rect class="cls-4" x="818.46" y="293.57" width="21.33" height="3.76" transform="translate(-348.68 584.21) rotate(-45)"/><rect class="cls-4" x="814.67" y="289.79" width="21.33" height="3.76" transform="translate(-347.11 580.42) rotate(-45)"/><rect class="cls-4" x="810.89" y="286" width="21.33" height="3.76" transform="translate(-345.55 576.64) rotate(-45)"/><rect class="cls-4" x="807.11" y="282.22" width="21.33" height="3.76" transform="translate(-343.98 572.86) rotate(-45)"/></g></g></svg>