<?xml version="1.0" encoding="utf-8"?>
<!-- Generator: Adobe Illustrator 18.1.1, SVG Export Plug-In . SVG Version: 6.00 Build 0)  -->
<svg version="1.1" id="Layer_1" xmlns="http://www.w3.org/2000/svg" xmlns:xlink="http://www.w3.org/1999/xlink" x="0px" y="0px"
	 viewBox="0 0 74.3 81.5" enable-background="new 0 0 74.3 81.5" xml:space="preserve">
<g>
	<path fill="none" stroke="#000000" stroke-width="0.75" stroke-miterlimit="10" d="M65.5,41.4c1.3-1.3,1.9-3,1.8-4.8
		c-0.1-1.8,0.4-3.1,1.9-4.2c1.9-1.5,3.6-3.3,4.4-5.7c1.1-3.3-1-7.8-4-9.3c-1.3-0.7-1.6-1.5-1.9-2.5c-0.8-3.3-3.3-4.9-6.2-5.9
		c-1.4-0.5-3.1-0.5-4.6-0.5c-2.4,0.1-4.5-0.5-6-2.3c0.1-0.4,0.2-1,0.3-1.5"/>
	<path fill="none" stroke="#000000" stroke-width="0.75" stroke-miterlimit="10" d="M43.8,1.6c-1.9-0.4-3.8-0.8-5.8-1.2
		c-2.1,2.5-5.1,1.7-7.8,1.9c-3,0.1-5.3,1.5-7.1,3.9c-0.8,1-1.7,1.9-2.6,2.9"/>
	<path fill="none" stroke="#000000" stroke-width="0.75" stroke-miterlimit="10" d="M32.8,24.5c1.5-1.2,3-2.5,4.6-3.5
		c4-2.5,9.7-2.1,11.9,2.6c0.9,2,2.7,3.7,4.3,5.3c2.6,2.4,3.6,5.4,3.7,8.8"/>
	<path fill="none" stroke="#000000" stroke-width="0.75" stroke-miterlimit="10" d="M51.5,62.9c-2.3-1-4.5-2.2-6.8-2.8
		c-3.5-0.9-7-1.1-10.3,0.8"/>
	<path fill="none" stroke="#000000" stroke-width="0.75" stroke-miterlimit="10" d="M42.7,52.6c0.3,5.8,6,9.3,12.5,7.7
		c0.8-0.2,1.7-0.5,2.4-0.9c3.4-2,3.4-4.5,0-6.8"/>
	<path fill="none" stroke="#000000" stroke-width="0.75" stroke-miterlimit="10" d="M8.6,33.7c-2.7,4.7-2.5,7.4,0.9,12.5
		c0.2,0.3,0.7,0.3,0.8,0.4c-1.8,5.9-0.4,11.6,7.5,13"/>
	<path fill="none" stroke="#000000" stroke-width="0.75" stroke-miterlimit="10" d="M2.4,23.6c-0.7,1.8-1.5,3.5-1.9,5.3
		c-0.8,2.9,2.1,6.6,5.5,7.2c0.4,0.1,0.7,0.1,1.1,0.2"/>
	<path fill="none" stroke="#000000" stroke-width="0.75" stroke-miterlimit="10" d="M18.7,9.1c-1.9,1.2-3.8,2.3-5.7,3.5
		c-1,0.6-1.8,0.9-3.1,0.7c-3.3-0.6-5.8,0.7-7.2,3.5c-1,2-0.4,4,0.2,5.9"/>
	<path fill="none" stroke="#000000" stroke-width="0.75" stroke-miterlimit="10" d="M50.8,6.7c-0.4,5.2-3.2,8.8-7.7,11.2
		c-0.4,0.2-0.6,0.9-0.9,1.3"/>
	<path fill="none" stroke="#000000" stroke-width="0.75" stroke-miterlimit="10" d="M46.4,2.9c1.4,1.6,2,6.3,0.8,8.1
		c-1,1.6-2.4,3-3.7,4.4"/>
	<path fill="none" stroke="#000000" stroke-width="0.75" stroke-miterlimit="10" d="M9,24.9c2.6,3.9,2.7,8,1.3,12.3"/>
	<path fill="none" stroke="#000000" stroke-width="0.75" stroke-miterlimit="10" d="M8.6,26.7c1.7,3.7,1.3,7.6,0.4,11.4"/>
	<path fill="none" stroke="#000000" stroke-width="0.75" stroke-miterlimit="10" d="M32.3,22.7c-1.9,1.1-2.5,3-3.1,4.8
		c-0.7,2.2-1.5,4.3-3.5,5.7"/>
	<path fill="none" stroke="#000000" stroke-width="0.75" stroke-miterlimit="10" d="M59.8,12.8c1.1,2.4,2.2,4.9,1.8,7.7
		c-0.2,1.2-0.2,2.3-0.2,3.5"/>
	<path fill="none" stroke="#000000" stroke-width="0.75" stroke-miterlimit="10" d="M55.8,11.1c1.6,0.5,3.5,0.7,4.8,1.6
		c3,2.3,5.8,4.8,5.6,9.2c0,0.3,0,0.6,0,0.9"/>
	<path fill="none" stroke="#000000" stroke-width="0.75" stroke-miterlimit="10" d="M42.4,12.2c2-3.7-0.1-8.5-4.4-9.2"/>
	<path fill="none" stroke="#000000" stroke-width="0.75" stroke-miterlimit="10" d="M43.3,3.4c3,4.2,2.9,7.4-0.2,10.8"/>
	<path fill="none" stroke="#000000" stroke-width="0.75" stroke-miterlimit="10" d="M59.1,20.5c0.1-3.4-1.3-6.2-3.3-8.8
		c-0.4-0.5-1.3-0.6-1.9-0.9"/>
	<path fill="none" stroke="#000000" stroke-width="0.75" stroke-miterlimit="10" d="M21.3,42.5c0.4,0.9,0.8,1.8,1.3,2.6
		c1.7,2.6,1.1,5.1-0.5,7.5"/>
	<path fill="none" stroke="#000000" stroke-width="0.75" stroke-miterlimit="10" d="M24.4,31.5c0.9,4.2-2.2,6.9-4,10.1"/>
	<path fill="none" stroke="#000000" stroke-width="0.75" stroke-miterlimit="10" d="M38.3,48c-1.1,0.8-2.1,1.8-3.3,2.4
		c-1.9,0.9-3.9,1-5.7-0.4"/>
	<path fill="none" stroke="#000000" stroke-width="0.75" stroke-miterlimit="10" d="M58.5,12.6c0.2,0.7,0.3,1.4,0.7,2
		c1.5,2.3,1.4,4.7,0.9,7.3"/>
	<path fill="none" stroke="#000000" stroke-width="0.75" stroke-miterlimit="10" d="M47.7,64c-1.8-0.4-3.5-0.8-5.3-1.3
		c-1.6-0.5-2.6,0.2-3.5,1.3"/>
	<path fill="none" stroke="#000000" stroke-width="0.75" stroke-miterlimit="10" d="M45.3,70.2c-0.3,2.7,0.9,5,1.8,7.5
		c0.2,0.5,0.3,1,0.4,1.5"/>
	<path fill="none" stroke="#000000" stroke-width="0.75" stroke-miterlimit="10" d="M34.1,4.3c-3.1-1-6.5,1.1-7.9,4.8"/>
	<path fill="none" stroke="#000000" stroke-width="0.75" stroke-miterlimit="10" d="M33.2,53.9C30,55.6,28,58,28.4,61.8"/>
	<path fill="none" stroke="#000000" stroke-width="0.75" stroke-miterlimit="10" d="M35.8,67.1c1.3,2.1,3.4,2.8,5.7,2.8
		c3.1,0.1,6.1-0.3,8.1-3.1"/>
	<path fill="none" stroke="#000000" stroke-width="0.75" stroke-miterlimit="10" d="M12.6,43.8c-0.6,3.1-0.4,6.1,2.2,8.4"/>
	<path fill="none" stroke="#000000" stroke-width="0.75" stroke-miterlimit="10" d="M56.5,41.2c0.9,2.6,1.7,5.2,0.7,7.9
		c-0.1,0.2,0.3,0.6,0.4,0.9"/>
	<path fill="none" stroke="#000000" stroke-width="0.75" stroke-miterlimit="10" d="M47.3,39c-1.4,3-1.3,5.8,0.9,8.4"/>
	<path fill="none" stroke="#000000" stroke-width="0.75" stroke-miterlimit="10" d="M27.5,12.2c-1.2,0.8-2.4,1.9-3.8,2.3
		c-1.8,0.6-2.8,1.6-3.3,3.4"/>
	<path fill="none" stroke="#000000" stroke-width="0.75" stroke-miterlimit="10" d="M10.8,13.7c-1.3,1.7-2.5,3.4-3.6,4.8
		c0.4,1.3,0.7,2.1,1,2.9"/>
	<path fill="none" stroke="#000000" stroke-width="0.75" stroke-miterlimit="10" d="M20,58.8c-0.1,2.3,1.7,3.2,3.1,4.4
		c0.6,0.5,1.3,0.8,2,1.2c0.7,4-1.6,6.8-4,9.6c-0.8,0.9-1.5,1.9-2.2,2.9"/>
	<path fill="none" stroke="#000000" stroke-width="0.75" stroke-miterlimit="10" d="M56.5,60.3c0.1,3.4-2.7,6.6-5.7,6.6"/>
	<path fill="none" stroke="#000000" stroke-width="0.75" stroke-miterlimit="10" d="M62.9,43.2c-0.6,3.1-3.1,4.7-5.1,6.8"/>
	<path fill="none" stroke="#000000" stroke-width="0.75" stroke-miterlimit="10" d="M47.7,28c-2-1.3-4.8-1.1-6.6,0.4"/>
	<path fill="none" stroke="#000000" stroke-width="0.75" stroke-miterlimit="10" d="M69,19.2c1.6,2.1,0.8,4.4,0.7,6.6"/>
	<path fill="none" stroke="#000000" stroke-width="0.75" stroke-miterlimit="10" d="M16.7,24.5c1.3,2.6,0.8,4.9-1.1,7"/>
	<path fill="none" stroke="#000000" stroke-width="0.75" stroke-miterlimit="10" d="M62.2,12.6c2.7,1,4.2,3.1,5.5,5.5"/>
	<path fill="none" stroke="#000000" stroke-width="0.75" stroke-miterlimit="10" d="M8.2,14.8c-0.7,1-1.5,2-1.9,3.1
		c-0.4,1-0.7,2.3,0.6,3.1"/>
	<path fill="none" stroke="#000000" stroke-width="0.75" stroke-miterlimit="10" d="M23.5,53c-0.1,1.8,1.1,2.4,2.4,2.8
		c0.8,0.3,1.6,0.5,2.4,0.7"/>
	<path fill="none" stroke="#000000" stroke-width="0.75" stroke-miterlimit="10" d="M68.8,51.3c-1.9-0.3-3.8-0.6-5.7-0.9"/>
	<path fill="none" stroke="#000000" stroke-width="0.75" stroke-miterlimit="10" d="M48.2,53.9c-3-2.8-7.5-2-9.5,0.7
		c-0.5,0.7-1,1.3-1.5,2"/>
	<path fill="none" stroke="#000000" stroke-width="0.75" stroke-miterlimit="10" d="M14.1,42.9c0.5,1.9,1,3.8,1.5,5.7"/>
	<path fill="none" stroke="#000000" stroke-width="0.75" stroke-miterlimit="10" d="M30.1,74.6c-2.3,1.5-4.7,2.9-7,4.4"/>
	<path fill="none" stroke="#000000" stroke-width="0.75" stroke-miterlimit="10" d="M25.5,73.9c-1.4,0.6-2.8,1.2-4.2,1.7
		c-0.5,0.2-1.2,0.2-1.8,0.2"/>
	<path fill="none" stroke="#000000" stroke-width="0.75" stroke-miterlimit="10" d="M13.4,46c0.7,1.8,1.5,3.5,2.2,5.3"/>
	<path fill="none" stroke="#000000" stroke-width="0.75" stroke-miterlimit="10" d="M61.8,52.6c1.5,1.5,2.9,2.9,4.4,4.4"/>
	<path fill="none" stroke="#000000" stroke-width="0.75" stroke-miterlimit="10" d="M25.3,67.8c1.6,1,3.2,1.7,5.1,0.7"/>
	<path fill="none" stroke="#000000" stroke-width="0.75" stroke-miterlimit="10" d="M49,29.3c-0.7,0.4-1.5,0.7-1.8,0.9
		c-2.2,0-4,0-5.7,0"/>
	<path fill="none" stroke="#000000" stroke-width="0.75" stroke-miterlimit="10" d="M26.2,62.7c0.2,3.4,3.6,6.2,6.8,5.7
		c1-0.2,2.1-0.3,3.1-0.4"/>
	<path fill="none" stroke="#000000" stroke-width="0.75" stroke-miterlimit="10" d="M35,58.8c-1.7,1-2.4,2.5-2.2,4.4"/>
	<path fill="none" stroke="#000000" stroke-width="0.75" stroke-miterlimit="10" d="M32.8,34.1c-1.8,0.6-3.3,1.6-4,3.5"/>
	<path fill="none" stroke="#000000" stroke-width="0.75" stroke-miterlimit="10" d="M62.9,32.6c-1.3,1.5-0.6,2.9,0,4.4"/>
	<path fill="none" stroke="#000000" stroke-width="0.75" stroke-miterlimit="10" d="M68.4,18.5c-0.1,0.5-0.6,1.3-0.4,1.5
		c1.5,1.5,0.6,3.3,0.8,4.9"/>
	<path fill="none" stroke="#000000" stroke-width="0.75" stroke-miterlimit="10" d="M47.3,2.1c1.2,1.3,2.3,2.6,3.5,4"/>
	<path fill="none" stroke="#000000" stroke-width="0.75" stroke-miterlimit="10" d="M14.8,40.7c-0.2,1.5-1.9,2.6-1.3,4.4"/>
	<path fill="none" stroke="#000000" stroke-width="0.75" stroke-miterlimit="10" d="M29.7,75.5c0.1,1.4,0.2,2.8,0.2,4.2
		c0.2,0.1,0.4,0.2,0.6,0.3c1-1.5,1.9-3,2.9-4.4"/>
	<path fill="none" stroke="#000000" stroke-width="0.75" stroke-miterlimit="10" d="M33.4,76.6c0.6,1.3,1.3,2.5,1.9,3.9
		c0.9-1.4,1.7-2.6,2.8-4.3c1.2,1.4,2.3,2.7,3.9,4.5c0.3-1.8,0.6-3.3,0.9-4.8"/>
	<path fill="none" stroke="#000000" stroke-width="0.75" stroke-miterlimit="10" d="M57.4,50c-0.5,0.7-1,1.3-1.6,2
		c-0.6-0.2-1.3-0.5-1.9-0.7"/>
	<path fill="none" stroke="#000000" stroke-width="0.75" stroke-miterlimit="10" d="M43.3,76.8c1.9,1.3,3.8,2.6,5.7,4"/>
	<path fill="none" stroke="#000000" stroke-width="0.75" stroke-miterlimit="10" d="M33.9,56.1c-0.8,1.3-1.6,2.6-2.4,4"/>
	<path fill="none" stroke="#000000" stroke-width="0.75" stroke-miterlimit="10" d="M25.1,74.6c-0.5,1.3-1,2.6-1.5,4"/>
	<path fill="none" stroke="#000000" stroke-width="0.75" stroke-miterlimit="10" d="M30.6,64.9c0.9,1.1,1.8,2.2,2.6,3.3"/>
	<path fill="none" stroke="#000000" stroke-width="0.75" stroke-miterlimit="10" d="M55.6,47.8c-3.2,2.3-4.7,2.2-6.6-0.4"/>
	<path fill="none" stroke="#000000" stroke-width="0.75" stroke-miterlimit="10" d="M4.6,46c-1.2,0-2.3,0-3.5,0"/>
	<path fill="none" stroke="#000000" stroke-width="0.75" stroke-miterlimit="10" d="M1.6,41.2c1,0.9,2.1,1.8,3.1,2.6"/>
	<path fill="none" stroke="#000000" stroke-width="0.75" stroke-miterlimit="10" d="M37.6,4c-2.2-0.2-4.2,0.1-5.7,2"/>
	<path fill="none" stroke="#000000" stroke-width="0.75" stroke-miterlimit="10" d="M6.8,50C6.1,51,5.4,52,4.6,53"/>
	<path fill="none" stroke="#000000" stroke-width="0.75" stroke-miterlimit="10" d="M5.1,49.1c-0.9,0.9-1.8,1.8-2.6,2.6"/>
	<path fill="none" stroke="#000000" stroke-width="0.75" stroke-miterlimit="10" d="M36.3,53.9c-0.8,0.6-1.6,1.2-2.4,1.8"/>
	<path fill="none" stroke="#000000" stroke-width="0.75" stroke-miterlimit="10" d="M10.4,47.5c0.4,1,0.9,1.9,1.3,2.9"/>
	<path fill="none" stroke="#000000" stroke-width="0.75" stroke-miterlimit="10" d="M68.2,20.7c-0.1,1-0.1,1.9-0.2,2.9"/>
	<path fill="none" stroke="#000000" stroke-width="0.75" stroke-miterlimit="10" d="M35,43.1c0,0.5,0,0.9,0,1.4"/>
	<path fill="none" stroke="#000000" stroke-width="0.75" stroke-miterlimit="10" d="M51.7,42.3c0,0.5,0,1,0,1.5"/>
	<path fill="none" stroke="#000000" stroke-width="0.75" stroke-miterlimit="10" d="M67.5,46.5c-0.9,0.1-1.8,0.3-2.6,0.4"/>
	<path fill="none" stroke="#000000" stroke-width="0.75" stroke-miterlimit="10" d="M42.4,25.4c-0.9,0.1-1.8,0.3-2.6,0.4"/>
	<path fill="none" stroke="#000000" stroke-width="0.75" stroke-miterlimit="10" d="M38,42.5c0,2.1-1.7,1.5-3.1,1.8"/>
	<path fill="none" stroke="#000000" stroke-width="0.75" stroke-miterlimit="10" d="M48.2,52.6c1.6,0.9,3.2,1.7,4.8,2.6
		c-0.1,0.2-0.2,0.3-0.4,0.5c-0.4-0.3-0.8-0.6-1.1-0.9"/>
	<path fill="none" stroke="#000000" stroke-width="0.75" stroke-miterlimit="10" d="M54.7,34.6c0.4,0.7,0.9,1.5,1.3,2.2"/>
	<path fill="none" stroke="#000000" stroke-width="0.75" stroke-miterlimit="10" d="M52.8,64.7c-0.7,0.7-1.5,1.3-2.2,2"/>
	<path fill="none" stroke="#000000" stroke-width="0.75" stroke-miterlimit="10" d="M38.5,41.6c-0.7-0.1-1.5-0.1-2.2-0.2"/>
	<path fill="none" stroke="#000000" stroke-width="0.75" stroke-miterlimit="10" d="M16.5,21c-0.3,0.7-0.6,1.5-0.9,2.2"/>
	<path fill="none" stroke="#000000" stroke-width="0.75" stroke-miterlimit="10" d="M42.4,35c0.6,0,1.2,0,1.8,0"/>
	<path fill="none" stroke="#000000" stroke-width="0.75" stroke-miterlimit="10" d="M40.7,30.2c-0.7,0.3-1.5,0.6-2.2,0.9"/>
	<path fill="none" stroke="#000000" stroke-width="0.75" stroke-miterlimit="10" d="M51.7,41.6c-1-0.1-2.1-0.1-3.1-0.2"/>
	<path fill="none" stroke="#000000" stroke-width="0.75" stroke-miterlimit="10" d="M65.1,41.8c-0.7,0.3-1.3,0.6-2,0.9"/>
	<path fill="none" stroke="#000000" stroke-width="0.75" stroke-miterlimit="10" d="M42.9,64.9c-0.6,0.1-1.2,0.3-1.8,0.4"/>
	<path fill="none" stroke="#000000" stroke-width="0.75" stroke-miterlimit="10" d="M41.6,42.1c-0.1,0.6-0.3,1.2-0.4,1.8"/>
	<path fill="none" stroke="#000000" stroke-width="0.75" stroke-miterlimit="10" d="M54.7,43.4c0.2-0.3,0.3-0.6,0.5-0.9
		c-0.3-0.2-0.5-0.4-0.7-0.6"/>
	<path fill="none" stroke="#000000" stroke-width="0.75" stroke-miterlimit="10" d="M30.1,43.8c-0.6,0.3-1.2,0.6-1.8,0.9"/>
	<path fill="none" stroke="#000000" stroke-width="0.75" stroke-miterlimit="10" d="M50.8,39.9c0,0.6,0,1.2,0,1.8"/>
	<path fill="none" stroke="#000000" stroke-width="0.75" stroke-miterlimit="10" d="M32.3,47c-1.3-0.3-2-2.3-3.5-1"/>
	<path fill="none" stroke="#000000" stroke-width="0.75" stroke-miterlimit="10" d="M63.8,30.4c0.4-0.1,0.8-0.2,1.5-0.3
		c-0.7,1-1.1,1.6-1.5,2.3"/>
	<path fill="none" stroke="#000000" stroke-width="0.75" stroke-miterlimit="10" d="M48.9,43.2c0.9,0.1,3.5,0.3,4.4,0.4
		c0.8,0,1.8-0.8,2,0.7"/>
	<path fill="none" stroke="#000000" stroke-width="0.75" stroke-miterlimit="10" d="M34.8,44.3c-0.7,0.1-1.5,0.2-2.5,0.4
		c-0.2-0.5-2.6,0.5-1.7-1.7"/>
	<path fill="none" stroke="#000000" stroke-width="0.75" stroke-miterlimit="10" d="M53,39.9c-0.1,0.8-0.1,1.6,1,1.5
		c0.3-0.4,0.5-0.8,0.8-1.1"/>
	<path fill="none" stroke="#000000" stroke-width="0.75" stroke-miterlimit="10" d="M36.5,46c-1.1,1.1-2.4,1.7-4,1.1"/>
	<path fill="none" stroke="#000000" stroke-width="0.75" stroke-miterlimit="10" d="M35,41.6c-1.4,0.3-2.8,0.6-4.2,0.9
		c0-0.2-0.1-0.6-0.2-0.9"/>
	<path fill="none" stroke="#000000" stroke-width="0.75" stroke-miterlimit="10" d="M46.8,35c0.3,0.1,0.6,0.3,0.9,0.4"/>
	<path fill="none" stroke="#000000" stroke-width="0.75" stroke-miterlimit="10" d="M49.9,65.8c-0.1,0.2-0.1,0.4-0.2,0.7
		c0.4,0.1,0.7,0.3,1.1,0.4"/>
	<path fill="none" stroke="#000000" stroke-width="0.75" stroke-miterlimit="10" d="M37.2,53c0.1,0.3,0.3,0.6,0.4,0.9"/>
	<path fill="none" stroke="#000000" stroke-width="0.75" stroke-miterlimit="10" d="M35,55.7c-0.7,0.1-1.5,0.3-2.2,0.4"/>
	<path fill="none" stroke="#000000" stroke-width="0.75" stroke-miterlimit="10" d="M50.8,30.2c-0.3-0.1-0.6-0.3-0.9-0.4"/>
</g>
</svg>
