<?xml version="1.0" encoding="utf-8"?>
<!-- Generator: Adobe Illustrator 18.1.1, SVG Export Plug-In . SVG Version: 6.00 Build 0)  -->
<svg version="1.1" id="Layer_1" xmlns="http://www.w3.org/2000/svg" xmlns:xlink="http://www.w3.org/1999/xlink" x="0px" y="0px"
	 viewBox="0 0 79.9 93.7" enable-background="new 0 0 79.9 93.7" xml:space="preserve">
<g>
	<g>
		<g>
			<path fill="none" stroke="#000000" stroke-width="2" stroke-miterlimit="10" d="M25.5,83.1C11.2,77.4,1,63.3,1,46.9
				C1,26.2,17.1,9.3,37.5,8"/>
			<g>
				<path d="M25.3,19.6c-0.4-0.4-0.3-1.1,0.1-1.4l11.6-9.9L23.2,1.9c-0.5-0.2-0.7-0.8-0.5-1.3c0.2-0.5,0.8-0.7,1.3-0.5l15.3,7
					c0.3,0.1,0.5,0.4,0.6,0.8c0,0.3-0.1,0.7-0.3,0.9l-12.8,11c-0.2,0.1-0.3,0.2-0.5,0.2C25.9,20,25.6,19.9,25.3,19.6z"/>
			</g>
		</g>
		<g>
			<path fill="none" stroke="#000000" stroke-width="2" stroke-miterlimit="10" d="M54,10.6c14.5,5.6,24.9,19.8,24.9,36.3
				c0,20.7-16.1,37.6-36.5,38.9"/>
			<g>
				<path d="M54.4,74.1c0.4,0.4,0.3,1-0.1,1.4L42.8,85.6l14,6.1c0.5,0.2,0.7,0.8,0.5,1.3c-0.2,0.5-0.8,0.7-1.3,0.5l-15.5-6.8
					c-0.3-0.1-0.5-0.4-0.6-0.8c-0.1-0.3,0.1-0.7,0.3-0.9L52.9,74c0.1-0.1,0.3-0.2,0.5-0.2C53.8,73.7,54.1,73.8,54.4,74.1z"/>
			</g>
		</g>
	</g>
	<rect x="29.5" y="30.8" fill="none" stroke="#000000" stroke-width="2" stroke-miterlimit="10" width="19.2" height="33.9"/>
	<line fill="none" stroke="#000000" stroke-width="2" stroke-miterlimit="10" x1="35.1" y1="61" x2="42.3" y2="61"/>
</g>
</svg>
