<?xml version="1.0" encoding="utf-8"?>
<!-- Generator: Adobe Illustrator 21.1.0, SVG Export Plug-In . SVG Version: 6.00 Build 0)  -->
<svg version="1.1" id="Слой_1" xmlns="http://www.w3.org/2000/svg" xmlns:xlink="http://www.w3.org/1999/xlink" x="0px" y="0px"
	 viewBox="0 0 393.3 323.9" style="enable-background:new 0 0 393.3 323.9;" xml:space="preserve">
<style type="text/css">
	.st0{opacity:0.2;}
	.st1{fill:#998675;}
</style>
<title>6</title>
<g class="st0">
	<path class="st1" d="M4.4,45.1l-4.5,4.5v16.2l2.7-2.7l77.8,116.2l-7.7-7.7l-20.3,20.2l-16.3-16.2l20.3-20.2l-8.1-8.1l-20.4,20.2
		l-16.2-16.2L32,131.1l-8.1-8.1L3.6,143.2L0,139.6v16.2v7.2l3.6-3.6l16.3,16.2L3.6,191.8L0,188.2v16.1v7.2l3.6-3.6l16.3,16.2
		L3.6,240.3L0,236.7v7.2v0.9v5.3v11.7c4-1.3,8.6-0.4,11.7,2.7l0.1,0.1c4.4,4.5,4.4,11.7-0.1,16.1c-3.2,3.2-7.8,4.1-11.8,2.8v11.8
		c7,1.1,14.5-1,19.9-6.4c0,0,0,0,0.1-0.1c2.9-2.9,4.9-6.5,5.9-10.2l2.2,2.2l80.6-80.3L4.4,45.1z M11.7,199.9L28,183.7l16.3,16.2
		l-16.4,16.2L11.7,199.9z M28,264.7l-16.3-16.2l16.2-16.2l16.3,16.2L28,264.7z M52.4,240.4l-16.3-16.2L52.4,208l16.3,16.2
		L52.4,240.4z M60.5,199.9l20.3-20.2l13,19.4l-17,16.9L60.5,199.9z"/>
	<polygon class="st1" points="57.5,51.5 31.6,0 18.8,0 47.2,56.6 	"/>
	<polygon class="st1" points="-0.1,99 -0.1,114.4 7.6,106.7 	"/>
	<polygon class="st1" points="71.1,286.5 41.3,301.3 42.9,304.4 72.7,289.6 	"/>
	<path class="st1" d="M143.8,297.9c-0.9-0.9-2-1.5-3.1-1.8l0.7-0.7l-24.6-24.5l-47.6,31.6l21.5,21.4h2.5h4.7l3.9-3.9l3.9,3.9h4.7
		h2.5l19.4-19.3c0.3,1.1,0.9,2.2,1.8,3.1l0,0c2.7,2.7,7.2,2.7,9.9,0C146.5,305.1,146.5,300.6,143.8,297.9L143.8,297.9z M128.9,288
		l-5,4.9l-5-4.9l5-4.9L128.9,288z M111.5,295.4l5-4.9l5,4.9l-5,4.9L111.5,295.4z M114,302.8l-5,4.9l-5-4.9l5-4.9L114,302.8z
		 M116.3,275.5l5.2,5.1l-5,4.9l-6.2-6.1L116.3,275.5z M74.7,303.1l35.5-23.5l-2.3,2.3l6.2,6.2l-5,4.9l-6.2-6.2l-2.5,2.5l6.2,6.2
		l-5,4.9l-6.2-6.2l-2.5,2.5l6.2,6.2l-5,4.9l-6.2-6.2l-2.5,2.5l6.2,6.2l-4.9,4.9L74.7,303.1z M94.2,322.6l-5-4.9l4.9-4.9l5,4.9
		L94.2,322.6z M101.6,315.2l-5-4.9l5-4.9l5,4.9L101.6,315.2z M109.1,322.6l-5-4.9l5-4.9l5,4.9L109.1,322.6z M116.5,315.2l-5-4.9
		l5-4.9l5,4.9L116.5,315.2z M123.9,307.8l-5-4.9l5-4.9l5,4.9L123.9,307.8z M131.4,300.4l-5-4.9l5-4.9l4.9,4.9L131.4,300.4z
		 M141.4,305.3C141.3,305.3,141.3,305.3,141.4,305.3c-1.4,1.4-3.6,1.4-5,0l0,0l0,0c-1.3-1.4-1.3-3.5,0-4.9l0.1-0.1
		c1.4-1.3,3.6-1.3,4.9,0.1l0,0C142.7,301.7,142.7,304,141.4,305.3z"/>
	<path class="st1" d="M393.3,119.6L309,136.4V217h2.3c-1.4,2.4-2.2,5.1-2.2,8.1c0,9,7.2,16.3,16.2,16.3s16.3-7.3,16.3-16.3
		c0-3-0.8-5.7-2.2-8.1h53.9v-8.1h-2.6v-16.3h2.6v-8.1h-2.6v-16.3h2.6v-8.1h-2.6v-20.3h-8.2v20.3h-16.3v-20.3H358v20.3h-16.3v-20.3
		h-7.8l59.4-11.8V119.6z M366.2,168.2h16.3v16.3h-16.3V168.2z M366.2,192.6h16.3v16.3h-16.3V192.6z M341.7,168.2H358v16.3h-16.3
		V168.2z M341.7,192.6H358v16.3h-16.3V192.6z M325.4,233.2c-4.5,0-8.1-3.6-8.2-8.1c0-4.5,3.6-8.1,8.1-8.2c4.5,0,8.2,3.6,8.2,8.1
		C333.5,229.6,329.9,233.2,325.4,233.2z M333.5,208.8h-16.3v-16.3h16.3V208.8z M333.5,184.5h-16.3v-16.3h16.3V184.5z M333.5,160.1
		h-16.3v-17l16.3-3.3V160.1z"/>
	<path class="st1" d="M224.9,0h-4.1l9.2,9.2l-29.5,19.6l2-2l-5.1-5.1l4.1-4.1l5.1,5.1l2.1-2l-5.1-5.1l4.1-4.1l5.1,5.1l2-2l-5.1-5.1
		l4.1-4.1l5.1,5.1l2.1-2l-5.1-5.1l3.3-3.2h-4.1l-1.2,1.2l-1.2-1.2h-4.1l3.3,3.2l-4.1,4.1l-4.1-4.1l3.3-3.2h-4.1l-1.2,1.2l-1.2-1.2
		h-4.1l3.3,3.2l-4.1,4.1l-4.1-4.1l3.3-3.2h-4.1l-8,7.9c-0.3-1-0.7-1.9-1.5-2.6c-2.3-2.3-6-2.3-8.2,0l0,0c-2.3,2.3-2.2,5.9,0,8.2
		c0.8,0.8,1.7,1.2,2.6,1.5l-0.6,0.6l20.4,20.3l39.5-26.2L224.9,0z M201.4,5.3l4.1,4.1l-4.1,4.1l-4.1-4.1L201.4,5.3z M199.3,15.5
		l-4.1,4.1l-4.1-4.1l4.1-4.1L199.3,15.5z M189.1,5.3l4.1,4.1l-4.1,4.1L185,9.4L189.1,5.3z M174.7,11.4
		C174.6,11.4,174.6,11.4,174.7,11.4c-1.1-1.1-1.1-3,0-4.1s3-1.1,4.1,0l0,0c1.1,1.1,1.1,2.9,0,4.1C177.6,12.5,175.8,12.5,174.7,11.4z
		 M178.8,15.5l2.1-2l0,0l0,0l0,0l2-2l4.1,4.1l-4.1,4.1L178.8,15.5z M184.9,21.7l4.1-4.1l4.1,4.1l-4.1,4.1L184.9,21.7z M195.4,32.1
		l-4.3-4.3l4.1-4.1l5.1,5.1L195.4,32.1z"/>
	<polygon class="st1" points="231.6,20.4 232.9,23 257.6,10.7 256.3,8.1 	"/>
</g>
</svg>
