<?xml version="1.0" encoding="utf-8"?>
<!-- Generator: Adobe Illustrator 21.1.0, SVG Export Plug-In . SVG Version: 6.00 Build 0)  -->
<svg version="1.1" id="Слой_1" xmlns="http://www.w3.org/2000/svg" xmlns:xlink="http://www.w3.org/1999/xlink" x="0px" y="0px"
	 viewBox="0 0 558.2 324.3" style="enable-background:new 0 0 558.2 324.3;" xml:space="preserve">
<style type="text/css">
	.st0{opacity:0.2;fill:#998675;}
</style>
<title>5</title>
<path class="st0" d="M92,250.1l-5.5-5.5l4.1-4l-16.3-16.2l-4.1,4l-8.1-8.1l4.1-4L49.8,200l-4.1,4l-8.1-8.1l4.1-4l-16.3-16.2l-4.1,4
	l-5.5-5.5c0.2,2.5-0.1,5-0.7,7.4l69.5,69.2C87,250.2,89.5,249.9,92,250.1z"/>
<path class="st0" d="M1,151.4l16.3-16.2l-4.1-4l8.1-8.1l4.1,4l16.3-16.2l-4.1-4l8.1-8.1l4.1,4l39.8-39.6l77.8,116.2l0.4,0.4
	l-0.1,0.1l13,19.4l-17,16.9l4.1,4l-8.1,8.1l-4.1-4l-16.3,16.2l4.1,4l-8.1,8.1l-4.1-4l-16.3,16.2l-16.3-16.2l-2.2,2.2
	c3.8,1,7.4,3,10.3,5.9c6,6,8,14.5,5.9,22.1l2.2,2.2l80.6-80.3L91.4,45.2l-91.5,91.1v17.6c3.4,1.1,6.6,2.9,9.3,5.6L1,151.4z"/>
<path class="st0" d="M9.2,159.5c3,3,4.9,6.5,5.9,10.3l2.2-2.2L9.2,159.5z"/>
<path class="st0" d="M1,167.6L1,167.6L1,167.6z"/>
<polygon class="st0" points="144.5,51.7 118.6,0.1 105.7,0.1 134.2,56.8 "/>
<path class="st0" d="M106.8,256.7c-3-3-6.5-4.9-10.3-5.9l-1.9,1.9l-2.6-2.6c-2.5-0.2-5,0.1-7.4,0.7c-3.8,1-7.4,3-10.3,5.9
	c-9,8.9-9,23.5,0,32.4s23.6,8.9,32.5,0c3-3,4.9-6.5,5.9-10.3C114.8,271.2,112.8,262.7,106.8,256.7z M98.7,281
	c-4.5,4.5-11.8,4.5-16.3,0s-4.5-11.7,0-16.2s11.8-4.5,16.3,0C103.1,269.3,103.1,276.6,98.7,281z"/>
<path class="st0" d="M15.1,181.6c0.6-2.4,0.9-4.9,0.7-7.4l-2.6-2.6l1.9-1.9c-1-3.8-3-7.3-5.9-10.3l0,0l0,0c-2.7-2.7-5.9-4.5-9.3-5.6
	v12.7c0.4,0.3,0.8,0.6,1.1,1l0,0l0,0c4.5,4.5,4.5,11.7,0,16.2c-0.4,0.4-0.7,0.7-1.1,1v12.7c3.4-1.1,6.6-2.9,9.3-5.6
	C12.1,189,14.1,185.4,15.1,181.6z"/>
<polygon class="st0" points="106.8,224.3 90.5,240.5 86.5,244.6 92,250.1 94.6,252.7 96.5,250.8 98.7,248.6 114.9,232.4 "/>
<polygon class="st0" points="131.2,200 114.9,216.2 123.1,224.3 139.3,208.1 "/>
<polygon class="st0" points="139.3,191.9 147.5,200 167.7,179.9 167.8,179.8 167.4,179.4 159.7,171.7 "/>
<polygon class="st0" points="82.4,200 66.1,216.2 62,220.3 70.2,228.4 74.3,224.3 90.5,208.1 "/>
<polygon class="st0" points="135.3,147.4 114.9,167.6 123.1,175.7 143.4,155.5 "/>
<polygon class="st0" points="106.8,175.7 90.5,191.9 98.7,200 114.9,183.8 "/>
<polygon class="st0" points="110.9,123.1 90.5,143.3 98.7,151.4 119,131.2 "/>
<polygon class="st0" points="58,175.7 41.7,191.9 37.6,196 45.8,204.1 49.8,200 66.1,183.8 "/>
<polygon class="st0" points="82.4,151.4 66.1,167.6 74.3,175.7 90.5,159.5 "/>
<polygon class="st0" points="86.5,98.8 66.1,119 74.3,127.1 94.6,106.9 "/>
<polygon class="st0" points="58,127.1 41.7,143.3 49.8,151.4 66.1,135.2 "/>
<polygon class="st0" points="25.4,175.7 41.7,159.5 33.6,151.4 17.3,167.6 15.1,169.8 13.2,171.7 15.8,174.3 21.4,179.8 "/>
<polygon class="st0" points="66.1,135.2 82.4,151.4 90.5,159.5 106.8,175.7 114.9,183.8 131.2,200 139.3,208.1 155.6,224.3 
	159.7,228.4 167.8,220.3 163.7,216.2 147.5,200 139.3,191.9 123.1,175.7 114.9,167.6 98.7,151.4 90.5,143.3 74.3,127.1 66.1,119 
	49.8,102.8 45.8,98.8 37.6,106.9 41.7,110.9 58,127.1 "/>
<polygon class="st0" points="41.7,159.5 58,175.7 66.1,183.8 82.4,200 90.5,208.1 106.8,224.3 114.9,232.4 131.2,248.6 135.3,252.7 
	143.4,244.6 139.3,240.5 123.1,224.3 114.9,216.2 98.7,200 90.5,191.9 74.3,175.7 66.1,167.6 49.8,151.4 41.7,143.3 25.4,127.1 
	21.4,123.1 13.2,131.2 17.3,135.2 33.6,151.4 "/>
<path class="st0" d="M181.2,322.8l-5-4.9l-1.2,1.2l-2.5-2.5l1.2-1.2l-12.1-12.1l35.6-23.6l0.1-0.1l0,0l6-4l5.2,5.2l1.2-1.2l2.5,2.5
	l-1.2,1.2l5,4.9l1.2-1.2l2.5,2.5l-1.2,1.2l5,4.9l-5,4.9l0.7,0.7c0.3-1.1,0.9-2.2,1.8-3.1c1.8-1.8,4.4-2.4,6.8-1.8l0.7-0.7
	l-24.6-24.5l-47.6,31.6l21.5,21.4h2.5l-0.1-0.1L181.2,322.8z"/>
<path class="st0" d="M218.8,302.6l-1.7,1.7l-1.2-1.2l-5,4.9l1.2,1.2l-2.5,2.5l-1.2-1.2l-5,4.9l1.2,1.2l-2.5,2.5l-1.2-1.2l-5,4.9
	l1.2,1.2l-0.1,0.1h2.5l19.4-19.3C218.9,304.1,218.8,303.3,218.8,302.6z"/>
<path class="st0" d="M223.3,300.5L223.3,300.5L223.3,300.5z"/>
<polygon class="st0" points="128.3,301.5 129.9,304.6 159.6,289.8 158.1,286.6 "/>
<path class="st0" d="M220.9,298.1c-0.9,0.9-1.5,2-1.8,3.1l0.6,0.6l-0.8,0.8c0,0.8,0,1.5,0.2,2.2c0.3,1.1,0.9,2.2,1.8,3.1
	c2.7,2.7,7.2,2.7,9.9,0s2.7-7.2,0-9.9c-0.9-0.9-2-1.5-3.2-1.8C225.3,295.7,222.7,296.3,220.9,298.1z M228.3,300.5
	c1.4,1.4,1.4,3.6,0,4.9s-3.6,1.4-5,0s-1.4-3.6,0-4.9l0,0l0,0C224.7,299.2,226.9,299.2,228.3,300.5z"/>
<polygon class="st0" points="203.5,290.7 208.5,295.6 210.9,293.1 206,288.2 "/>
<polygon class="st0" points="201,288.2 203.5,285.7 197.3,279.6 197.3,279.6 197.2,279.7 194.8,282 "/>
<polygon class="st0" points="219.1,301.2 218.4,300.5 213.4,295.6 210.9,298.1 215.9,303 217.1,304.3 218.8,302.6 219.6,301.8 "/>
<polygon class="st0" points="203.5,305.5 208.5,310.4 209.7,311.7 212.2,309.2 210.9,308 206,303 "/>
<polygon class="st0" points="187.4,289.4 193.6,295.6 196.1,293.1 189.9,287 "/>
<polygon class="st0" points="196.1,298.1 201,303 203.5,300.5 198.5,295.6 "/>
<polygon class="st0" points="179.9,296.8 186.1,303 188.6,300.5 182.4,294.4 "/>
<polygon class="st0" points="196.1,312.9 201,317.8 202.3,319.1 204.7,316.6 203.5,315.4 198.5,310.4 "/>
<polygon class="st0" points="188.6,305.5 193.6,310.4 196.1,308 191.1,303 "/>
<polygon class="st0" points="181.2,312.9 186.1,317.8 188.6,315.4 183.7,310.4 "/>
<polygon class="st0" points="172.5,304.3 178.7,310.4 181.2,308 175,301.8 "/>
<polygon class="st0" points="196.1,322.8 191.1,317.8 188.6,320.3 192.5,324.1 197.2,324.1 197.3,324 "/>
<polygon class="st0" points="183.7,310.4 188.6,305.5 191.1,303 196.1,298.1 198.5,295.6 203.5,290.7 206,288.2 210.9,283.3 
	212.2,282 209.7,279.6 208.5,280.8 203.5,285.7 201,288.2 196.1,293.1 193.6,295.6 188.6,300.5 186.1,303 181.2,308 178.7,310.4 
	173.7,315.4 172.5,316.6 175,319.1 176.2,317.8 181.2,312.9 "/>
<polygon class="st0" points="191.1,317.8 196.1,312.9 198.5,310.4 203.5,305.5 206,303 210.9,298.1 213.4,295.6 218.4,290.7 
	219.6,289.4 217.1,287 215.9,288.2 210.9,293.1 208.5,295.6 203.5,300.5 201,303 196.1,308 193.6,310.4 188.6,315.4 186.1,317.8 
	181.2,322.8 179.9,324 180.1,324.1 184.8,324.1 188.6,320.3 "/>
<path class="st0" d="M420.5,209h-8.2c3,0,5.8,0.8,8.2,2.2V209z"/>
<path class="st0" d="M502.2,211.2c2.4-1.4,5.2-2.2,8.2-2.2h-8.2V211.2z"/>
<path class="st0" d="M396,217.2h2.2c2.8-4.9,8.1-8.1,14.1-8.1h-8.2v-16.3H400v-8.1h4.1v-16.3H400v-8.1h4.1v-17l16.3-3.3v-0.1h0.4
	l97.6-19.4v39.8h4.1v8.1h-4.1v16.3h4.1v8.1h-4.1V209h-8.2c6,0,11.3,3.3,14.1,8.1h2.2V110.6l-130.7,26v80.6H396z"/>
<path class="st0" d="M499.6,213.1H494V209h-16.3v4.1h-8.2V209h-16.3v4.1H445V209h-16.3v4.1h-5.6c1.3,1.2,2.5,2.5,3.4,4.1h69.8
	C497.1,215.6,498.2,214.3,499.6,213.1z"/>
<polygon class="st0" points="499.4,95 558.3,75.4 558.3,66.9 496.8,87.3 "/>
<path class="st0" d="M423.1,213.1h-2.6v-1.9c-2.4-1.4-5.2-2.2-8.2-2.2c-6,0-11.3,3.3-14.1,8.1c-1.4,2.4-2.2,5.2-2.2,8.1
	c0,9,7.3,16.3,16.3,16.3s16.3-7.3,16.3-16.3c0-3-0.8-5.7-2.2-8.1C425.6,215.6,424.4,214.3,423.1,213.1z M420.5,225.3
	c0,4.5-3.7,8.1-8.2,8.1s-8.2-3.6-8.2-8.1s3.7-8.1,8.2-8.1S420.5,220.8,420.5,225.3z"/>
<path class="st0" d="M510.3,209c-3,0-5.8,0.8-8.2,2.2v1.9h-2.6c-1.3,1.2-2.5,2.5-3.4,4.1c-1.4,2.4-2.2,5.2-2.2,8.1
	c0,9,7.3,16.3,16.3,16.3s16.3-7.3,16.3-16.3c0-3-0.8-5.7-2.2-8.1C521.6,212.3,516.4,209,510.3,209z M518.5,225.3
	c0,4.5-3.7,8.1-8.2,8.1s-8.2-3.6-8.2-8.1s3.7-8.1,8.2-8.1S518.5,220.8,518.5,225.3z"/>
<polygon class="st0" points="420.5,192.8 420.5,209 420.5,211.2 420.5,213.1 423.1,213.1 428.7,213.1 428.7,209 428.7,192.8 "/>
<rect x="420.5" y="168.4" class="st0" width="8.2" height="16.3"/>
<polygon class="st0" points="428.7,160.2 428.7,139.9 420.9,139.9 420.5,139.9 420.5,140 420.5,160.2 "/>
<polygon class="st0" points="445,192.8 445,209 445,213.1 453.2,213.1 453.2,209 453.2,192.8 "/>
<rect x="445" y="168.4" class="st0" width="8.2" height="16.3"/>
<rect x="445" y="139.9" class="st0" width="8.2" height="20.3"/>
<rect x="469.5" y="168.4" class="st0" width="8.2" height="16.3"/>
<polygon class="st0" points="469.5,192.8 469.5,209 469.5,213.1 477.7,213.1 477.7,209 477.7,192.8 "/>
<rect x="469.5" y="139.9" class="st0" width="8.2" height="20.3"/>
<polygon class="st0" points="502.2,192.8 494,192.8 494,209 494,213.1 499.6,213.1 502.2,213.1 502.2,211.2 502.2,209 "/>
<rect x="494" y="168.4" class="st0" width="8.2" height="16.3"/>
<rect x="494" y="139.9" class="st0" width="8.2" height="20.3"/>
<polygon class="st0" points="428.7,168.4 445,168.4 453.2,168.4 469.5,168.4 477.7,168.4 494,168.4 502.2,168.4 518.5,168.4 
	522.6,168.4 522.6,160.2 518.5,160.2 502.2,160.2 494,160.2 477.7,160.2 469.5,160.2 453.2,160.2 445,160.2 428.7,160.2 
	420.5,160.2 404.2,160.2 400.1,160.2 400.1,168.4 404.2,168.4 420.5,168.4 "/>
<polygon class="st0" points="428.7,192.8 445,192.8 453.2,192.8 469.5,192.8 477.7,192.8 494,192.8 502.2,192.8 518.5,192.8 
	522.6,192.8 522.6,184.6 518.5,184.6 502.2,184.6 494,184.6 477.7,184.6 469.5,184.6 453.2,184.6 445,184.6 428.7,184.6 
	420.5,184.6 404.2,184.6 400.1,184.6 400.1,192.8 404.2,192.8 420.5,192.8 "/>
<path class="st0" d="M269.5,9.9l1.4-1.4l1,1l4.1-4.1l-1-1l2.1-2l1,1l3.3-3.2h-4.1l-7.9,7.9C269.5,8.7,269.5,9.3,269.5,9.9z"/>
<path class="st0" d="M265.8,11.6L265.8,11.6L265.8,11.6z"/>
<path class="st0" d="M287.5,28.9l-0.1,0.1l0,0l-4.9,3.3l-4.3-4.3l-1,1l-2.1-2l1-1l-4.1-4.1l-1,1l-2.1-2l1-1l-4.1-4.1l4.1-4.1
	l-0.6-0.6c-0.3,1-0.7,1.9-1.5,2.6c-1.5,1.5-3.7,2-5.6,1.5l-0.6,0.6L282,36l39.5-26.2l-9.7-9.6h-4.1l9.2,9.2L287.5,28.9z"/>
<polygon class="st0" points="318.6,20.5 319.9,23.1 344.6,10.8 343.3,8.2 "/>
<path class="st0" d="M267.8,13.6c0.8-0.7,1.2-1.7,1.5-2.6l-0.5-0.5l0.6-0.6c0-0.6,0-1.3-0.2-1.9c-0.3-1-0.7-1.9-1.5-2.6
	c-2.3-2.3-6-2.3-8.2,0c-2.3,2.3-2.3,5.9,0,8.2c0.8,0.7,1.7,1.2,2.6,1.5C264.2,15.6,266.3,15.2,267.8,13.6z M261.6,11.6
	c-1.1-1.1-1.1-3,0-4.1s3-1.1,4.1,0s1.1,3,0,4.1l0,0l0,0C264.6,12.7,262.8,12.7,261.6,11.6z"/>
<polygon class="st0" points="282.2,19.8 278.1,15.7 276.1,17.7 280.2,21.8 "/>
<polygon class="st0" points="287.4,29 287.5,28.9 289.4,27 284.3,21.8 282.2,23.9 287.3,29 "/>
<polygon class="st0" points="269.3,11 269.9,11.6 274,15.7 276.1,13.6 271.9,9.5 270.9,8.5 269.5,9.9 268.9,10.6 "/>
<polygon class="st0" points="282.2,7.5 278.1,3.4 277.1,2.4 275,4.4 276.1,5.4 280.2,9.5 "/>
<polygon class="st0" points="288.4,13.6 284.3,9.5 282.2,11.6 286.3,15.7 "/>
<polygon class="st0" points="295.6,20.8 290.5,15.7 288.4,17.7 293.5,22.9 "/>
<polygon class="st0" points="288.4,1.3 287.2,0.2 283.1,0.2 286.3,3.4 "/>
<polygon class="st0" points="301.8,14.7 296.6,9.5 294.6,11.6 299.7,16.7 "/>
<polygon class="st0" points="294.6,7.5 290.5,3.4 288.4,5.4 292.5,9.5 "/>
<polygon class="st0" points="300.7,1.3 299.5,0.2 295.4,0.2 298.7,3.4 "/>
<polygon class="st0" points="307.9,8.5 302.8,3.4 300.7,5.4 305.9,10.6 "/>
<polygon class="st0" points="298.7,3.4 294.6,7.5 292.5,9.5 288.4,13.6 286.3,15.7 282.2,19.8 280.2,21.8 276.1,25.9 275,27 
	277.1,29 278.1,28 282.2,23.9 284.3,21.8 288.4,17.7 290.5,15.7 294.6,11.6 296.6,9.5 300.7,5.4 302.8,3.4 306.1,0.2 301.9,0.2 
	300.7,1.3 "/>
<polygon class="st0" points="286.3,3.4 282.2,7.5 280.2,9.5 276.1,13.6 274,15.7 269.9,19.8 268.9,20.8 270.9,22.9 271.9,21.8 
	276.1,17.7 278.1,15.7 282.2,11.6 284.3,9.5 288.4,5.4 290.5,3.4 293.7,0.2 289.6,0.2 288.4,1.3 "/>
</svg>
