<?xml version="1.0" encoding="utf-8"?>
<!-- Generator: Adobe Illustrator 21.1.0, SVG Export Plug-In . SVG Version: 6.00 Build 0)  -->
<svg version="1.1" id="Слой_1" xmlns="http://www.w3.org/2000/svg" xmlns:xlink="http://www.w3.org/1999/xlink" x="0px" y="0px"
	 viewBox="0 0 396.2 324" style="enable-background:new 0 0 396.2 324;" xml:space="preserve">
<style type="text/css">
	.st0{opacity:0.2;}
	.st1{fill:#998675;}
</style>
<title>7</title>
<g class="st0">
	<path class="st1" d="M0,310.3V324h42.9c-14.7-2.3-28.6-6.7-41.1-12.8L0,310.3z"/>
	<path class="st1" d="M180.6,293.4c11.7-13.8,18.5-30,18.6-47.2c0.3-50.5-57.2-91.3-128.2-90.9c-26.2,0.1-50.6,5.9-71,15.6v13.8
		c19.7-10.4,44.3-16.7,70.9-16.8c64.1-0.3,116,34.8,115.7,78.4c-0.1,15.5-6.8,30.1-18.3,42.4c-11.7-3.7-24.8-5.8-38.5-5.7
		c-38.5,0.2-71.8,17.1-86.5,41h15.3c14.1-16.8,40.8-28.2,71.2-28.4c9.7-0.1,18.9,1,27.5,3.1c-16,12.4-37.6,21.5-62,25.3h43.6
		c12.4-5.6,23.3-12.7,32.4-20.9c12.6,5,23.1,12.2,30.1,20.9h15.1C209.1,311.4,196.5,300.7,180.6,293.4z"/>
	<path class="st1" d="M318.4,283c-2.5-1.6-5.4-2.5-8.3-2.5c-7.1,0-13.4,5.2-17,13c-4.1-3.4-8.9-5.4-14-5.4
		c-14.4,0.1-26.3,15.9-27.4,35.9h3.8c1-17.9,11.2-32.1,23.6-32.2c4.6,0,8.9,1.9,12.5,5.3c-1.1,3.5-1.8,7.4-1.8,11.5
		c0,5.7,1.2,11,3.3,15.4h4.1c-2.3-4.2-3.7-9.6-3.7-15.4c0-2.9,0.4-5.7,1-8.2c4.5,5.9,7.5,14.3,7.8,23.7h3.7
		c-0.4-11.3-4.3-21.3-10.2-27.8c2.9-7.1,8.2-12,14.1-12c2.6,0,5.1,0.9,7.1,2.4l1,0.7l7.3-4.2l-2.6,10.2l0.3,0.6
		c2.1,4.5,3.2,9.4,3.1,14.3c0,5.9-1.5,11.4-3.9,15.6h4.2c2.2-4.5,3.5-9.9,3.5-15.6c0.1-5.3-1-10.5-3.2-15.4l4.4-17.3L318.4,283z"/>
	<path class="st1" d="M396,46.7v-8.9c-8,3.7-15.8,9.1-22.8,16.1C367,60.1,362.1,67,358.4,74c-10.6-0.3-20.1-3.8-27.1-10.7
		C317,49,317.3,23.9,330,0.1h-8.9C308.8,25.9,309.5,53,325.6,69c7.7,7.7,18,11.9,29.4,12.8c-6.4,17.2-4.9,34.4,5.8,45
		c4.5,4.4,10.2,7.5,16.4,8.7l8.2,30.1l10.7-17.6v-15.3l-7.8,12.8l-4.6-17.1l-2.5-0.4c-5.5-0.7-10.5-3.1-14.5-6.9
		c-9-9-9.6-24.2-3-39.3c10.5-0.6,21.6-3.7,32.5-9.1v-8.9c-9.4,5.2-19.1,8.5-28.2,9.7c3-4.8,6.7-9.6,11-13.9
		C384.1,54.2,390,49.9,396,46.7z"/>
	<path class="st1" d="M120.6,65.6l14.8,4c0.6,3.3,2.2,6.3,4.5,8.6c8.5,8.5,25.3,5.6,37.3-6.5c12.1-12.1,15-28.8,6.5-37.3
		c-2.9-2.9-6.8-4.5-11.1-4.8c2.4-6.5,1.9-13-2.2-17c-1.7-1.7-3.8-2.8-6.2-3.3L161.7,0h-1.8l-6.1,10.4c-4,1.5-7.7,3.9-10.7,6.9
		c-8.8,8.8-10.9,21.1-4.7,27.4c0.9,0.9,1.9,1.6,3,2.1c-1.9,2.8-3.5,5.7-4.6,8.9L120.6,65.6z M140.6,42.5c-5.1-5.1-3-15.5,4.6-23.1
		c2.8-2.9,6.2-5.1,10-6.4l0.5-0.2l4.4-7.3l1.8,6.5l1,0.1c2.1,0.3,4,1.2,5.5,2.6c3.4,3.4,3.6,9.1,1.1,14.8
		c-7.6,0.4-16.1,4.3-23.1,11.3c-1.1,1.1-2.1,2.2-3.1,3.4C142.3,43.9,141.4,43.3,140.6,42.5z M167.9,32.7c-1.1,1.8-2.5,3.6-4.1,5.2
		c-5.4,5.3-12,8-17.3,7.3c0.7-0.8,1.3-1.5,2.1-2.2C154.4,37.1,161.5,33.6,167.9,32.7z M139.5,57.2c1.2-3.3,2.8-6.4,4.9-9.3
		c6.5,1.5,15-1.3,21.5-7.9c2.3-2.3,4.2-4.9,5.5-7.5c4,0.1,7.6,1.4,10.2,4c7.3,7.3,4.4,22.2-6.5,33.1s-25.8,13.8-33.1,6.5
		c-2.1-2.2-3.5-5-3.8-8l-0.1-1l-10-2.7l11.1-6.8L139.5,57.2z"/>
</g>
</svg>
