<?xml version="1.0" encoding="utf-8"?>
<!-- Generator: Adobe Illustrator 21.1.0, SVG Export Plug-In . SVG Version: 6.00 Build 0)  -->
<svg version="1.1" id="Слой_1" xmlns="http://www.w3.org/2000/svg" xmlns:xlink="http://www.w3.org/1999/xlink" x="0px" y="0px"
	 viewBox="0 0 558.2 324.3" style="enable-background:new 0 0 558.2 324.3;" xml:space="preserve">
<style type="text/css">
	.st0{opacity:0.2;fill:#998675;}
</style>
<title>5</title>
<path class="st0" d="M110.2,162.6c65.4-0.4,118.5,35.6,118.2,80.1c-0.1,15.9-6.9,30.8-18.7,43.3c4.4,1.4,8.5,3,12.5,4.8
	c12-14.1,18.9-30.6,19-48.2c0.3-51.6-58.5-93.3-131-92.9C64.4,150,23.8,167.1,0.1,192.7v20.7C18,183.9,60.7,162.9,110.2,162.6z"/>
<path class="st0" d="M96,324.1h12.4c-4.1,0-8.1-0.1-12.1-0.4C96.2,323.9,96.1,324,96,324.1z"/>
<path class="st0" d="M3.3,279.7c-1.1-1.6-2.2-3.1-3.2-4.7v17.9l5.6-9.8L3.3,279.7z"/>
<path class="st0" d="M39.7,309l-2.1-1l-37.5,9.4v6.8h25.5l10.4-2.6c1.9,0.9,3.9,1.8,5.9,2.6h39c0.4-0.7,0.8-1.3,1.2-2
	C66.9,319.8,52.5,315.3,39.7,309z"/>
<path class="st0" d="M198.6,296.2c-21.7,16.9-53.4,27.6-88.7,27.9h65c14.6-6.1,27.5-14.1,37.9-23.5
	C208.3,298.9,203.6,297.4,198.6,296.2z"/>
<path class="st0" d="M222.3,290.9c-4-1.8-8.2-3.4-12.5-4.8c-12-3.8-25.3-5.9-39.3-5.8c-39.4,0.2-73.4,17.5-88.4,41.9
	c-0.4,0.7-0.8,1.3-1.2,2H96c0.1-0.1,0.2-0.3,0.3-0.4c14-18,42-30.5,74.1-30.7c9.9-0.1,19.4,1.1,28.2,3.2c5,1.2,9.7,2.7,14.2,4.5
	c13.9,5.5,25.2,13.7,32.3,23.5h15C252.8,310.3,239.4,298.7,222.3,290.9z"/>
<path class="st0" d="M338.8,297.9c4.9,6.4,8,15.8,8,26.2h3.8c0-12.4-4.1-23.4-10.5-30.5C339.6,295,339.1,296.4,338.8,297.9z"/>
<path class="st0" d="M322.9,289.2c4.7,0,9.1,2,12.8,5.4c0.4-1.3,0.9-2.6,1.5-3.7c-4.2-3.5-9.1-5.5-14.3-5.5
	c-15.2,0.1-27.7,17.4-28.1,38.8h3.8C299,304.9,309.8,289.3,322.9,289.2z"/>
<path class="st0" d="M371.7,290.4l4.5-17.7l-13,7.5c-2.7-1.7-5.6-2.5-8.5-2.5c-7.2,0-13.6,5.3-17.3,13.3c-0.6,1.2-1.1,2.4-1.5,3.7
	c-1.2,3.6-1.8,7.5-1.9,11.7c0,6.7,1.6,12.9,4.4,17.8h4.5c-3.1-4.5-5.1-10.8-5-17.8c0-2.9,0.4-5.8,1-8.4c0.4-1.5,0.8-2.9,1.4-4.2
	c3-7.3,8.3-12.2,14.4-12.2c2.5,0,5,0.8,7.3,2.5l1,0.7l7.4-4.2l-2.6,10.5l0.3,0.6c2.1,4.3,3.2,9.3,3.2,14.6c0,7.1-2.1,13.5-5.3,18
	h4.5c2.9-4.9,4.7-11.2,4.7-18C375,300.5,373.9,295.1,371.7,290.4z"/>
<path class="st0" d="M466.1,38.1c-16,16-35.2,25.7-52.6,28c-1.7,2.8-3.2,5.6-4.4,8.5c20.7-1.2,43.8-11.8,62.8-30.7
	c3-3,5.9-6.2,8.6-9.5c-2.6-1.2-5.5-2-8.6-2.4C470,34.1,468.1,36.1,466.1,38.1z"/>
<path class="st0" d="M370.4,61.5c7.9,7.9,18.4,12.1,30,13.1c1-2.6,2.2-5.3,3.5-7.9c-10.9-0.3-20.6-3.9-27.7-11
	c-12.8-12.8-14.1-34.1-5.6-55.5H362C353.6,23.6,355.9,47,370.4,61.5z"/>
<path class="st0" d="M485.4,27.7c5.3-7.7,9.6-15.8,12.6-24.1l5.6-3.4h-13c-3,8.5-7.4,16.8-13,24.6C480.3,25.5,482.9,26.4,485.4,27.7
	z"/>
<path class="st0" d="M419,46.1c-6.3,6.3-11.4,13.3-15.1,20.5c-1.3,2.6-2.5,5.2-3.5,7.9c-6.5,17.5-5,35.1,5.9,46
	c4.4,4.4,10.2,7.5,16.7,8.9l8.3,30.8l20.4-33.5c10.4-3.8,20.4-10.3,29-18.9c24-24,29.7-57.4,12.6-74.4c-2.4-2.4-5.1-4.3-8-5.8
	c-2.5-1.3-5.1-2.2-7.9-2.9C459.8,20.6,436.8,28.3,419,46.1z M487.6,39.3c13.9,13.9,8.2,42-12.6,62.8c-8.1,8.1-17.5,14.1-27.2,17.4
	l-1.4,0.5l-12,19.8l-4.7-17.5l-2.6-0.4c-6-0.9-11-3.3-14.8-7.1c-9.2-9.2-9.8-24.7-3.1-40.1c1.2-2.8,2.7-5.7,4.4-8.5
	c3-4.9,6.8-9.8,11.3-14.2c14.5-14.5,32.7-21.7,47-19.9c3.1,0.4,6,1.2,8.6,2.4C483.1,35.5,485.5,37.2,487.6,39.3z"/>
<path class="st0" d="M223.4,28.4c7.5,7.5,4.5,22.7-6.6,33.8c-11.1,11.1-26.3,14.1-33.8,6.6c-2.1-2.1-3.4-4.8-3.9-8.1l-0.1-1
	L168.7,57l11.4-6.9l0.2-0.5c1.1-3.3,2.8-6.5,5-9.5c-1-0.2-2-0.6-3-1.1c-2,2.9-3.6,6-4.7,9.1L161,58.1l15.1,4.1
	c0.7,3.5,2.3,6.5,4.6,8.8c8.7,8.7,25.8,5.7,38.2-6.6c12.3-12.3,15.3-29.5,6.6-38.2c-3-3-6.9-4.6-11.3-4.9c-0.4,1-0.8,2-1.3,3
	C217,24.4,220.7,25.7,223.4,28.4z"/>
<path class="st0" d="M184.2,36.4c1,0.5,2.1,0.8,3.2,0.9c0.7-0.8,1.4-1.6,2.1-2.3c6-6,13.2-9.7,19.8-10.5c0.6-1.1,1.2-2.1,1.7-3.2
	c-7.8,0.4-16.5,4.4-23.6,11.6C186.3,34,185.2,35.2,184.2,36.4z"/>
<path class="st0" d="M184,8.8c-9,9-11.2,21.6-4.8,28c0.9,0.9,1.9,1.6,3,2.2c0.9,0.5,1.9,0.8,3,1.1c6.6,1.6,15.3-1.3,22-8
	c2.4-2.4,4.3-5,5.7-7.7c0.5-1,0.9-2,1.3-3c2.5-6.6,1.9-13.2-2.2-17.3c-1.7-1.7-3.8-2.8-6.3-3.4l-0.1-0.5h-3.2l0.9,3.2l1,0.1
	c2.3,0.3,4.1,1.2,5.6,2.7c3.5,3.5,3.7,9.3,1.2,15.1c-0.5,1.1-1,2.1-1.7,3.2c-1.1,1.9-2.5,3.7-4.2,5.4c-5.5,5.5-12.3,8.1-17.7,7.5
	c-1.2-0.1-2.2-0.4-3.2-0.9c-1-0.5-1.9-1.1-2.7-1.9c-5.2-5.2-3.1-15.8,4.7-23.6c3-3,6.6-5.3,10.2-6.5l0.5-0.2l2.5-4h-3.6l-0.9,1.5
	C191,3.1,187.3,5.5,184,8.8z"/>
</svg>
