<svg id="Слой_1" data-name="Слой 1" xmlns="http://www.w3.org/2000/svg" viewBox="0 0 75.92 63.62"><defs><style>.cls-1{fill:none;stroke:#000;stroke-miterlimit:10;stroke-width:3px;}</style></defs><title>3</title><path class="cls-1" d="M694,386.47l-6.33-11.15a15.56,15.56,0,0,0,3.18-9.24c0-11.26-13.1-20.39-29.25-20.39s-29.25,9.13-29.25,20.39,13.1,20.39,29.25,20.39a38.31,38.31,0,0,0,17-3.79Z" transform="translate(-621.1 -344.2)"/><path class="cls-1" d="M624.13,405.52l4.54-8a11.16,11.16,0,0,1-2.28-6.63c0-8.08,9.39-14.62,21-14.62s21,6.55,21,14.62-9.39,14.62-21,14.62a27.48,27.48,0,0,1-12.18-2.72Z" transform="translate(-621.1 -344.2)"/></svg>