<svg id="Слой_1" data-name="Слой 1" xmlns="http://www.w3.org/2000/svg" xmlns:xlink="http://www.w3.org/1999/xlink" viewBox="0 0 571.83 481.35"><defs><style>.cls-1{fill:none;}.cls-2{opacity:0.2;}.cls-3{clip-path:url(#clip-path);}.cls-4{fill:#998675;}</style><clipPath id="clip-path" transform="translate(-373.65 -139.4)"><rect class="cls-1" x="452" y="200" width="396" height="324"/></clipPath></defs><title>7</title><g class="cls-2"><g class="cls-3"><path class="cls-4" d="M405.71,486.62a70.27,70.27,0,0,1-12-38.94C394,397.16,452,355.74,523,355.35s128.51,40.4,128.23,90.92S593,538.22,522,538.61c-25.77.14-50.52-5.09-71.73-15.13l-76.61,19.25Zm.6-39c-.07,12.22,3.94,24,11.9,34.9l2.38,3.26-21.51,37.64,52.69-13.24,2.06,1c19.94,9.85,43.54,15,68.22,14.85,64.06-.35,116.37-36.11,116.61-79.71S587,367.56,522.92,367.91,406.55,404,406.31,447.62Z" transform="translate(-373.65 -139.4)"/><path class="cls-4" d="M632.88,606.73A122.84,122.84,0,0,1,581.12,618c-51.89.29-93.94-29.76-93.74-67s42.59-67.73,94.48-68,93.95,29.76,93.74,67A52.87,52.87,0,0,1,667,578.11l24,42.63Zm33-5-13.68-24.25,2.41-3.29c5.57-7.6,8.42-15.7,8.46-24.08.17-30.3-36.29-54.74-81.25-54.49S500.1,520.7,499.94,551s36.28,54.74,81.25,54.49c17.44-.1,34.13-3.9,48.26-11l2.07-1Z" transform="translate(-373.65 -139.4)"/><path class="cls-4" d="M742.35,561a21.29,21.29,0,0,1-11.62,3.68c-15,.08-27.17-17-27.05-38.15s12.44-38.37,27.47-38.45,27.17,17,27.05,38.15a50.1,50.1,0,0,1-4.74,21.39l5.48,22.73Zm-11.6-.05a17.59,17.59,0,0,0,10.42-3.66l1-.72,11.13,6.28-3.77-15.63.31-.62a46.09,46.09,0,0,0,4.64-20.35c.1-19.06-10.36-34.51-23.34-34.44s-23.61,15.63-23.71,34.69S717.78,561,730.75,561Z" transform="translate(-373.65 -139.4)"/><path class="cls-4" d="M778.83,493a36.06,36.06,0,0,1,3.2,15.36c-.08,15.44-9.16,28-20.24,28.11s-20-12.45-19.93-27.89S751,480.56,762.1,480.5a15.45,15.45,0,0,1,8.33,2.46l12.76-7.29Zm-1.38-9.79-7.26,4.15-1-.71a11.87,11.87,0,0,0-7.14-2.44c-9,0-16.41,11-16.48,24.35s7.2,24.22,16.21,24.17,16.41-11,16.48-24.35a32.08,32.08,0,0,0-3.12-14.32l-.3-.61Z" transform="translate(-373.65 -139.4)"/><path class="cls-4" d="M945.48,186l-43.06,26.2a108.08,108.08,0,0,1-25.56,39.46c-32.13,32.13-76.68,39.87-99.3,17.25s-14.88-67.17,17.25-99.3,76.68-39.87,99.3-17.25a44.55,44.55,0,0,1,12,23Zm-145-10.77c-29,29-36.71,68.47-17.19,88s59,11.81,88-17.19c11.17-11.17,19.51-24.23,24.1-37.74l.48-1.39,29.62-18L899,181.73l-.38-2.55c-1.28-8.55-4.71-15.66-10.18-21.13C868.91,138.53,829.43,146.24,800.43,175.24Z" transform="translate(-373.65 -139.4)"/><path class="cls-4" d="M837.31,365.61l-8.16-30.14a32.92,32.92,0,0,1-16.37-8.74c-16.67-16.67-11.11-49.34,12.38-72.83s56.16-29,72.83-12.38,11.11,49.33-12.38,72.83a78.85,78.85,0,0,1-28.35,18.46ZM852,326.22l1.39-.48a70.14,70.14,0,0,0,26.63-17c20.36-20.36,25.88-48,12.32-61.52s-41.16-8-61.52,12.32-25.88,48-12.32,61.52A25.33,25.33,0,0,0,833,328l2.55.38,4.64,17.14Z" transform="translate(-373.65 -139.4)"/><path class="cls-4" d="M572.64,265.6l16.2-9.85a40.65,40.65,0,0,1,9.61-14.84c12.09-12.09,28.84-15,37.35-6.49s5.6,25.26-6.49,37.35-28.84,15-37.35,6.49a16.76,16.76,0,0,1-4.5-8.64Zm54.56,4.05c10.91-10.91,13.81-25.75,6.47-33.1s-22.19-4.44-33.1,6.46a37.39,37.39,0,0,0-9.07,14.19l-.18.52-11.14,6.78,9.95,2.69.14,1a13.85,13.85,0,0,0,3.83,7.95C601.44,283.45,616.29,280.55,627.2,269.65Z" transform="translate(-373.65 -139.4)"/><path class="cls-4" d="M613.33,198l3.07,11.34a12.38,12.38,0,0,1,6.16,3.29c6.27,6.27,4.18,18.56-4.66,27.39S596.77,251,590.5,244.71s-4.18-18.56,4.66-27.39a29.66,29.66,0,0,1,10.66-6.94Zm-5.51,14.82-.52.18a26.38,26.38,0,0,0-10,6.4c-7.66,7.66-9.74,18-4.63,23.14s15.48,3,23.14-4.63,9.74-18,4.63-23.14a9.53,9.53,0,0,0-5.47-2.63l-1-.14-1.75-6.45Z" transform="translate(-373.65 -139.4)"/></g></g></svg>