<svg id="Слой_1" data-name="Слой 1" xmlns="http://www.w3.org/2000/svg" xmlns:xlink="http://www.w3.org/1999/xlink" viewBox="0 0 210.08 155"><defs><style>.cls-1{fill:url(#Безымянный_градиент_698);}.cls-2{fill:url(#Безымянный_градиент_698-2);}.cls-3{fill:url(#Безымянный_градиент_698-3);}.cls-4{fill:url(#Безымянный_градиент_698-4);}.cls-5{fill:url(#Безымянный_градиент_698-5);}.cls-6{fill:url(#Безымянный_градиент_698-6);}.cls-7{fill:url(#Безымянный_градиент_698-7);}.cls-8{fill:url(#Безымянный_градиент_698-8);}.cls-9{fill:url(#Безымянный_градиент_698-9);}.cls-10{fill:url(#Безымянный_градиент_698-10);}.cls-11{fill:url(#Безымянный_градиент_698-11);}.cls-12{fill:url(#Безымянный_градиент_698-12);}.cls-13{fill:url(#Безымянный_градиент_698-13);}.cls-14{fill:url(#Безымянный_градиент_698-14);}.cls-15{fill:url(#Безымянный_градиент_698-15);}.cls-16{fill:url(#Безымянный_градиент_698-16);}.cls-17{fill:url(#Безымянный_градиент_698-17);}.cls-18{fill:url(#Безымянный_градиент_698-18);}.cls-19{fill:url(#Безымянный_градиент_698-19);}.cls-20{fill:url(#Безымянный_градиент_698-20);}.cls-21{fill:url(#Безымянный_градиент_698-21);}.cls-22{fill:url(#Безымянный_градиент_698-22);}.cls-23{fill:url(#Безымянный_градиент_698-23);}.cls-24{fill:url(#Безымянный_градиент_698-24);}.cls-25{fill:url(#Безымянный_градиент_698-25);}.cls-26{fill:url(#Безымянный_градиент_698-26);}.cls-27{fill:url(#Безымянный_градиент_698-27);}.cls-28{fill:url(#Безымянный_градиент_698-28);}.cls-29{fill:url(#Безымянный_градиент_698-29);}.cls-30{fill:url(#Безымянный_градиент_698-30);}.cls-31{fill:url(#Безымянный_градиент_698-31);}.cls-32{fill:url(#Безымянный_градиент_698-32);}.cls-33{fill:url(#Безымянный_градиент_698-33);}.cls-34{fill:url(#Безымянный_градиент_698-34);}.cls-35{fill:url(#Безымянный_градиент_698-35);}.cls-36{fill:url(#Безымянный_градиент_698-36);}.cls-37{fill:url(#Безымянный_градиент_698-37);}.cls-38{fill:url(#Безымянный_градиент_698-38);}.cls-39{fill:url(#Безымянный_градиент_698-39);}.cls-40{fill:url(#Безымянный_градиент_698-40);}.cls-41{fill:url(#Безымянный_градиент_698-41);}.cls-42{fill:url(#Безымянный_градиент_698-42);}.cls-43{fill:url(#Безымянный_градиент_698-43);}.cls-44{fill:url(#Безымянный_градиент_698-44);}.cls-45{fill:url(#Безымянный_градиент_698-45);}.cls-46{fill:url(#Безымянный_градиент_698-46);}.cls-47{fill:url(#Безымянный_градиент_698-47);}.cls-48{fill:url(#Безымянный_градиент_698-48);}.cls-49{fill:url(#Безымянный_градиент_698-49);}.cls-50{fill:url(#Безымянный_градиент_698-50);}.cls-51{fill:url(#Безымянный_градиент_698-51);}.cls-52{fill:url(#Безымянный_градиент_698-52);}.cls-53{fill:url(#Безымянный_градиент_698-53);}.cls-54{fill:url(#Безымянный_градиент_698-54);}.cls-55{fill:url(#Безымянный_градиент_698-55);}.cls-56{fill:url(#Безымянный_градиент_698-56);}.cls-57{fill:url(#Безымянный_градиент_698-57);}.cls-58{fill:url(#Безымянный_градиент_698-58);}.cls-59{fill:url(#Безымянный_градиент_698-59);}.cls-60{fill:url(#Безымянный_градиент_698-60);}.cls-61{fill:url(#Безымянный_градиент_698-61);}.cls-62{fill:url(#Безымянный_градиент_698-62);}.cls-63{fill:url(#Безымянный_градиент_698-63);}.cls-64{fill:url(#Безымянный_градиент_698-64);}.cls-65{fill:url(#Безымянный_градиент_698-65);}.cls-66{fill:url(#Безымянный_градиент_698-66);}.cls-67{fill:url(#Безымянный_градиент_698-67);}.cls-68{fill:url(#Безымянный_градиент_698-68);}.cls-69{fill:url(#Безымянный_градиент_698-69);}.cls-70{fill:url(#Безымянный_градиент_698-70);}.cls-71{fill:url(#Безымянный_градиент_698-71);}.cls-72{fill:url(#Безымянный_градиент_698-72);}.cls-73{fill:url(#Безымянный_градиент_698-73);}.cls-74{fill:url(#Безымянный_градиент_698-74);}.cls-75{fill:url(#Безымянный_градиент_698-75);}.cls-76{fill:url(#Безымянный_градиент_698-76);}.cls-77{fill:url(#Безымянный_градиент_698-77);}.cls-78{fill:url(#Безымянный_градиент_698-78);}.cls-79{fill:url(#Безымянный_градиент_698-79);}.cls-80{fill:url(#Безымянный_градиент_698-80);}.cls-81{fill:url(#Безымянный_градиент_698-81);}.cls-82{fill:url(#Безымянный_градиент_698-82);}.cls-83{fill:url(#Безымянный_градиент_698-83);}.cls-84{fill:url(#Безымянный_градиент_698-84);}.cls-85{fill:url(#Безымянный_градиент_698-85);}.cls-86{fill:url(#Безымянный_градиент_698-86);}.cls-87{fill:url(#Безымянный_градиент_698-87);}</style><linearGradient id="Безымянный_градиент_698" x1="944.43" y1="586.62" x2="957.12" y2="586.62" gradientUnits="userSpaceOnUse"><stop offset="0"/><stop offset="0.08" stop-color="#061a19"/><stop offset="0.24" stop-color="#155c5b"/><stop offset="0.46" stop-color="#2bbcb9"/><stop offset="1"/></linearGradient><linearGradient id="Безымянный_градиент_698-2" x1="102.25" y1="102.31" x2="102.53" y2="102.31" xlink:href="#Безымянный_градиент_698"/><linearGradient id="Безымянный_градиент_698-3" x1="886.29" y1="540.07" x2="906.09" y2="540.07" xlink:href="#Безымянный_градиент_698"/><linearGradient id="Безымянный_градиент_698-4" x1="920.09" y1="569.31" x2="934.93" y2="569.31" xlink:href="#Безымянный_градиент_698"/><linearGradient id="Безымянный_градиент_698-5" x1="920.09" y1="513.15" x2="934.93" y2="513.15" xlink:href="#Безымянный_градиент_698"/><linearGradient id="Безымянный_градиент_698-6" x1="65.49" y1="80.39" x2="80.34" y2="80.39" xlink:href="#Безымянный_градиент_698"/><linearGradient id="Безымянный_градиент_698-7" x1="65.49" y1="27.75" x2="80.34" y2="27.75" xlink:href="#Безымянный_градиент_698"/><linearGradient id="Безымянный_градиент_698-8" x1="125.22" y1="25.84" x2="132.75" y2="25.84" xlink:href="#Безымянный_градиент_698"/><linearGradient id="Безымянный_градиент_698-9" x1="137.72" y1="30.47" x2="152.26" y2="30.47" xlink:href="#Безымянный_градиент_698"/><linearGradient id="Безымянный_градиент_698-10" x1="112.04" y1="123.09" x2="114.05" y2="123.09" xlink:href="#Безымянный_градиент_698"/><linearGradient id="Безымянный_градиент_698-11" x1="139.58" y1="42.44" x2="142.47" y2="42.44" xlink:href="#Безымянный_градиент_698"/><linearGradient id="Безымянный_градиент_698-12" x1="966.63" y1="534.93" x2="1006.85" y2="534.93" xlink:href="#Безымянный_градиент_698"/><linearGradient id="Безымянный_градиент_698-13" x1="159.51" y1="139.41" x2="160.65" y2="139.41" xlink:href="#Безымянный_градиент_698"/><linearGradient id="Безымянный_градиент_698-14" x1="156.33" y1="139.53" x2="158.5" y2="139.53" xlink:href="#Безымянный_градиент_698"/><linearGradient id="Безымянный_градиент_698-15" x1="164.94" y1="135.18" x2="171.29" y2="135.18" xlink:href="#Безымянный_градиент_698"/><linearGradient id="Безымянный_градиент_698-16" x1="148.82" y1="139.89" x2="151.34" y2="139.89" xlink:href="#Безымянный_градиент_698"/><linearGradient id="Безымянный_градиент_698-17" x1="9.59" y1="23.77" x2="26.45" y2="23.77" xlink:href="#Безымянный_градиент_698"/><linearGradient id="Безымянный_градиент_698-18" x1="1.43" y1="126.38" x2="9.29" y2="126.38" xlink:href="#Безымянный_градиент_698"/><linearGradient id="Безымянный_градиент_698-19" x1="144.78" y1="2.98" x2="146.11" y2="2.98" xlink:href="#Безымянный_градиент_698"/><linearGradient id="Безымянный_градиент_698-20" x1="97.18" y1="2.98" x2="110.48" y2="2.98" xlink:href="#Безымянный_градиент_698"/><linearGradient id="Безымянный_градиент_698-21" x1="164.94" y1="46.1" x2="171.29" y2="46.1" xlink:href="#Безымянный_градиент_698"/><linearGradient id="Безымянный_градиент_698-22" x1="164.94" y1="16.05" x2="171.29" y2="16.05" xlink:href="#Безымянный_градиент_698"/><linearGradient id="Безымянный_градиент_698-23" x1="164.94" y1="27.97" x2="171.29" y2="27.97" xlink:href="#Безымянный_градиент_698"/><linearGradient id="Безымянный_градиент_698-24" x1="133.22" y1="2.98" x2="135.8" y2="2.98" xlink:href="#Безымянный_градиент_698"/><linearGradient id="Безымянный_градиент_698-25" x1="43.6" y1="2.98" x2="49.22" y2="2.98" xlink:href="#Безымянный_градиент_698"/><linearGradient id="Безымянный_градиент_698-26" x1="26.9" y1="2.98" x2="41.77" y2="2.98" xlink:href="#Безымянный_градиент_698"/><linearGradient id="Безымянный_градиент_698-27" x1="57.23" y1="2.98" x2="58.73" y2="2.98" xlink:href="#Безымянный_градиент_698"/><linearGradient id="Безымянный_градиент_698-28" x1="93.38" y1="2.98" x2="94.72" y2="2.98" xlink:href="#Безымянный_градиент_698"/><linearGradient id="Безымянный_градиент_698-29" x1="77.42" y1="2.98" x2="84.95" y2="2.98" xlink:href="#Безымянный_градиент_698"/><linearGradient id="Безымянный_градиент_698-30" x1="61.26" y1="2.98" x2="65.96" y2="2.98" xlink:href="#Безымянный_градиент_698"/><linearGradient id="Безымянный_градиент_698-31" x1="149.24" y1="2.98" x2="153.56" y2="2.98" xlink:href="#Безымянный_градиент_698"/><linearGradient id="Безымянный_градиент_698-32" x1="7.91" y1="79.93" x2="11.88" y2="79.93" xlink:href="#Безымянный_градиент_698"/><linearGradient id="Безымянный_градиент_698-33" x1="164.94" y1="63.15" x2="171.29" y2="63.15" xlink:href="#Безымянный_градиент_698"/><linearGradient id="Безымянный_градиент_698-34" x1="9.03" y1="58.35" x2="14.38" y2="58.35" xlink:href="#Безымянный_градиент_698"/><linearGradient id="Безымянный_градиент_698-35" x1="112.01" y1="2.98" x2="114.2" y2="2.98" xlink:href="#Безымянный_градиент_698"/><linearGradient id="Безымянный_градиент_698-36" x1="114.69" y1="2.98" x2="118.24" y2="2.98" xlink:href="#Безымянный_градиент_698"/><linearGradient id="Безымянный_градиент_698-37" x1="27.93" y1="148.53" x2="28.36" y2="148.53" xlink:href="#Безымянный_градиент_698"/><linearGradient id="Безымянный_градиент_698-38" x1="7.07" y1="93.25" x2="10.48" y2="93.25" xlink:href="#Безымянный_градиент_698"/><linearGradient id="Безымянный_градиент_698-39" x1="164.94" y1="97.3" x2="171.29" y2="97.3" xlink:href="#Безымянный_градиент_698"/><linearGradient id="Безымянный_градиент_698-40" x1="164.94" y1="75.45" x2="171.29" y2="75.45" xlink:href="#Безымянный_градиент_698"/><linearGradient id="Безымянный_градиент_698-41" x1="1019.54" y1="583.84" x2="1025.88" y2="583.84" xlink:href="#Безымянный_градиент_698"/><linearGradient id="Безымянный_градиент_698-42" x1="120.28" y1="141.26" x2="123.71" y2="141.26" xlink:href="#Безымянный_градиент_698"/><linearGradient id="Безымянный_градиент_698-43" x1="55.92" y1="144.44" x2="63.09" y2="144.44" xlink:href="#Безымянный_градиент_698"/><linearGradient id="Безымянный_градиент_698-44" x1="34.04" y1="147.02" x2="49.09" y2="147.02" xlink:href="#Безымянный_градиент_698"/><linearGradient id="Безымянный_градиент_698-45" x1="164.94" y1="105.38" x2="171.29" y2="105.38" xlink:href="#Безымянный_градиент_698"/><linearGradient id="Безымянный_градиент_698-46" x1="62.8" y1="143.88" x2="65" y2="143.88" xlink:href="#Безымянный_градиент_698"/><linearGradient id="Безымянный_градиент_698-47" x1="73.43" y1="142.48" x2="76.22" y2="142.48" xlink:href="#Безымянный_градиент_698"/><linearGradient id="Безымянный_градиент_698-48" x1="114.95" y1="141.46" x2="120.43" y2="141.46" xlink:href="#Безымянный_градиент_698"/><linearGradient id="Безымянный_градиент_698-49" x1="76.54" y1="142.07" x2="79.11" y2="142.07" xlink:href="#Безымянный_градиент_698"/><linearGradient id="Безымянный_градиент_698-50" x1="139.4" y1="140.32" x2="142.98" y2="140.32" xlink:href="#Безымянный_градиент_698"/><linearGradient id="Безымянный_градиент_698-51" x1="133.09" y1="140.57" x2="138.64" y2="140.57" xlink:href="#Безымянный_градиент_698"/><linearGradient id="Безымянный_градиент_698-52" x1="126.75" y1="140.98" x2="129.33" y2="140.98" xlink:href="#Безымянный_градиент_698"/><linearGradient id="Безымянный_градиент_698-53" x1="145.6" y1="140" x2="149.71" y2="140" xlink:href="#Безымянный_градиент_698"/><linearGradient id="Безымянный_градиент_698-54" x1="18.96" y1="149.66" x2="19.99" y2="149.66" xlink:href="#Безымянный_градиент_698"/><linearGradient id="Безымянный_градиент_698-55" x1="9.51" y1="150.45" x2="17" y2="150.45" xlink:href="#Безымянный_градиент_698"/><linearGradient id="Безымянный_градиент_698-56" x1="96.97" y1="90.87" x2="97.65" y2="90.87" xlink:href="#Безымянный_градиент_698"/><linearGradient id="Безымянный_градиент_698-57" x1="100.62" y1="90.55" x2="101.32" y2="90.55" xlink:href="#Безымянный_градиент_698"/><linearGradient id="Безымянный_градиент_698-58" x1="181.81" y1="138.44" x2="183.26" y2="138.44" xlink:href="#Безымянный_градиент_698"/><linearGradient id="Безымянный_градиент_698-59" x1="1045.35" y1="588.91" x2="1048.31" y2="588.91" xlink:href="#Безымянный_градиент_698"/><linearGradient id="Безымянный_градиент_698-60" x1="197.93" y1="125.91" x2="199.13" y2="125.91" xlink:href="#Безымянный_градиент_698"/><linearGradient id="Безымянный_градиент_698-61" x1="195.86" y1="138.44" x2="198.83" y2="138.44" xlink:href="#Безымянный_градиент_698"/><linearGradient id="Безымянный_градиент_698-62" x1="194.22" y1="138.44" x2="194.92" y2="138.44" xlink:href="#Безымянный_градиент_698"/><linearGradient id="Безымянный_градиент_698-63" x1="1039.18" y1="596.96" x2="1044.5" y2="596.96" xlink:href="#Безымянный_градиент_698"/><linearGradient id="Безымянный_градиент_698-64" x1="195.08" y1="125.91" x2="195.78" y2="125.91" xlink:href="#Безымянный_градиент_698"/><linearGradient id="Безымянный_градиент_698-65" x1="199.73" y1="138.44" x2="200.93" y2="138.44" xlink:href="#Безымянный_градиент_698"/><linearGradient id="Безымянный_градиент_698-66" x1="1040.6" y1="577.27" x2="1057.29" y2="577.27" xlink:href="#Безымянный_градиент_698"/><linearGradient id="Безымянный_градиент_698-67" x1="1032" y1="577.45" x2="1033.54" y2="577.45" xlink:href="#Безымянный_градиент_698"/><linearGradient id="Безымянный_градиент_698-68" x1="1033.87" y1="576.85" x2="1036.31" y2="576.85" xlink:href="#Безымянный_градиент_698"/><linearGradient id="Безымянный_градиент_698-69" x1="192.68" y1="89.28" x2="193.88" y2="89.28" xlink:href="#Безымянный_градиент_698"/><linearGradient id="Безымянный_градиент_698-70" x1="1050.95" y1="559.05" x2="1056.12" y2="559.05" xlink:href="#Безымянный_градиент_698"/><linearGradient id="Безымянный_градиент_698-71" x1="1049.26" y1="566.08" x2="1050.45" y2="566.08" xlink:href="#Безымянный_градиент_698"/><linearGradient id="Безымянный_градиент_698-72" x1="1039.1" y1="554.84" x2="1044.69" y2="554.84" xlink:href="#Безымянный_градиент_698"/><linearGradient id="Безымянный_градиент_698-73" x1="1058.49" y1="566.78" x2="1061.75" y2="566.78" xlink:href="#Безымянный_градиент_698"/><linearGradient id="Безымянный_градиент_698-74" x1="191.11" y1="78.35" x2="192.31" y2="78.35" xlink:href="#Безымянный_градиент_698"/><linearGradient id="Безымянный_градиент_698-75" x1="184.5" y1="78.22" x2="188.26" y2="78.22" xlink:href="#Безымянный_градиент_698"/><linearGradient id="Безымянный_градиент_698-76" x1="1052.96" y1="534.91" x2="1054.5" y2="534.91" xlink:href="#Безымянный_градиент_698"/><linearGradient id="Безымянный_градиент_698-77" x1="189.32" y1="65.82" x2="190.52" y2="65.82" xlink:href="#Безымянный_градиент_698"/><linearGradient id="Безымянный_градиент_698-78" x1="191.46" y1="65.82" x2="195.66" y2="65.82" xlink:href="#Безымянный_градиент_698"/><linearGradient id="Безымянный_градиент_698-79" x1="1056.64" y1="511.59" x2="1059.97" y2="511.59" xlink:href="#Безымянный_градиент_698"/><linearGradient id="Безымянный_градиент_698-80" x1="185.39" y1="54.73" x2="188.82" y2="54.73" xlink:href="#Безымянный_градиент_698"/><linearGradient id="Безымянный_градиент_698-81" x1="190.05" y1="43.24" x2="192.34" y2="43.24" xlink:href="#Безымянный_градиент_698"/><linearGradient id="Безымянный_градиент_698-82" x1="200.39" y1="48.03" x2="201.17" y2="48.03" xlink:href="#Безымянный_градиент_698"/><linearGradient id="Безымянный_градиент_698-83" x1="185.76" y1="41.31" x2="187.05" y2="41.31" xlink:href="#Безымянный_градиент_698"/><linearGradient id="Безымянный_градиент_698-84" x1="1052.59" y1="491.63" x2="1057.49" y2="491.63" xlink:href="#Безымянный_градиент_698"/><linearGradient id="Безымянный_градиент_698-85" x1="1052.27" y1="485.12" x2="1054.69" y2="485.12" xlink:href="#Безымянный_градиент_698"/><linearGradient id="Безымянный_градиент_698-86" x1="1047.46" y1="485.65" x2="1051.95" y2="485.65" xlink:href="#Безымянный_градиент_698"/><linearGradient id="Безымянный_градиент_698-87" x1="1038.65" y1="491.41" x2="1039.81" y2="491.41" xlink:href="#Безымянный_градиент_698"/></defs><title>logo</title><polygon points="89.84 145.06 102.53 145.06 102.53 102.01 89.85 103.11 89.84 145.06"/><polygon points="65.5 80.21 46.47 81.08 46.47 19.21 31.7 19.21 31.7 127.4 46.47 126.75 46.47 95.38 65.5 94.23 65.5 125.86 80.33 125.19 80.33 19.21 65.5 19.21 65.5 80.21"/><polygon points="152.26 41.24 152.26 19.21 112.04 19.21 112.04 125.19 152.26 122.98 152.26 80.56 135.35 82 135.35 94.73 139.58 93.63 139.49 109.62 126.9 110.2 126.9 32.46 139.58 32.46 139.58 43.44 152.26 41.24"/><polygon points="13.83 0 0 155 80.33 145.06 80.33 138.44 7.4 148.38 19.02 5.97 164.94 5.97 164.94 136.23 112.04 138.44 112.04 145.06 171.29 141.75 171.29 0 13.83 0"/><polygon points="89.85 96.49 102.53 95.39 102.53 85.45 89.85 86.56 89.85 96.49"/><path d="M1057.29,598.13v6.62h-25.08v-6.62h8.92a7.78,7.78,0,0,1-2.51-5.76c0-4.23,2.9-6.77,7.49-6.77h11.18v6.62h-10c-2.15,0-3,1.2-3,2.73a3.82,3.82,0,0,0,1.61,3.18Z" transform="translate(-854.59 -463)"/><path d="M1033.79,581.07a3.8,3.8,0,1,1,3.65-3.78A3.7,3.7,0,0,1,1033.79,581.07Zm23.5-.49h-18.2V574h18.2Z" transform="translate(-854.59 -463)"/><path d="M1063.13,567.82h-5.52a13.25,13.25,0,0,0,1.76-6.81,10,10,0,0,0-.29-2.43,4,4,0,0,0-3.94-3h-.93a7.68,7.68,0,0,1,2.33,5.76,7.94,7.94,0,0,1-2.54,6.06,9.9,9.9,0,0,1-12.82,0,7.94,7.94,0,0,1-2.54-6.06,7.69,7.69,0,0,1,2.36-5.76h-1.9V549h15.65a9,9,0,0,1,7.56,3.7,13.22,13.22,0,0,1,2.36,7.63A15.13,15.13,0,0,1,1063.13,567.82Zm-13.58-12.24h-3.94a4.47,4.47,0,0,0-1.68,3.78,3.66,3.66,0,1,0,7.31,0A4.42,4.42,0,0,0,1049.56,555.59Z" transform="translate(-854.59 -463)"/><path d="M1050.27,544.66H1039.1V538h10c2.15,0,3-1.2,3-2.73a3.82,3.82,0,0,0-1.61-3.18H1039.1v-6.62h18.2v6.62h-2a7.78,7.78,0,0,1,2.51,5.76C1057.76,542.12,1054.86,544.66,1050.27,544.66Z" transform="translate(-854.59 -463)"/><path d="M1063.85,520.75h-5.44a5.83,5.83,0,0,0,.86-3.07c0-1.68-.72-2.73-2.58-3.52l-17.59,8.08v-7l11-4.23-11-4v-6.88l20,8.49c3.69,1.57,5.55,4.19,5.55,7.9A10.29,10.29,0,0,1,1063.85,520.75Z" transform="translate(-854.59 -463)"/><path d="M1056.15,498h-5.34a11.15,11.15,0,0,0,1.4-3.29,16.64,16.64,0,0,0,.57-4.45c0-1.53-.29-2.32-.9-2.32-.32,0-.57.19-.82.82l-.29.86c-.14.49-.5,1.95-.68,2.66a12.83,12.83,0,0,1-2,4.6,4.59,4.59,0,0,1-3.62,1.31c-3.62,0-5.8-3.29-5.8-8.72a14.13,14.13,0,0,1,1.72-7.18h5.16a13.17,13.17,0,0,0-2,6.92c0,1.42.32,2.13.93,2.13.32,0,.65-.26.82-.86l.25-.9c.14-.56.39-1.83.54-2.47,1-4,2.62-5.84,5.8-5.84a5,5,0,0,1,4.26,2.36,10.92,10.92,0,0,1,1.61,6.32C1057.76,493.44,1057.22,496.14,1056.15,498Z" transform="translate(-854.59 -463)"/><path class="cls-1" d="M954.39,581.61l.76-16.43-.25,0-.76,16.4h-.89l-.71-16.17-.25,0,.71,16.15-5.94-.16-2.13-15.34-.25,0,2.13,15.31-2.38-.06v.25l2.41.07.25,1.8-2.66.53v.25l2.69-.54L949.81,603l-5.38-4.84v.33l5.43,4.89.65,4.66h.25l-.61-4.4,2.86,2.57-.08,1.83h.25l.07-1.62.89.8,0,.81h.25l0-.58.65.58h.37l-1-.93-.57-12.91.55-12,1.69-.34,1.07,0v-.5l-1.09.22Zm-7.3,0,5.92.16,0,.44-5.7,1.15ZM953,605.92l-2.93-2.63-2.73-19.63,5.67-1.14.52,11.73Zm1.1,1-.86-.78.42-9.16Zm-.43-15.4-.4-9,.82-.17Zm.44-9.46-.85.17,0-.38.87,0Zm.25-.05v-.13l.57,0Z" transform="translate(-854.59 -463)"/><polygon class="cls-2" points="102.53 102.61 102.53 102.01 102.25 102.03 102.53 102.61"/><path class="cls-3" d="M893.73,558.25l-.22-.54,6.06-28.94,1.5,1.53V530l-1.44-1.47.3-1.42,1.14,1.5v-.41L900,526.74l1.07-5.13v-1.2l-1.27,6.07-3-3.91,4.24-2.6v-.29l-4.39,2.69L887,509.71,894.7,499l6.36,2.78v-.27l-6.21-2.72,1-1.46,5.16-1.34v-.25L896.12,497l4.94-6.88v-.42l-5.31,7.4-3,.77-6.49-2.84v.27l6.1,2.67-6.1,1.58v.25l6.47-1.67,1.72.75-7.6,10.59-.59-.77v.41l.43.57-.43.61v.42l.59-.82,9.57,12.59-1.68,1-8.49-8.66v.35l8.27,8.44q-4.8,3-8.27,5.13v.29c2.25-1.41,5-3.13,8.45-5.24l4.62,4.71-6,28.75-7-17.13v.65l7,16.92-.3,1.44-3,3.62-3.63-6.41v.5l3.46,6.11-3.46,4.14v.38l3.59-4.3,1.62,2.86-2.88,13.77-2.33-.06V580l2.28.06-2.15,10.29h.25l2.15-10.27,10.79.28,1.45,2.56v-.5l-1.16-2.05,1.16,0v-.25l-1.31,0-8-14.1,1.41-6.75.48-.57,7.41,18v-.65l-7.23-17.57,12.26-14.66-.33,0Zm-.58-60.19,2.38-.62-.91,1.26ZM895,523.72l1.65-1,3.12,4.1-.31,1.47Zm4.51,56.42-10.6-.27,2.82-13.46Zm-7.89-14.42L890.06,563l2.79-3.34Zm1.7-6.94.13-.64.13.32Z" transform="translate(-854.59 -463)"/><path class="cls-4" d="M920.09,580.69v.25l5.76.15-2,7.05-3.53.71,1.61-.07,1.84-.37-.08.29h.26l.1-.33,10.93-2.2v-.25l-10.85,2.18,2-7,8.83.24v-.25l-8.75-.24,8.75-30.19v-.89l-9,31.07Z" transform="translate(-854.59 -463)"/><path class="cls-5" d="M920.09,503.63V504l2.65,2.56-2.65,1.6v.29l2.84-1.72,7.7,7.43-.21.25-10.32-4.52v.27l10.16,4.45-10.16,12.15v.38l10.39-12.43,1.31.57,3.14,3v-.34l-2.49-2.4,2.49,1.09v-.27l-3-1.31-1-.94,4-4.75V509l-4.15,5-7.64-7.37,11.78-7.11v-.29l-12,7.22ZM930.8,514.3l.48.46-.63-.28Z" transform="translate(-854.59 -463)"/><polygon class="cls-6" points="65.5 95.56 80.33 65.77 80.33 65.22 65.5 95.01 65.5 95.56"/><polygon class="cls-7" points="72.05 19.21 71.77 19.21 75.21 25.49 65.5 30.07 65.5 30.34 75.32 25.71 76.27 27.45 65.5 35.97 65.5 36.28 76.39 27.67 80.33 34.87 80.33 34.36 76.59 27.51 80.33 24.55 80.33 24.23 76.47 27.29 75.55 25.6 80.33 23.34 80.33 23.07 75.43 25.39 72.05 19.21"/><polygon class="cls-8" points="127.86 32.46 128.11 32.46 129.51 27.05 132.47 32.46 132.75 32.46 129.6 26.7 131.53 19.21 131.28 19.21 129.43 26.39 125.5 19.21 125.22 19.21 129.34 26.74 127.86 32.46"/><polygon class="cls-9" points="152.1 30.69 151.98 30.48 150.7 31.2 148.52 19.21 148.27 19.21 150.47 31.33 146.52 33.58 140.94 19.21 140.68 19.21 145.83 32.49 138.01 19.21 137.72 19.21 146.27 33.73 139.58 37.53 139.58 37.82 146.39 33.94 149.41 41.73 149.66 41.69 147.16 35.23 150.84 41.48 151.1 41.44 146.61 33.82 150.52 31.59 152.23 41.01 152.07 41.27 152.26 41.24 152.26 39.8 150.75 31.46 152.1 30.69"/><polygon class="cls-10" points="112.04 121.63 113.78 125.1 114.05 125.08 112.04 121.08 112.04 121.63"/><polygon class="cls-11" points="139.58 41.86 139.58 42.13 141.99 43.02 142.47 42.94 139.58 41.86"/><path class="cls-12" d="M998.35,560l5.76-16.24-.27,0-5.61,15.83-4.85-14.94-.25,0,5,15.3-4,11.27v.75l4.13-11.64,3.89,12L993.92,574l-.28-.74.24-.67h-.27l-.11.3-.11-.29h-.26l.24.64-.33.92-1.61.32-.67-1.77h-.26l.68,1.8-6.32,1.27-1.77-2.74h-.29l1.79,2.78-3.31.67-9.27-17,1-1.62,8.42,13.06v-.45l-8.28-12.83,7.29-11.57,1,2.62v-.7l-.82-2.18.82-1.3v-.46l-.93,1.47-6.42-17,1-3.75,6.38,16.92v-.7l-6.27-16.64,3.89-15,2.16-1.23.23.71V508h0v-.28l-.09.05-1-3.24,1.09-4.2.05,0v-1.22l-.22.87-2.72-1-5.45-16.81h-.26l5.42,16.7-11.62-4.34v.26l11.72,4.38,1.74,5.37-1.2,4.66-7.75,4.41-4.51-12v.7l4.29,11.37-2,1.12-2.33-6.19v.7l2.11,5.61-2.11,1.2v.28l2.2-1.25,5,13.38-5.57,21.55-1.68-2.6V548l1.59,2.47-.37,1.45-1.22-2.23v.51l1.13,2.06-1.13,4.37v1l1.3-5,3.82,7-5.12,8.13v.46l5.26-8.34,9.16,16.77L969.3,579l-2.67-3.08v.38L969,579l-2.39.48v.25l2.58-.52,2.46,2.84-5-.14v.25l5.26.15,4.6,5.3.31,0-4.57-5.27,12.16.35,2.39,4.37H987l-2.38-4.35,4.43.13.58.89L988.52,587h.27l1.05-3,1.81,2.81.28,0-2-3.09.29-.83,4.13.12,1.35,3.58H996L994.64,583l2.43.07,1.27,3.36h.26l-1.26-3.34,6.11.19-1.26,2.95.27,0,1.25-2.92,1.94.06.86,2.64h.25l-.85-2.62.94,0v-.25l-1,0-.89-2.73,1.9-4.46v-.63l-2,4.73-2.42-7.45,4.44-.89v-.25l-4.51.91Zm-19.7-60.71,2.56,1-1,3.85Zm1.59,5.69.95,2.92-2,1.13Zm-1.43,4.55L975.06,524l-3.83-10.16Zm-9.75,5.55,2-1.12L975,524.46l-1,3.75ZM974,529l6.36,16.89-7.33,11.63-4.57-7.08Zm-6,23.24.38-1.48,4.51,7-1,1.6Zm25.49,21.39.16.43-.34.07Zm-.56.83-.74,2.1-.68-1.81Zm-21,7.62-2.52-2.9,11.69-2.35,3.06,5.61Zm12.52.36-3.1-5.67,3.33-.67,4.17,6.47Zm5.25,1-.38-.59.58,0Zm.29-.82-.83,0L985,576.08l6.26-1.26.8,2.12Zm.26,0,1.89-5.34,2.06,5.46Zm4.22.13-2.2-5.83.89-2.51.53-.11,3.21,8.52Zm11,.34-1.76-.06,1-2.32Zm-.89-2.73-1.14,2.67-6.31-.2L994,574.27l8.16-1.64Z" transform="translate(-854.59 -463)"/><polygon class="cls-13" points="159.5 136.46 160.41 142.36 160.65 142.35 159.75 136.45 159.5 136.46"/><polygon class="cls-14" points="156.33 136.59 158.24 142.48 158.5 142.47 156.59 136.58 156.33 136.59"/><polygon class="cls-15" points="164.94 132.47 171.29 138.22 171.29 137.89 164.94 132.13 164.94 132.47"/><polygon class="cls-16" points="148.82 136.91 151.08 142.88 151.34 142.87 149.08 136.9 148.82 136.91"/><polygon class="cls-17" points="26.07 0 24.01 1.69 23.5 0 23.24 0 23.81 1.86 17.99 6.67 19.36 0 19.11 0 17.68 6.92 12.86 10.9 12.83 11.24 17.61 7.3 15.75 16.35 12.17 18.64 12.14 18.95 15.68 16.69 14.1 24.36 11.75 23.33 11.73 23.59 14.05 24.61 12.48 32.26 11.08 30.84 11.05 31.16 12.42 32.55 9.79 45.37 9.59 47.53 12.63 32.77 16.51 36.73 16.54 36.4 12.69 32.48 14.28 24.71 17.38 26.07 17.4 25.81 14.33 24.46 15.97 16.5 18.28 15.02 18.31 14.71 16.04 16.16 17.91 7.05 19 6.15 19.23 5.97 23.89 2.12 25.05 5.97 25.31 5.97 24.09 1.95 26.45 0 26.07 0"/><polygon class="cls-18" points="5.06 98.26 4.77 101.51 4.41 129.03 2.16 130.81 2.13 131.15 4.41 129.35 4.29 138.19 1.45 138.77 1.43 139.02 4.28 138.45 4.07 154.5 4.32 154.47 4.53 138.4 8.27 137.65 8.29 137.39 4.54 138.15 4.65 129.16 9.26 125.52 9.29 125.18 4.66 128.84 5.06 98.26"/><polygon class="cls-19" points="146.11 5.97 145.03 0 144.78 0 145.86 5.97 146.11 5.97"/><polygon class="cls-20" points="99.52 5.49 97.45 0 97.18 0 99.3 5.6 98.61 5.97 99.14 5.97 99.39 5.84 99.43 5.97 99.7 5.97 99.61 5.72 110.48 0 109.95 0 99.52 5.49"/><polygon class="cls-21" points="164.94 51.81 171.29 40.88 171.29 40.39 164.94 51.32 164.94 51.81"/><polygon class="cls-22" points="164.94 21.31 171.29 11.26 171.29 10.79 164.94 20.85 164.94 21.31"/><polygon class="cls-23" points="164.94 22.86 164.94 23.3 168.02 27.86 164.94 36.54 164.94 37.28 168.19 28.12 171.29 32.71 171.29 32.27 168.3 27.83 171.29 19.4 171.29 18.66 168.12 27.58 164.94 22.86"/><polygon class="cls-24" points="135.8 5.97 133.49 0 133.22 0 135.54 5.97 135.8 5.97"/><polygon class="cls-25" points="49.22 0 48.89 0 43.6 5.97 43.93 5.97 49.22 0"/><polygon class="cls-26" points="31.98 5.97 32.44 5.97 33.49 5.29 34.24 5.97 34.62 5.97 33.7 5.16 41.77 0 41.31 0 33.51 4.99 29.63 1.53 30.47 0 30.19 0 29.44 1.36 27.9 0 27.53 0 29.31 1.58 26.9 5.97 27.18 5.97 29.5 1.75 33.3 5.12 31.98 5.97"/><polygon class="cls-27" points="58.73 0 58.48 0 57.23 5.97 57.49 5.97 58.73 0"/><polygon class="cls-28" points="94.72 5.97 93.63 0 93.38 0 94.47 5.97 94.72 5.97"/><polygon class="cls-29" points="77.42 0 84.56 5.97 84.95 5.97 77.81 0 77.42 0"/><polygon class="cls-30" points="61.38 5.97 61.68 5.97 63.3 3.71 64.53 5.97 64.81 5.97 63.46 3.49 65.96 0 65.66 0 63.32 3.25 61.55 0 61.27 0 63.16 3.47 61.38 5.97"/><polygon class="cls-31" points="149.24 0 153.26 5.97 153.56 5.97 149.54 0 149.24 0"/><polygon class="cls-32" points="11.88 93.45 8.01 65.27 7.91 66.36 11.79 94.59 11.88 93.45"/><polygon class="cls-33" points="164.94 62.45 171.29 64.1 171.29 63.84 164.94 62.2 164.94 62.45"/><polygon class="cls-34" points="14.38 62.82 9.06 53.44 9.03 53.87 14.34 63.26 14.38 62.82"/><polygon class="cls-35" points="114.2 5.97 112.27 0 112.01 0 113.94 5.97 114.2 5.97"/><polygon class="cls-36" points="118.24 5.97 114.98 0 114.69 0 117.96 5.97 118.24 5.97"/><polygon class="cls-37" points="28.29 145.53 28.03 145.57 27.93 146.02 28.11 151.52 28.36 151.49 28.18 146.04 28.29 145.53"/><polygon class="cls-38" points="10.48 110.62 7.19 74.44 7.07 75.81 10.36 112.06 10.48 110.62"/><polygon class="cls-39" points="164.94 91.77 171.29 103.35 171.29 102.84 164.94 91.26 164.94 91.77"/><polygon class="cls-40" points="164.94 83.2 171.29 68.33 171.29 67.7 164.94 82.57 164.94 83.2"/><path class="cls-41" d="M1019.54,583.84l6.34.25v-.24l-6.34-.26Z" transform="translate(-854.59 -463)"/><polygon class="cls-42" points="120.28 138.1 123.44 144.43 123.71 144.41 120.55 138.09 120.28 138.1"/><polygon class="cls-43" points="62.7 140.84 55.92 148.08 56.3 148.04 63.09 140.79 62.7 140.84"/><polygon class="cls-44" points="41.5 143.73 41.2 143.77 39.97 146.24 34.63 144.67 34.04 144.75 39.86 146.46 37.95 150.31 38.24 150.27 40.1 146.53 48.48 149 49.09 148.93 40.21 146.31 41.5 143.73"/><polygon class="cls-45" points="164.94 106.14 171.29 104.87 171.29 104.61 164.94 105.89 164.94 106.14"/><polygon class="cls-46" points="62.8 147.23 63.07 147.2 65 140.53 64.74 140.56 62.8 147.23"/><polygon class="cls-47" points="73.42 139.38 75.97 145.6 76.22 145.57 73.68 139.35 73.42 139.38"/><polygon class="cls-48" points="114.95 138.32 120.12 144.61 120.43 144.6 115.25 138.31 114.95 138.32"/><polygon class="cls-49" points="76.54 145.53 76.81 145.5 79.11 138.61 78.84 138.65 76.54 145.53"/><polygon class="cls-50" points="139.4 137.3 142.71 143.35 142.98 143.34 139.68 137.29 139.4 137.3"/><polygon class="cls-51" points="133.09 137.56 138.33 143.59 138.64 143.58 133.41 137.55 133.09 137.56"/><polygon class="cls-52" points="126.75 144.24 127.02 144.23 129.32 137.72 129.06 137.73 126.75 144.24"/><polygon class="cls-53" points="145.6 137.04 149.42 142.97 149.71 142.96 145.88 137.03 145.6 137.04"/><polygon class="cls-54" points="18.96 146.8 19.75 152.56 19.99 152.53 19.2 146.77 18.96 146.8"/><polygon class="cls-55" points="9.51 153.82 9.92 153.77 17 147.07 16.58 147.13 9.51 153.82"/><polygon class="cls-56" points="97.22 85.91 96.97 85.94 97.41 95.83 97.65 95.81 97.22 85.91"/><polygon class="cls-57" points="101.08 85.58 100.62 95.55 100.86 95.53 101.32 85.56 101.08 85.58"/><polygon class="cls-58" points="181.81 135.13 183.01 141.75 183.26 141.75 182.06 135.13 181.81 135.13"/><path class="cls-59" d="M1045.35,585.62l2.69,6.6h.27l-2.69-6.61Z" transform="translate(-854.59 -463)"/><polygon class="cls-60" points="197.93 122.59 198.88 129.22 199.13 129.22 198.18 122.59 197.93 122.59"/><polygon class="cls-61" points="195.86 135.13 198.56 141.75 198.83 141.75 196.13 135.13 195.86 135.13"/><polygon class="cls-62" points="194.22 141.75 194.47 141.75 194.92 135.13 194.67 135.13 194.22 141.75"/><path class="cls-63" d="M1039.18,589.48l5.06,15.27h.26l-5.17-15.59C1039.28,589.27,1039.22,589.37,1039.18,589.48Z" transform="translate(-854.59 -463)"/><polygon class="cls-64" points="195.08 129.22 195.33 129.22 195.78 122.59 195.53 122.59 195.08 129.22"/><polygon class="cls-65" points="199.73 135.13 200.68 141.75 200.93 141.75 199.98 135.13 199.73 135.13"/><path class="cls-66" d="M1051.15,574.29l0-.33h-.32l0,.34-.22,3.21-7.28,2.67-2.53-6.21h-.27l2.57,6.3-.89.33h.72l.27-.1,0,.1h.27l-.07-.18,6-2.2,1.16-.43-.19,2.81h.25l.2-2.9.45-.16.44,3.07h.25l-.45-3.16,5.69-2.11v-.26l-5.73,2.12Zm-.21,3.12.13-1.95.26,1.8Z" transform="translate(-854.59 -463)"/><path class="cls-67" d="M1032,574l1.29,7.08.26,0-1.31-7.22Z" transform="translate(-854.59 -463)"/><path class="cls-68" d="M1033.87,573.48l2.24,6.75.2-.18-2.17-6.55Z" transform="translate(-854.59 -463)"/><polygon class="cls-69" points="193.63 92.59 193.88 92.59 192.93 85.97 192.68 85.97 193.63 92.59"/><path class="cls-70" d="M1051.51,569l.5-7.31,4,2.65.09-.24-4.08-2.69.86-12.46h-.25l-.85,12.3-.77-.51c0,.08-.05.16-.08.24l.83.55-.52,7.58Z" transform="translate(-854.59 -463)"/><path class="cls-71" d="M1050.45,569.39l-1-6.69-.23.12,1,6.63Z" transform="translate(-854.59 -463)"/><path class="cls-72" d="M1044.69,556.58l-5.59-3.69v.3l5.46,3.6Z" transform="translate(-854.59 -463)"/><path class="cls-73" d="M1058.58,565.74l-.09.24,2.81,1.85h.45Z" transform="translate(-854.59 -463)"/><polygon class="cls-74" points="191.11 75.04 192.06 81.66 192.31 81.66 191.36 75.04 191.11 75.04"/><polygon class="cls-75" points="184.5 81.41 188.26 75.04 187.97 75.04 184.5 80.92 184.5 81.41"/><path class="cls-76" d="M1054.26,525.51,1053,544.32l.25-.07,1.29-18.74Z" transform="translate(-854.59 -463)"/><polygon class="cls-77" points="190.51 69.13 189.57 62.51 189.32 62.51 190.27 69.13 190.51 69.13"/><polygon class="cls-78" points="195.37 62.51 191.46 69.13 191.75 69.13 195.66 62.51 195.37 62.51"/><path class="cls-79" d="M1056.68,514.17l.2.09L1060,509l-.22-.11-3.11,5.27Z" transform="translate(-854.59 -463)"/><polygon class="cls-80" points="187.9 52.66 188.58 57.38 188.81 57.27 188.08 52.16 188.65 50.62 188.34 50.74 188.01 51.65 187.9 50.91 187.67 51 187.83 52.14 185.39 58.84 185.71 58.7 187.9 52.66"/><polygon class="cls-81" points="192.34 40.46 192.11 40.36 190.05 46.03 190.28 46.11 192.34 40.46"/><polygon class="cls-82" points="200.93 44.1 200.39 51.95 200.65 51.84 201.17 44.21 200.93 44.1"/><polygon class="cls-83" points="187.05 44.94 186.02 37.78 185.76 37.67 186.78 44.85 187.05 44.94"/><path class="cls-84" d="M1052.7,489.07l3.79,4-.34,4.92c.1-.17.19-.36.29-.55l.28-4.13.73.77c0-.1,0-.2.05-.3l-.76-.8.49-7.06q-.09-.31-.21-.61l-.51,7.43-3.92-4.12A3.17,3.17,0,0,1,1052.7,489.07Z" transform="translate(-854.59 -463)"/><path class="cls-85" d="M1054.69,482.11l-.21-.14-2.21,6.07a.87.87,0,0,1,.18.23Z" transform="translate(-854.59 -463)"/><path class="cls-86" d="M1051.88,487.9h.06l-4.34-4.57-.14.21,4.18,4.4A.63.63,0,0,1,1051.88,487.9Z" transform="translate(-854.59 -463)"/><path class="cls-87" d="M1039.81,495.22l-1.09-7.62c0,.39-.06.8-.08,1.21l.8,5.6A8.25,8.25,0,0,0,1039.81,495.22Z" transform="translate(-854.59 -463)"/></svg>