<?xml version="1.0" encoding="utf-8"?>
<!-- Generator: Adobe Illustrator 18.1.1, SVG Export Plug-In . SVG Version: 6.00 Build 0)  -->
<svg version="1.1" id="Layer_1" xmlns="http://www.w3.org/2000/svg" xmlns:xlink="http://www.w3.org/1999/xlink" x="0px" y="0px"
	 viewBox="0 0 755.4 333.5" enable-background="new 0 0 755.4 333.5" xml:space="preserve">
<g>
	<g>
		<g>
			<path fill="#E6E5D1" d="M125.9,290.2c-1.6-0.9-2.5-1.9-2.7-3.2c-0.1-0.8,0.2-2.3,0.9-4.5c0.8-2.2,2-5.7,3.8-10.3
				c2.2-5.6,4.6-11.8,7.2-18.5c2.6-6.7,5.1-13.4,7.5-19.8c2.4-6.5,4.7-12.5,6.8-18.2c2.1-5.6,3.7-10.1,4.9-13.5
				c-20.3,19.2-37.9,35.8-52.9,49.8s-27.9,25.7-38.6,35.4c-10.7,9.7-19.6,17.5-26.6,23.4c-7,5.9-12.7,10.5-17,13.9
				c-4.3,3.3-7.6,5.6-9.8,6.8c-2.2,1.2-3.8,1.9-4.8,2c-1.4,0.2-2.4-0.1-3.1-0.9c-0.7-0.8-1.1-2.1-1.4-3.8c-0.1-0.8-0.1-1.4,0-1.8
				c0.1-3.1,0.6-6.4,1.6-10.1c1-3.6,2.5-7.3,4.4-11.1c2-3.8,4.5-7.7,7.6-11.6c3.1-3.9,6.8-7.7,11.1-11.4c1.4-0.2,3.1-0.4,5.2-0.5
				c2-0.1,3.6,0.1,4.6,0.5c3.7-2.8,8.8-6.9,15.3-12.4c6.5-5.5,14.4-12.2,23.7-20c9.4-7.8,20.2-16.8,32.5-26.8
				c12.3-10,26.2-20.8,41.7-32.5c-5.8,1.9-12,3.7-18.4,5.3c-6.4,1.7-12.9,3-19.3,4.1c-6.9,1.2-13.6,1.9-20,2.2
				c-6.5,0.3-12.4,0.1-17.9-0.7c-1.3-0.2-3.2-0.9-5.9-2.1c-2.7-1.2-5.3-2.7-8-4.5c-2.7-1.8-5.1-3.8-7.2-5.9
				c-2.2-2.1-3.4-4.2-3.8-6.3c-0.1-0.6-0.1-1-0.1-1.2c0.2-6.2,2.2-12.8,6.2-19.8c3.9-7,9.1-14.1,15.4-21.2
				c6.4-7.1,13.5-14,21.5-20.6c8-6.7,16-12.7,24.2-18.1c8.2-5.4,16.2-9.9,24-13.5c7.8-3.6,14.7-5.9,20.5-6.9
				c7.2-1.2,13.3,0.4,18.4,4.9c5.1,4.5,8.4,11.7,10.1,21.6c2.3,13.4,0.6,31.9-4.9,55.7c2.3-1,4.1-1.8,5.4-2.5s2.3-1.2,3-1.6
				c0.7-0.4,1.2-0.7,1.5-0.9s0.7-0.3,1.1-0.4c0.8-0.1,1.3,0.2,1.4,1.1c0.2,1.4-1.9,4.8-6.3,10.3l2.9-0.8l-13.1,11.6
				c-3.3,11.7-7.3,24.3-12,37.8c-4.8,13.4-10.5,27.9-17.1,43.4c0.6,0.9,1.1,1.9,1.7,3c0.5,1.1,0.9,2.1,1.1,3.1c0,0.1,0,0.4-0.2,0.8
				c-0.1,0.4-0.3,0.9-0.5,1.4c-0.2,0.5-0.4,1-0.5,1.4c-0.2,0.4-0.3,0.7-0.4,0.8l-7.9,19.8c-1,2.3-2.1,3.6-3.2,3.8
				c-1.2,0.2-2.3,0-3.2-0.7L125.9,290.2z M163.2,171c1.4-5.4,2.6-10.5,3.8-15.5c1.2-5,2.2-9.6,3-13.8c0.8-4.2,1.5-7.9,2-11
				c0.5-3.2,0.8-5.7,0.9-7.5c0.1-1.8,0-3.6-0.3-5.6c-0.6-3.3-1.7-5.7-3.5-7.1c-1.8-1.4-4-1.9-6.6-1.5c-2.8,0.5-6.8,1.9-12.1,4.2
				c-5.3,2.3-11,5.2-17.2,8.8c-6.2,3.5-12.6,7.5-19.1,11.9c-6.5,4.4-12.4,9-17.7,13.7c-5.3,4.7-9.7,9.4-13.1,14.1
				c-3.4,4.7-5.2,9-5.3,13.1c-0.1,0.2,0,0.7,0.1,1.4c0.3,2,1.6,3.5,3.8,4.5c2.2,1,4.8,1.7,8,2.1c3.1,0.4,6.6,0.5,10.4,0.4
				c3.8-0.1,7.5-0.4,11-0.8c3.6-0.4,6.8-0.8,9.8-1.3c3-0.4,5.2-0.8,6.7-1.1c6.6-1.1,12.9-2.5,18.8-4
				C152.4,174.4,158,172.7,163.2,171z"/>
		</g>
		<g>
			<path fill="#E6E5D1" d="M260.7,140.3l0.7,4.3c-2.4,3-4.4,5.1-5.9,6.3c-1.6,1.1-4,1.9-7.2,2.3c-4.4,7.5-8.8,11.6-13,12.4
				c-2.4,0.4-4.7,0-6.9-1.3c-2.2-1.2-4.2-3.1-5.8-5.7c-1.6-2.5-2.7-5.5-3.3-8.9c-0.5-2.7-0.1-5.9,1.2-9.6c1.3-3.6,3.1-7.1,5.5-10.5
				c2.4-3.4,5.1-6.2,8.1-8.6c3-2.3,5.9-3.7,8.7-4.2c2-0.3,3.6-0.3,4.9,0.1c1.3,0.4,2,1.2,2.2,2.3c0.1,0.9-0.2,1.9-1,3.2
				c1.7,0.1,2.9,0.4,3.6,1.1c0.7,0.7,1.3,2.1,1.6,4.2c0.3,2.1,0.3,4.7-0.1,8c-0.4,3.3-1.3,6.4-2.5,9.5l1.3,1l1-0.2
				c0.7-0.1,1.4-0.4,2.1-0.9c0.6-0.5,1.2-1,1.7-1.5C258,143.1,259.1,142,260.7,140.3z M244.7,125.6c-3.2,2.7-5.9,5.2-8.1,7.3
				c-2.2,2.2-4.1,4.3-5.5,6.3c-1.5,2.1-2.3,4.1-2.6,6c-0.3,5-0.4,7.6-0.3,8c0.5,2.8,2.7,3.9,6.6,3.2c1.8-0.3,4.6-2.4,8.4-6.3
				c-1.1-1.9-1.8-3.7-2.1-5.6c-0.5-2.7-0.4-5.5,0.3-8.5C242,133.1,243.1,129.6,244.7,125.6z"/>
			<path fill="#E6E5D1" d="M293,110.9c0.3-0.2,0.6-0.3,0.9-0.3c0.4-0.1,0.8,0,1.1,0.2c0.3,0.2,0.5,0.5,0.6,1
				c0.1,0.4,0.1,0.9,0.2,1.5c0.1,0.6,0,1.2-0.1,1.8c-0.1,0.6-0.3,1.3-0.7,1.9c-0.3,0.6-0.9,1.2-1.6,1.7c0,4.7-0.2,8.7-0.7,12.1
				c-0.5,3.4-1.2,6.3-2.2,8.9c-1,2.6-2.2,4.9-3.6,7c-1.4,2.1-3,4.1-4.8,6.2c-1.2,1.4-2.4,2.7-3.7,3.8c-1.2,1.1-2.4,2.1-3.5,2.9
				c-1.1,0.8-2.2,1.4-3.1,1.9c-1,0.5-1.8,0.8-2.4,0.9c-1.1,0.2-2.2,0-3.3-0.6c-1.2-0.6-2.2-1.4-3.2-2.4c-1-1-1.9-2.1-2.6-3.3
				c-0.7-1.2-1.2-2.3-1.3-3.2c-0.1-0.5-0.2-1.1-0.2-1.7c-0.1-0.7-0.1-1.4,0-2.2c0-0.8,0.1-1.6,0.3-2.5c0.1-0.9,0.4-1.7,0.7-2.6
				c1.4-3.6,3.1-6.8,4.9-9.6c1.9-2.8,3.9-5.4,6.2-7.7c2.2-2.3,4.7-4.5,7.3-6.5c2.6-2,5.4-4.1,8.3-6.2c-0.5-3.2-0.8-6.3-1-9.4
				c-0.2-3.1-0.1-6.1,0.3-9.1c0.4-3,1.2-5.9,2.4-8.7c1.2-2.8,3-5.5,5.3-8.1c1.4-1.5,2.9-3,4.5-4.4c1.6-1.4,3.3-2.7,5.1-3.9
				c1.8-1.2,3.6-2.1,5.5-3c1.9-0.8,3.8-1.4,5.8-1.7c2-0.3,3.3-0.4,4-0.1c0.7,0.3,1.1,0.8,1.2,1.5c0.2,1.3,0.2,2.5-0.1,3.4
				c-0.3,0.9-0.7,1.7-1.2,2.3c-0.5,0.6-1.1,1.2-1.8,1.6c-0.7,0.4-1.3,0.8-1.9,1.1c-1.7,0.9-3.4,1.8-4.9,2.6c-1.5,0.8-3,1.7-4.3,2.6
				c-1.4,0.9-2.7,2-4,3.2c-1.3,1.2-2.5,2.6-3.7,4.3c-1.4,1.9-2.5,3.7-3.2,5.6c-0.8,1.8-1.3,3.7-1.6,5.6c-0.3,1.9-0.4,3.8-0.3,5.7
				C292.4,106.7,292.7,108.8,293,110.9z M287.2,122.1c-3.5,2-6.6,4.2-9.3,6.6c-2.7,2.4-4.9,4.8-6.6,7.2c-1.7,2.4-3,4.7-3.8,6.8
				c-0.8,2.2-1.1,4-0.8,5.5c0.2,1.1,0.6,2,1.2,2.7c0.6,0.7,1.9,0.8,3.7,0.5c0.7-0.1,1.4-0.4,2.2-0.9c0.8-0.5,1.5-1.1,2.2-1.8
				c0.7-0.7,1.4-1.4,2-2.1c0.6-0.7,1.1-1.3,1.4-1.8c2-3,3.7-6.4,5.1-10.3C285.9,130.8,286.8,126.6,287.2,122.1z"/>
			<path fill="#E6E5D1" d="M346,130.3c-2.6,3.6-4.8,6.6-6.7,9.1c-1.9,2.5-3.6,4.6-5.1,6.3c-1.5,1.7-2.8,2.9-4,3.7
				c-1.2,0.8-2.3,1.3-3.3,1.5c-1.5,0.3-2.9,0-4.1-0.9c-1.2-0.9-2-2.4-2.3-4.6c-0.2-0.9-0.2-1.9-0.2-2.9c0-1,0.1-2.1,0.4-3.3
				c0.2-1.2,0.6-2.6,1.1-4.1c0.5-1.5,1.1-3.3,1.9-5.4c-2,0.8-4,1.9-6,3.4c-2,1.5-4,3.2-5.9,5.1c-1.9,1.9-3.8,4-5.6,6.2
				c-1.8,2.2-3.6,4.5-5.2,6.7c-0.3,0.4-0.7,0.8-1.3,1.2c-0.6,0.4-1.2,0.6-1.9,0.7c-0.9,0.1-1.6,0-2.3-0.4c-0.7-0.4-1.1-1.3-1.4-2.6
				c-0.1-0.6-0.1-1.5-0.1-2.6c0-1.1,0.1-2.4,0.3-3.7c0.2-1.4,0.4-2.9,0.7-4.4c0.3-1.6,0.6-3.1,1-4.7c0.4-1.6,0.8-3.1,1.2-4.5
				c0.5-1.4,0.9-2.7,1.4-3.9c1.1-2.5,2.1-4.7,3-6.6c1-1.9,1.9-3.4,2.8-4.7c0.9-1.3,1.8-2.3,2.8-2.9c0.9-0.7,1.9-1.1,2.9-1.3
				c1.2-0.2,2.3-0.2,3.3,0.1c0.9,0.3,1.5,0.9,1.7,1.9c0.1,0.4,0.1,0.8,0.1,1.1c0,0.3-0.2,0.7-0.4,1c-0.2,0.4-0.5,0.8-0.8,1.4
				c-0.3,0.5-0.8,1.2-1.3,2.1c-1.6,2.5-2.8,4.6-3.8,6.4c-1,1.8-1.8,3.4-2.5,4.9c-0.7,1.5-1.2,3-1.7,4.4c-0.5,1.4-0.9,3.1-1.4,4.9
				c1-1.7,2.2-3.4,3.6-5.1c1.4-1.8,3.1-3.5,5-5.2c1.9-1.7,4.1-3.4,6.5-5c2.5-1.6,5.2-3.1,8.3-4.5c1.1-3.9,2-6.8,2.8-8.9
				c0.8-2,1.5-3.6,2-4.7c0.8-1.8,2-2.8,3.6-3.1c0.6-0.1,1.1,0.1,1.6,0.5c0.5,0.4,1,0.9,1.4,1.6c0.4,0.7,0.8,1.4,1.2,2.3
				c0.3,0.9,0.6,1.7,0.9,2.6c0.1,0.3,0,0.8-0.3,1.3c-0.2,0.5-0.6,1.2-0.9,1.9c-0.4,0.7-0.8,1.4-1.3,2.2c-0.5,0.8-0.9,1.5-1.2,2.3
				c0.3,1.5,0.3,2.8,0.1,3.9c-0.1,0.3-0.2,0.6-0.3,0.9c-0.1,0.3-0.3,0.6-0.7,1c-0.3,0.4-0.7,0.8-1.3,1.2c-0.6,0.5-1.3,1-2.3,1.7
				c-0.1,0.3-0.3,0.8-0.6,1.5c-0.3,0.7-0.6,1.4-0.9,2.3c-0.3,0.8-0.5,1.7-0.7,2.6c-0.2,0.9-0.2,1.8-0.1,2.6c0.1,0.9,0.5,1.5,1,1.8
				c0.5,0.4,1.1,0.5,1.8,0.4c0.6-0.1,1.3-0.4,2-0.8c0.7-0.4,1.5-1.1,2.5-2c0.9-0.9,2.1-2,3.4-3.4c1.3-1.4,2.9-3.1,4.8-5.1L346,130.3
				z"/>
			<path fill="#E6E5D1" d="M374.3,116.7c-4.8,9.3-8.5,15.9-11.2,19.9c-2.6,4-5,6.2-7,6.5c-1.6,0.3-3.2-0.1-4.8-1.3
				c-1.6-1.1-3-2.8-4.1-4.9c-1.1-2.2-1.9-4.5-2.4-7.2c-0.3-1.7-0.4-3.3-0.3-4.7c0.1-1.4,0.4-3,1.1-4.8c0.6-1.8,1.5-3.8,2.7-6
				s2.6-4.7,4.3-7.5c1-1.7,1.9-3.2,2.6-4.3c0.7-1.2,1.4-2,2.2-2.5c0.8-0.5,2.1-0.9,4-1.2c1.4-0.2,2.7-0.3,4-0.1c1.3,0.2,2,0.4,2,0.8
				c0.1,0.8-0.3,2.3-1.2,4.5c-0.9,2.2-2.5,5-4.9,8.4c-2.3,3.4-5.1,6.7-8.3,10.1c-0.4,2.7-0.5,4.7-0.2,6c0.3,1.8,1.2,2.6,2.6,2.4
				c0.5-0.1,1.3-0.7,2.3-1.7c1-1.1,2.8-3.1,5.2-6.1c2.4-3,4.6-5.6,6.5-7.9c1.4-1.7,3-4.2,4.7-7.5c1.7-3.3,3.1-5.7,4.3-7.4
				c2.6-3.9,4.4-6.4,5.4-7.6c1-1.2,2-1.9,3.1-2.1c1-0.2,1.8,0,2.2,0.6c0.5,0.6,0.9,1.9,1.2,3.8c0.2,0.9,0.2,1.6,0.1,2.2
				c-0.1,0.6-0.3,1.4-0.7,2.3c-0.4,1-1.2,2.8-2.4,5.4c-1.2,2.6-2.7,5.7-4.4,9.3c-0.9,1.9-1.6,4-2.2,6.1c-0.6,2.2-0.7,3.8-0.6,4.8
				c0.4,2.2,1.4,3.2,3.2,2.9c1.5-0.2,3-1.1,4.8-2.7c1.7-1.5,4.3-4.2,7.8-8l0.7,4.3c-4.2,5.5-7.4,9.4-9.4,11.9
				c-2,2.5-3.8,4.4-5.4,5.8c-1.6,1.4-3.1,2.2-4.7,2.4c-3.6,0.6-5.7-1.2-6.5-5.5c-0.3-1.6-0.1-3.9,0.5-6.8
				C371.7,126.6,372.8,122.3,374.3,116.7z"/>
			<path fill="#E6E5D1" d="M474.8,108.5c-2.6,3.6-4.8,6.6-6.7,9.1c-1.9,2.5-3.6,4.6-5.1,6.3c-1.5,1.7-2.8,2.9-4,3.7
				c-1.2,0.8-2.3,1.3-3.3,1.5c-1.5,0.3-2.9,0-4.1-0.9c-1.2-0.9-2-2.4-2.3-4.6c-0.3-1.6-0.2-3.7,0.2-6.2c0.4-2.5,1.4-5.6,2.8-9.3
				c0.5-1.1,1-2.5,1.6-4s1.2-3.1,1.7-4.7c0.6-1.6,1-3,1.4-4.4c0.4-1.3,0.6-2.3,0.6-3c-2.2,2.2-4.2,4.4-5.8,6.6c-1.6,2.2-3.3,4.6-5,7
				c-1.8,2.5-3.6,5-5.4,7.6c-1.8,2.6-3.4,5.1-5,7.6c-2.2,3.5-4,6.2-5.4,8.1c-1.4,1.8-2.8,2.9-4.3,3.1c-0.9,0.2-1.7-0.1-2.5-0.6
				c-0.8-0.6-1.3-1.5-1.5-2.8c-0.2-0.9-0.1-2.5,0.3-4.6s0.9-4.6,1.7-7.4c0.4-1.5,0.8-2.8,1.2-4.1c0.4-1.2,0.7-2.5,1-3.9
				c0.3-1.4,0.5-2.9,0.7-4.5c0.2-1.7,0.3-3.7,0.4-6c-0.7,1.2-1.3,2.2-1.8,3.2c-0.5,1-1,1.9-1.4,2.8c-0.5,0.9-1,1.8-1.5,2.8
				c-0.5,0.9-1.1,2-1.8,3.1c-2,3.2-4,6.4-6,9.4c-2,3-3.8,5.7-5.4,7.9c-0.9,1.3-1.7,2.4-2.4,3.3c-0.7,0.9-1.3,1.6-1.8,2.2
				c-0.5,0.6-1,1-1.5,1.3c-0.5,0.3-0.9,0.5-1.3,0.6c-0.7,0.1-1.4-0.2-2.2-0.9c-0.8-0.7-1.6-1.7-2.3-2.9c-0.7-1.3-1.4-2.7-2-4.3
				c-0.6-1.6-1.1-3.3-1.3-5c-0.2-1.2-0.3-2.4-0.2-3.7c0.1-1.3,0.3-2.5,0.8-3.7c0.4-1.1,1.1-2.1,2-3c0.9-0.8,2-1.4,3.4-1.6
				c1.2-0.2,2.3-0.2,3.3,0.1c0.9,0.3,1.5,0.9,1.6,1.8c0.1,0.4,0,0.9-0.3,1.4c-0.2,0.5-0.5,1-0.8,1.6c-0.3,0.5-0.6,1-0.9,1.5
				c-0.3,0.5-0.4,0.9-0.4,1.3c0,0.1,0,0.3,0,0.7c0.1,0.7,0.4,1.2,0.9,1.4c0.5,0.2,0.9,0.3,1.3,0.2c0.3-0.1,1.2-1,2.6-2.8
				c1.4-1.8,3-4.2,5-7.1c2-3,3.9-6.3,5.7-9.9c1.8-3.6,3.9-7.5,6.2-11.7c0.5-0.9,1-1.7,1.5-2.5c0.5-0.8,1.1-1.5,1.7-2.1
				c0.6-0.6,1.3-1.2,2-1.6c0.8-0.4,1.7-0.7,2.7-0.9c0.3-0.1,0.8,0.2,1.5,0.6c0.7,0.5,1.4,1.1,2.1,1.9c0.7,0.8,1.4,1.7,2,2.6
				c0.6,1,1,1.9,1.1,2.8c0.1,0.6,0.1,1.3,0.1,1.9c-0.1,0.6-0.2,1.4-0.4,2.3c-0.6,2.6-1.3,5.1-2.3,7.4c-1,2.3-1.8,4.6-2.6,6.7
				c-0.8,2.1-1.7,4.3-2.7,6.6c-1,2.3-2,4.6-2.9,7c2.5-3.1,4.8-6.1,6.8-9c2-2.9,3.9-5.7,5.7-8.4c1.8-2.8,3.5-5.5,5.1-8.3
				c1.6-2.8,3.3-5.6,5-8.5c0.5-0.9,1-1.7,1.5-2.5c0.5-0.8,1.1-1.5,1.7-2.1c0.6-0.6,1.3-1.2,2-1.6c0.8-0.4,1.7-0.7,2.7-0.9
				c0.3-0.1,0.8,0.2,1.5,0.7c0.7,0.5,1.4,1.1,2.1,1.9c0.7,0.8,1.4,1.7,2,2.6c0.6,1,1,1.9,1.2,2.8c0.1,0.6,0.1,1.3,0,1.9
				c-0.1,0.6-0.4,1.4-0.7,2.4c-0.8,2.3-1.5,4.5-2.4,6.6c-0.8,2.1-1.6,4-2.3,5.7c-0.7,1.7-1.3,3.2-1.8,4.5c-0.5,1.3-0.7,2.4-0.8,3.2
				c0,0.5,0,1,0,1.4c0.1,0.9,0.5,1.5,1,1.8c0.5,0.4,1.1,0.5,1.8,0.4c0.6-0.1,1.3-0.4,2-0.8c0.7-0.4,1.5-1.1,2.5-2
				c0.9-0.9,2.1-2,3.4-3.4c1.3-1.4,2.9-3.1,4.8-5.1L474.8,108.5z"/>
			<path fill="#E6E5D1" d="M479.4,91.6c5.5-7,11.1-12.4,16.7-16.3c5.6-3.9,10.1-6.1,13.4-6.7c0.9-0.2,1.8,0.1,2.7,0.7
				c0.9,0.6,1.7,1.4,2.3,2.3c0.6,0.9,1,1.6,1,2.1c0.1,0.8-0.1,1.4-0.6,1.9c-0.5,0.5-1.5,1.1-2.9,1.8c0.4,0.6,0.9,1.4,1.6,2.4
				c0.7,1,1.2,1.8,1.5,2.4c0.4,0.6,0.6,1.2,0.7,1.7c0.2,1-0.5,3.1-2.1,6.3c-1.6,3.2-2.7,5.5-3.3,6.9c-0.6,1.5-0.8,3.2-0.4,5.1
				c0.5,3.2,2.3,4.5,5.2,4c3-0.5,7.2-4.1,12.6-10.8l0.7,3.9c-8.8,13.8-15.5,21.2-20.2,21.9c-1.7,0.3-2.9-0.1-3.8-1
				c-0.9-1-1.5-2.5-1.9-4.7c-0.6-3.4-0.2-8.5,1.2-15.3c-5.1,8-8.9,13.7-11.4,17.1c-2.5,3.4-4.8,5.3-6.8,5.7
				c-0.9,0.2-2.3-0.5-3.9-1.8c-1.7-1.4-3.3-3.3-4.8-5.7c-1.5-2.4-2.5-5-3-7.8c-0.3-2-0.4-3.7-0.3-5.1c0.2-1.4,0.7-2.9,1.5-4.5
				C475.8,96.5,477.3,94.3,479.4,91.6z M508.9,79.4c-10.3,7-17.4,12.6-21.6,17c-4.1,4.3-5.9,8.4-5.2,12.2c0.2,1.4,0.7,2.5,1.3,3.2
				c0.6,0.8,1.3,1.1,2.1,1c0.5-0.1,1.3-0.5,2.3-1.3c4-3.4,7.6-7.6,10.6-12.4C501.4,94.1,504.9,87.6,508.9,79.4z"/>
			<path fill="#E6E5D1" d="M593.3,84l0.7,4.3c-1.2,1.5-2.2,2.7-3,3.6c-0.8,1-1.7,1.7-2.5,2.4c-0.8,0.6-1.7,1.1-2.7,1.5
				c-1,0.4-2.1,0.7-3.5,0.9c-0.5,0.1-1,0.1-1.5,0.1c-4.5,7.6-8.8,11.8-13.1,12.5c-1.8,0.3-3.6,0.1-5.3-0.5c-1.7-0.7-3.3-1.7-4.8-3.1
				c-1.5-1.4-2.7-3.2-3.8-5.2c-1.1-2.1-1.8-4.4-2.2-6.9c0-0.2-0.1-0.4-0.1-0.7c0-0.2-0.1-0.5,0-0.7c-1.8,1-3.5,2.2-5.3,3.7
				c-1.8,1.5-3.5,3.1-5.2,4.9c-1.7,1.8-3.3,3.7-4.9,5.7c-1.6,2-3.1,4-4.6,6c-0.3,0.4-0.7,0.8-1.3,1.2c-0.6,0.4-1.2,0.6-1.9,0.7
				c-0.9,0.1-1.6,0-2.3-0.4c-0.7-0.4-1.1-1.3-1.4-2.6c-0.2-0.9-0.1-2.4,0-4.3c0.2-1.9,0.5-4.1,0.9-6.4s0.9-4.6,1.5-7
				c0.6-2.3,1.3-4.4,2-6.1c2.1-5,4.1-8.8,5.9-11.3c1.8-2.5,3.7-3.9,5.6-4.2c1.2-0.2,2.3-0.2,3.3,0.1c0.9,0.3,1.5,0.9,1.7,1.9
				c0.1,0.4,0.1,0.8,0.1,1.1c0,0.3-0.2,0.7-0.4,1c-0.2,0.4-0.5,0.8-0.8,1.4c-0.3,0.5-0.7,1.2-1.3,2.1c-1.6,2.5-2.8,4.7-3.8,6.5
				c-1,1.8-1.8,3.4-2.5,4.9s-1.2,3-1.7,4.4c-0.5,1.4-0.9,3.1-1.4,4.9c1.8-3,4.3-6.1,7.4-9.2c3.2-3.2,7.3-6.1,12.3-8.8
				c1-2.5,2.3-4.9,3.9-7.3c1.6-2.4,3.3-4.6,5.3-6.6c1.9-2,4-3.7,6.1-5.1c2.1-1.4,4.3-2.2,6.4-2.6c2.1-0.3,3.7-0.3,4.9,0.1
				c1.2,0.4,2,1.2,2.1,2.3c0.1,0.9-0.2,1.9-1,3.2c0.8,0,1.6,0.1,2.2,0.3c0.6,0.2,1.1,0.4,1.5,0.8c0.4,0.4,0.7,0.9,1,1.6
				c0.2,0.7,0.5,1.5,0.6,2.6c0.2,1,0.2,2.2,0.2,3.6c0,1.4-0.2,2.9-0.4,4.4c-0.2,1.6-0.5,3.2-0.9,4.8c-0.4,1.6-0.9,3.2-1.5,4.6
				c0.2,0.4,0.4,0.7,0.7,0.8c0.3,0.1,0.9,0.1,1.6,0c0.7-0.1,1.4-0.4,2-0.9c0.6-0.5,1.2-1,1.7-1.4L593.3,84z M574.4,69.4
				c-1.8,1.1-3.4,2.4-4.9,3.8c-1.5,1.4-2.7,2.7-3.5,3.9c0.6,0.5,1.1,1.2,1.2,2.2c0.2,1,0.1,1.8-0.1,2.6c-0.2,0.7-0.6,1.4-1.1,2.1
				c-0.5,0.6-1.2,1.3-2,1.9c-0.8,0.6-1.7,1.2-2.8,1.9c-0.1,0.6-0.2,1.4-0.3,2.2c-0.1,0.9-0.2,1.7-0.3,2.6c-0.1,0.9-0.1,1.7-0.1,2.5
				c0,0.8,0.1,1.5,0.1,2.1c0.5,2.8,2.7,3.9,6.6,3.2c1.8-0.3,4.6-2.4,8.4-6.3c-1.1-2.3-1.8-4.1-2.1-5.6c-0.3-1.6-0.4-3.2-0.5-4.9
				c0-1.7,0-3.3,0.1-5c0.1-1.6,0.3-3.2,0.4-4.8C573.9,72.2,574.2,70.8,574.4,69.4z"/>
		</g>
		<g>
			<path fill="#E6E5D1" d="M657,67.8l0.7,4.3c-4.1,3.7-7.5,5.7-10.1,6.2c-1.5,0.2-3,0.3-4.7,0.1c-3.1,5.7-5.9,9.9-8.3,12.8
				c-2.4,2.8-5.1,4.5-8,4.9c-3.3,0.6-6.1-0.8-8.5-3.9c-2.4-3.2-4-7.3-4.9-12.5c-1.2-7-0.4-15,2.5-24c2.8-9,6.6-17.6,11.4-25.8
				s9.5-15.1,14.3-20.8c4.8-5.7,8.2-8.7,10.2-9c1.9-0.3,3.1,0.8,3.5,3.4c2,11.5-9.4,34.2-34.2,67.9c0,0.8,0.3,2.4,0.7,4.7
				c1,6.1,3.2,8.8,6.4,8.3c1.3-0.2,2.5-1,3.6-2.2c1.1-1.3,2.8-3.6,5-6.9c-1.5-2.2-2.3-3.9-2.5-5c-0.4-2.4,0.1-5.2,1.6-8.4
				c1.5-3.2,3.4-6,5.5-8.4c2.2-2.5,3.9-3.8,5-4c1.8-0.3,2.9,0.8,3.4,3.4c0.3,2,0.2,4.4-0.3,7.4c-0.6,3-1.5,6.4-2.9,10.3
				c0.9,0.5,1.5,0.8,2,1.1c0.5,0.2,1.2,0.2,2.1,0.1C652.4,71.3,654.6,70,657,67.8z M621.7,63.5c2-2.4,3.9-5.1,5.7-8.2
				c1.9-3.1,4.5-7.8,8-14.2c3.4-6.1,6-11.1,7.8-15.1c1.8-4,3.2-7.3,4-9.9s1.2-4.3,1-5.2c-0.1-0.7-0.3-1-0.7-0.9
				c-1,0.2-2.7,2.1-5.2,5.8c-2.5,3.7-5.3,8.7-8.3,14.9c-4.1,8.6-7.1,15-8.8,19.3C623.5,54.3,622.3,58.8,621.7,63.5z"/>
			<path fill="#E6E5D1" d="M662.7,54.5c5.7-7.2,11.4-12.8,17.2-16.8c5.8-4,10.4-6.3,13.9-6.9c0.9-0.2,1.8,0.1,2.8,0.7
				c0.9,0.6,1.7,1.4,2.3,2.4c0.6,0.9,1,1.6,1.1,2.1c0.1,0.8-0.1,1.4-0.6,1.9c-0.6,0.5-1.6,1.1-3,1.9c0.4,0.7,1,1.5,1.6,2.5
				c0.7,1,1.2,1.8,1.6,2.5c0.4,0.6,0.6,1.2,0.7,1.8c0.2,1.1-0.6,3.2-2.2,6.5c-1.7,3.2-2.8,5.6-3.4,7.1c-0.6,1.5-0.8,3.3-0.4,5.2
				c0.6,3.3,2.3,4.6,5.3,4.1c3.1-0.5,7.4-4.2,13-11.1l0.7,4c-9.1,14.3-16,21.8-20.8,22.6c-1.7,0.3-3-0.1-4-1.1
				c-0.9-1-1.6-2.6-1.9-4.8c-0.6-3.5-0.2-8.7,1.2-15.8c-5.2,8.2-9.1,14.1-11.8,17.7c-2.6,3.5-4.9,5.5-7,5.8c-1,0.2-2.3-0.5-4.1-1.9
				c-1.7-1.4-3.4-3.4-5-5.9c-1.6-2.5-2.6-5.1-3.1-8c-0.3-2.1-0.4-3.8-0.3-5.3c0.2-1.5,0.7-3,1.6-4.7
				C659.1,59.5,660.6,57.3,662.7,54.5z M693.1,41.9c-10.6,7.2-18,13-22.2,17.5c-4.3,4.5-6,8.7-5.4,12.5c0.2,1.4,0.7,2.5,1.3,3.3
				c0.6,0.8,1.4,1.2,2.2,1c0.5-0.1,1.3-0.5,2.4-1.4c4.2-3.5,7.8-7.8,10.9-12.8C685.4,57.1,689,50.3,693.1,41.9z"/>
			<path fill="#E6E5D1" d="M751.6,51.8l0.7,4.4c-3.9,5.4-7.2,9.7-9.7,12.7c-2.5,3.1-5,5.5-7.3,7.4c-2.3,1.8-4.7,3-7.2,3.4
				c-2.4,0.4-4.8-0.2-7.2-1.7s-4.4-3.8-6-6.7c-1.7-2.9-2.8-6.1-3.4-9.6c-0.5-3-0.3-5.8,0.6-8.3c0.9-2.6,3-6,6.1-10.3
				c3.7-5.2,7.3-9.3,10.8-12.3c3.4-3.1,6.3-4.8,8.5-5.1c1.6-0.3,3,0.1,4.3,1c1.3,0.9,2.1,2.2,2.4,3.9c0.2,1.4-0.1,3.5-1.2,6.4
				c-1,2.8-2.3,5.4-3.7,7.6c-1.5,2.2-2.8,3.4-3.8,3.6c-1.1,0.2-1.8-0.3-2-1.6c0-0.4,0-0.7-0.1-1c0-0.3-0.1-0.6-0.1-0.9
				c-0.1-0.5-0.3-0.8-0.7-0.8s-0.8,0.2-1.3,0.7c-3.9,3.8-6.5,6.5-8,8c-1.4,1.5-2.5,3-3.2,4.5c-0.7,1.4-1,2.9-0.7,4.3
				c0.4,2.6,1.6,4.6,3.6,5.9c1.9,1.3,4.3,1.8,7,1.3c2.8-0.5,5.9-2.1,9.5-4.9C743,60.6,747,56.8,751.6,51.8z"/>
		</g>
		<g>
			<path fill="#E6E5D1" d="M293.5,241.7c-3.8,5.3-7.2,9.9-10.1,13.7c-2.9,3.8-5.4,6.9-7.6,9.4c-2.2,2.5-4.2,4.4-5.9,5.6
				c-1.7,1.2-3.4,2-5,2.3c-2.3,0.4-4.3-0.1-6.1-1.3c-1.8-1.3-2.9-3.6-3.5-6.8c-0.4-2.4-0.3-5.5,0.3-9.3c0.6-3.7,2-8.4,4.3-14
				c0.7-1.7,1.5-3.7,2.4-6c0.9-2.3,1.8-4.7,2.6-7c0.9-2.4,1.6-4.5,2.2-6.6c0.6-2,0.9-3.5,0.9-4.5c-3.3,3.3-6.2,6.6-8.7,9.9
				c-2.4,3.4-5,6.9-7.6,10.5c-2.7,3.8-5.4,7.6-8.1,11.4c-2.6,3.8-5.1,7.6-7.5,11.4c-3.3,5.3-6,9.4-8.1,12.1
				c-2.1,2.8-4.3,4.3-6.4,4.7c-1.3,0.2-2.6-0.1-3.8-0.9c-1.2-0.9-2-2.3-2.3-4.3c-0.2-1.4-0.1-3.7,0.4-6.9c0.5-3.2,1.4-6.8,2.6-11.1
				c0.6-2.2,1.2-4.2,1.7-6.1c0.5-1.8,1-3.8,1.5-5.8c0.4-2.1,0.8-4.3,1.1-6.8c0.3-2.5,0.5-5.5,0.7-9c-1,1.8-1.9,3.4-2.7,4.8
				c-0.7,1.4-1.5,2.9-2.2,4.2c-0.7,1.4-1.4,2.8-2.2,4.2c-0.8,1.4-1.7,3-2.7,4.7c-3,4.9-6,9.6-9,14.1c-3,4.6-5.7,8.5-8.1,11.9
				c-1.4,2-2.6,3.6-3.6,5c-1,1.4-1.9,2.5-2.8,3.3c-0.8,0.9-1.6,1.5-2.2,2c-0.7,0.4-1.3,0.7-2,0.8c-1,0.2-2.1-0.3-3.3-1.3
				c-1.2-1.1-2.4-2.5-3.5-4.4c-1.1-1.9-2.1-4-3-6.5c-0.9-2.4-1.6-4.9-2-7.6c-0.3-1.7-0.4-3.6-0.3-5.5c0.1-2,0.5-3.8,1.2-5.5
				c0.7-1.7,1.7-3.2,3-4.5c1.3-1.3,3-2.1,5-2.4c1.9-0.3,3.5-0.3,4.9,0.2c1.4,0.4,2.2,1.3,2.4,2.8c0.1,0.6,0,1.4-0.4,2.1
				c-0.4,0.8-0.8,1.6-1.2,2.3c-0.5,0.8-0.9,1.5-1.3,2.2c-0.4,0.7-0.6,1.4-0.6,1.9c-0.1,0.1,0,0.4,0.1,1c0.2,1.1,0.6,1.8,1.4,2.1
				c0.7,0.3,1.4,0.4,1.9,0.3c0.5-0.1,1.8-1.5,3.8-4.2c2-2.7,4.5-6.3,7.5-10.7c3-4.5,5.9-9.4,8.6-14.9c2.7-5.5,5.9-11.3,9.4-17.5
				c0.8-1.3,1.5-2.6,2.3-3.8c0.8-1.2,1.6-2.2,2.5-3.2c0.9-0.9,1.9-1.7,3.1-2.4c1.1-0.7,2.5-1.1,4.1-1.4c0.4-0.1,1.2,0.2,2.2,1
				c1,0.7,2.1,1.7,3.2,2.9c1.1,1.2,2.1,2.5,3,3.9c0.9,1.4,1.5,2.8,1.7,4.2c0.2,1,0.2,1.9,0.1,2.9c-0.1,0.9-0.3,2.1-0.6,3.5
				c-0.9,3.9-2,7.6-3.4,11.1c-1.4,3.5-2.7,6.8-3.9,10.1c-1.2,3.2-2.6,6.5-4.1,9.9c-1.6,3.4-3,6.9-4.4,10.5
				c3.8-4.7,7.2-9.1,10.2-13.5c3-4.3,5.9-8.5,8.5-12.7c2.7-4.1,5.2-8.3,7.7-12.4c2.4-4.1,4.9-8.4,7.5-12.7c0.8-1.3,1.5-2.6,2.3-3.8
				c0.8-1.2,1.6-2.2,2.5-3.2c0.9-0.9,1.9-1.7,3.1-2.4c1.1-0.7,2.5-1.1,4.1-1.4c0.4-0.1,1.2,0.3,2.2,1c1,0.8,2.1,1.7,3.2,2.9
				c1.1,1.2,2.1,2.5,3,3.9c0.9,1.5,1.5,2.9,1.8,4.2c0.2,1,0.1,1.9-0.1,2.8c-0.2,0.9-0.6,2.1-1,3.5c-1.1,3.5-2.3,6.8-3.6,9.9
				c-1.3,3.1-2.4,6-3.5,8.5c-1.1,2.6-1.9,4.8-2.7,6.8c-0.7,2-1.1,3.6-1.2,4.8c-0.1,0.8,0,1.5,0.1,2.1c0.2,1.3,0.7,2.2,1.4,2.7
				c0.8,0.5,1.6,0.7,2.7,0.5c1-0.2,2-0.6,3-1.2c1-0.6,2.3-1.6,3.7-3c1.4-1.3,3.1-3,5.1-5.1c2-2.1,4.4-4.6,7.2-7.7L293.5,241.7z"/>
			<path fill="#E6E5D1" d="M337,231.8l-14.7,17.4c-6.9,8.5-11.8,13-14.6,13.4c-2.5,0.4-5.6-2-9.3-7.3c-3.7-5.3-6-10.1-6.7-14.4
				c-0.6-3.7-0.6-6.8,0.1-9.6c0.7-2.7,2.1-6.3,4.2-10.8c3-6.1,6-11.4,8.9-15.8c3-4.4,5.6-7.9,8-10.4c2.4-2.6,4.2-3.9,5.2-4.1
				c1.7-0.3,3.6,0.3,5.5,1.8c1.9,1.5,3.1,3.2,3.4,5.2c0.2,1.2-0.3,3.3-1.7,6.3c-1.3,3-3.5,6.9-6.6,11.7c-3.1,4.8-7.6,10.6-13.4,17.6
				l-0.9,5.6c-0.3,1.1-0.4,2.1-0.3,2.8c0.3,1.7,1.3,2.5,3,2.2c1.8-0.3,5.6-3.3,11.5-9c5.9-5.7,12-13,18.5-22
				c2.5-3.5,4.6-6.6,6.2-9.3c1.6-2.6,3-5.1,4.3-7.4c1.3-2.3,2.3-4,3.2-5.2c0.9-1.2,1.7-1.9,2.6-2.1c1.6-0.5,2.9,0,4.1,1.4
				c1.2,1.4,2,3.6,2.5,6.6c0.3,1.7-0.1,4-1.2,6.9c-1.1,2.9-3.2,7.8-6.4,14.7c-3.2,7-6.3,14.2-9.4,21.6c-3.1,7.4-6.1,15.7-9,24.8
				c0.2-0.2,1.8-2.5,4.9-6.8c3.1-4.3,6.5-8.8,9.9-13.5c3.5-4.7,6.4-8.5,8.7-11.3c2.3-2.9,5.2-6.2,8.7-10.1l1.1,6.4
				c-7.1,10.8-13.4,20.9-19.1,30.4c-5.6,9.5-9.9,17.1-12.9,22.8c-3,5.7-4.7,8.9-5.2,9.9c-1.4,2.5-2.6,4.9-3.6,7.1
				c-1,2.2-1.9,3.9-2.7,5.1c-0.8,1.2-1.4,1.9-2,2c-1.3,0.2-2.8-0.9-4.3-3.4c-1.5-2.5-2.4-4.8-2.8-6.8c-0.3-1.9-0.2-3.6,0.2-5.1
				C317.9,280.1,325.3,260.3,337,231.8z"/>
			<path fill="#E6E5D1" d="M364.7,232l-1.2-7.1c2.9-4.3,5.6-10.1,8.2-17.4c-3.7,0.1-5.7-1-6.1-3.4c-0.3-2,0.4-4.8,2.3-8.3
				c1.9-3.5,4.2-6.9,7-9.9s5.2-4.7,7-5c2.1-0.4,3.3,0.3,3.6,2.1c0.1,0.7,0,1.2-0.3,1.4c-0.5,0.4-0.6,1-0.5,1.8
				c0.1,0.6,0.7,0.9,1.7,0.7c3.2-0.5,7.1-1.9,11.7-4c4.6-2.1,7.8-3.4,9.6-3.7c1.5-0.2,2.7,1,3.7,3.6c2.6,7.1,4,11.1,4.1,12.1
				c0.2,0.9-0.1,1.8-0.8,2.8c-0.7,0.9-2.6,2.9-5.9,5.9c-3.3,3-6.3,5.9-9.1,8.6c-2.8,2.7-6.3,6.5-10.7,11.4c3.7,1,6.6,2.4,8.5,4.1
				c1.9,1.7,3.8,4.5,5.6,8.5l20.9-22.9l1.1,6.4l-21,23.6c0.4,6.3-0.7,12.9-3.2,19.8c-2.6,7-5.8,13.4-9.8,19.3
				c-4,5.9-8,10.8-12.2,14.9c-4.2,4-7.4,6.2-9.6,6.6c-2.1,0.4-3.7-0.1-4.8-1.3c-1.1-1.2-1.8-3.2-2.3-5.8c-0.6-3.8-0.4-7.5,0.6-11.2
				c1.1-3.7,2.9-7.5,5.4-11.4c2.5-3.9,5.7-8,9.5-12.2c3.8-4.2,8.9-9.5,15.4-15.7c-1.5-4.4-3.1-7.1-5-7.9c-1.9-0.8-4.6-1.5-8.2-2.1
				c-3.6-0.5-5.6-1.9-6-4.2c-0.4-2.5,10-14.1,31.2-34.9c-3.7,1.4-8.1,3-13.1,4.8c-5,1.8-9.9,3.3-14.5,4.5c-2.4,5.8-4.7,10.8-7,15.2
				C368.4,226.1,366.4,229.5,364.7,232z M394,255.3c-4.1,4-7.9,8.4-11.5,13.1c-3.6,4.7-6.7,9.2-9.2,13.3c-2.5,4.1-3.7,6.6-3.6,7.3
				c0.2,1.5,1,2.1,2.3,1.9c2.3-0.4,5.1-2.2,8.3-5.4c3.2-3.2,6.2-7.5,8.8-12.8C391.7,267.4,393.4,261.6,394,255.3z"/>
			<path fill="#E6E5D1" d="M539.2,201c-4.8,9.2-9.6,16.3-14.3,21.2c-4.7,4.9-8.9,7.7-12.8,8.3c-2.4,0.4-4.7,0.1-6.8-0.9
				c-2.1-1-4-2.6-5.7-4.6c-1.7-2.1-3.1-4.5-4.3-7.2c-1.2-2.8-2.1-5.7-2.8-8.7c-1.6,2-3,3.6-4.1,4.9c-1.2,1.3-2.4,2.4-3.6,3.3
				s-2.5,1.6-3.9,2.1c-1.4,0.5-3.1,0.9-5,1.2c-0.4,0.1-0.8,0.1-1.2,0.2c-0.4,0.1-0.8,0.1-1.3,0.1c-6.7,11.3-13.2,17.5-19.4,18.5
				c-4,0.7-7,0-9.2-2.2c-2.1-2.1-3.5-5.2-4.2-9.1c-0.7-4.2-0.6-9.1,0.2-14.6c0.9-5.5,2.3-11.3,4.3-17.4c2.2-6.8,4.1-13.1,5.6-18.9
				c-6,10.4-11.1,19.2-15.5,26.5c-4.4,7.3-8.2,13.2-11.3,17.8l-1.1-6.7c3.7-5.6,7-11.1,10.1-16.3c3-5.2,5.8-10.3,8.4-15.1
				c2.6-4.9,4.9-9.3,6.8-13.1c1.9-3.8,3.7-7.2,5.2-10c1.5-2.9,2.9-5.3,4.3-7.4c1.3-2,2.7-3.7,4-5.1c1.4-1.4,2.9-2.4,4.6-3.2
				c1.7-0.8,3.6-1.3,5.7-1.7c2.2-0.4,3.4,0.3,3.7,1.9c0.1,0.7,0,1.6-0.3,2.8c-0.3,1.1-0.8,2.4-1.4,3.8c-0.7,1.4-1.4,2.9-2.3,4.4
				c-0.9,1.5-1.9,3.1-3,4.7c-1.4,2-2.8,4.2-4.2,6.6c-1.3,2.4-2.7,5-3.9,7.9c-1.3,2.9-2.5,6.1-3.8,9.5c-1.3,3.5-2.6,7.3-4,11.5
				c-0.9,2.7-1.8,5.4-2.6,8c-0.8,2.6-1.5,5-2.1,7.2c-0.6,2.2-1,4.3-1.3,6.2c-0.2,1.9-0.3,3.5,0,4.8c0.3,1.5,0.9,2.7,2,3.3
				c1,0.7,2.6,0.8,4.7,0.5c2.8-0.5,7-3.6,12.7-9.5c-1.3-2.9-2.2-5.7-2.6-8.3c-0.2-1.1-0.3-2.2-0.4-3.3c-0.1-1.1,0-2.2,0-3.4
				c0-1.5,0.2-3.1,0.6-5c0.4-1.8,1-3.6,1.9-5.3c0.9-1.7,2.1-3.2,3.5-4.4c1.4-1.3,3.2-2.1,5.3-2.4c2.2-0.4,4-0.3,5.4,0.3
				c1.4,0.6,2.2,2,2.6,4.3c0.5,2.7,0.3,5.7-0.4,9c-0.7,3.3-1.9,7-3.4,11l2,1.4l1.4-0.2c0.8-0.1,1.6-0.3,2.2-0.6
				c0.6-0.3,1.2-0.7,1.9-1.3c0.7-0.6,1.4-1.4,2.3-2.4c0.9-1,2.1-2.2,3.5-3.8l0-1.6c0.1-1.5,0.2-2.7,0.3-3.7c0.1-1,0.3-1.9,0.5-2.9
				c0.2-1,0.6-2,1-3.2c0.5-1.2,1.1-2.8,1.9-4.7c6.6-15.7,13.7-24.2,21.3-25.5c3.9-0.7,6.1,0.5,6.7,3.6c0.2,1,0,2.4-0.5,4.3
				c-0.5,1.9-1.1,3.9-1.9,6c-0.8,2.1-1.6,4.1-2.5,6c-0.9,1.9-1.8,3.4-2.5,4.4c-2.4,3.2-4.3,5.8-5.8,7.8c-1.5,2-2.6,3.8-3.3,5.2
				c-0.7,1.4-1.2,2.7-1.4,3.8c-0.2,1.1-0.2,2.3,0.1,3.6c0.4,2.4,1.6,4.2,3.5,5.6c1.9,1.3,4.3,1.7,7.3,1.2c1.5-0.3,3.1-0.8,4.6-1.6
				c1.5-0.8,3.1-1.9,4.8-3.4c1.7-1.4,3.6-3.2,5.6-5.4c2-2.2,4.3-4.7,6.7-7.6L539.2,201z"/>
			<path fill="#E6E5D1" d="M617.5,187.2c-5.7,9.7-10.7,17.2-14.8,22.3c-4.2,5.1-7.9,7.9-11.1,8.5c-2.3,0.4-4.5,0.3-6.5-0.3
				c-2-0.6-4.1-1.7-6.2-3.3c-2.1-1.6-4.2-3.8-6.5-6.6c-2.2-2.8-4.7-6.1-7.5-10.2c-3.1,5.1-5.6,9.2-7.4,12.1c-1.8,3-3.3,5.2-4.4,6.7
				c-1.1,1.5-1.9,2.5-2.5,2.9c-0.6,0.4-1.1,0.7-1.6,0.8c-1,0.2-2.1-0.3-3.3-1.3c-1.2-1.1-2.4-2.5-3.5-4.4c-1.1-1.9-2.1-4-3-6.5
				c-0.9-2.4-1.6-4.9-2-7.6c-0.2-1.3-0.4-2.5-0.5-3.5c-0.1-1.1-0.1-2.2,0.1-3.5c0.2-1.3,0.5-2.8,1.1-4.5c0.5-1.7,1.4-3.9,2.5-6.5
				c3.2-7.5,6.2-13.2,8.8-16.9c2.7-3.7,5.5-5.8,8.4-6.3c1.9-0.3,3.5-0.3,4.9,0.2c1.4,0.4,2.3,1.4,2.5,2.8c0.1,0.6,0.1,1.2,0.1,1.7
				c-0.1,0.5-0.2,1-0.5,1.6c-0.3,0.6-0.7,1.3-1.2,2c-0.5,0.8-1.2,1.8-2,3.1c-4.3,6.7-7.3,12.1-9.2,16.1c-1.9,4-2.6,6.9-2.4,8.6
				c0.1,0.8,0.4,1.4,0.9,1.8c0.5,0.4,0.9,0.5,1.5,0.4c0.4-0.1,1.2-0.7,2.2-1.8c1-1.1,2.2-2.5,3.5-4.1c1.3-1.6,2.6-3.4,4-5.4
				c1.4-2,2.8-3.8,4-5.7c1.3-1.8,2.4-3.4,3.3-4.8c1-1.4,1.6-2.4,2.1-3c6.7-9.2,12.4-16.2,17.3-21c4.8-4.7,9-7.4,12.5-8
				c1-0.2,1.9,0,2.8,0.5c0.9,0.5,1.7,1.2,2.4,2.2c0.7,1,1.3,2.1,1.9,3.4c0.5,1.3,0.9,2.8,1.2,4.3c0.5,3.1,0.4,6.2-0.4,9.3
				c-0.8,3-2.3,6.2-4.5,9.5c-2.2,3.3-5.1,6.8-8.8,10.5c-3.6,3.7-8,7.9-13.1,12.4c2.4,2.6,4.5,4.4,6.2,5.4c1.7,1.1,3.7,1.4,5.9,1
				c1.4-0.2,2.8-0.7,4.1-1.5c1.3-0.8,2.8-2,4.4-3.6c1.6-1.6,3.5-3.7,5.6-6.3c2.1-2.6,4.7-5.9,7.7-9.8L617.5,187.2z M579.3,192.1
				c1.8-1.7,3.8-3.9,6-6.7c2.2-2.7,4.2-5.6,6-8.5c1.8-3,3.3-5.8,4.5-8.5c1.1-2.7,1.5-5,1.2-6.7c-0.2-1.3-0.8-1.8-1.7-1.7
				c-1.2,0.2-2.7,1.1-4.8,2.8c-2,1.7-4.2,3.9-6.6,6.6c-2.4,2.7-4.8,5.8-7.3,9.4c-2.5,3.6-4.8,7.3-7,11.3
				C572.1,189.6,575.3,190.3,579.3,192.1z"/>
			<path fill="#E6E5D1" d="M677.8,170.1l1.1,6.4c-3.6,4.6-6.6,7.7-8.9,9.4c-2.4,1.7-6,2.9-10.8,3.4c-6.7,11.3-13.2,17.5-19.5,18.5
				c-3.6,0.6-7.1,0-10.4-1.9c-3.4-1.9-6.3-4.7-8.7-8.5c-2.5-3.8-4.1-8.2-5-13.3c-0.7-4.1-0.1-8.9,1.8-14.4
				c1.9-5.5,4.6-10.7,8.2-15.8c3.6-5.1,7.6-9.3,12.1-12.8c4.5-3.5,8.9-5.6,13.1-6.3c3-0.5,5.5-0.4,7.4,0.2c1.9,0.6,3,1.8,3.3,3.5
				c0.2,1.3-0.3,2.9-1.5,4.8c2.5,0.1,4.3,0.7,5.4,1.7c1.1,1,1.9,3.1,2.4,6.3c0.5,3.1,0.5,7.1-0.2,12c-0.7,4.9-1.9,9.7-3.7,14.2
				l2,1.4l1.4-0.2c1.1-0.2,2.1-0.6,3.1-1.4c1-0.7,1.8-1.5,2.5-2.2C673.7,174.4,675.3,172.7,677.8,170.1z M653.7,148.2
				c-4.8,4.1-8.8,7.8-12.2,11c-3.3,3.2-6.1,6.4-8.3,9.5c-2.2,3.1-3.5,6.1-3.9,8.9c-0.4,7.5-0.5,11.5-0.4,12.1c0.7,4.2,4,5.9,9.9,4.9
				c2.8-0.5,7-3.6,12.7-9.5c-1.6-2.8-2.6-5.6-3.1-8.4c-0.7-4-0.5-8.3,0.4-12.8C649.7,159.4,651.4,154.2,653.7,148.2z"/>
			<path fill="#E6E5D1" d="M721.9,156.2c-7.2,13.9-12.8,23.8-16.8,29.9c-4,6-7.5,9.3-10.6,9.8c-2.4,0.4-4.9-0.2-7.2-1.9
				c-2.4-1.7-4.4-4.1-6.1-7.4c-1.7-3.2-2.9-6.8-3.5-10.7c-0.4-2.6-0.6-4.9-0.4-7.1c0.1-2.1,0.7-4.6,1.6-7.2c0.9-2.7,2.3-5.7,4-8.9
				s3.9-7,6.5-11.2c1.5-2.6,2.8-4.7,3.9-6.5c1.1-1.8,2.2-3,3.3-3.8c1.2-0.8,3.1-1.4,6-1.9c2.1-0.3,4.1-0.4,6-0.2
				c2,0.2,3,0.6,3.1,1.2c0.2,1.2-0.4,3.4-1.8,6.7c-1.4,3.3-3.8,7.5-7.3,12.6c-3.5,5-7.6,10.1-12.4,15.2c-0.6,4-0.7,7-0.4,9
				c0.5,2.8,1.8,4,3.9,3.6c0.8-0.1,1.9-1,3.5-2.6c1.6-1.6,4.2-4.7,7.8-9.1c3.6-4.5,6.9-8.4,9.8-11.9c2.1-2.6,4.5-6.4,7.1-11.2
				c2.6-4.9,4.7-8.6,6.4-11.1c3.9-5.8,6.6-9.6,8.1-11.4c1.5-1.8,3-2.8,4.6-3.1c1.5-0.3,2.7,0,3.4,0.9c0.7,0.9,1.3,2.8,1.8,5.7
				c0.2,1.3,0.3,2.5,0.2,3.3c-0.1,0.9-0.5,2-1,3.5c-0.6,1.5-1.8,4.1-3.6,8.1c-1.8,3.9-4,8.6-6.5,14c-1.4,2.9-2.5,5.9-3.3,9.2
				c-0.8,3.3-1.1,5.7-0.9,7.2c0.6,3.3,2.2,4.8,4.8,4.3c2.2-0.4,4.6-1.7,7.1-4c2.6-2.3,6.5-6.3,11.6-12l1.1,6.4
				c-6.3,8.2-11,14.2-14.1,17.9c-3.1,3.8-5.8,6.7-8.1,8.7c-2.4,2-4.7,3.3-7.1,3.7c-5.4,0.9-8.6-1.8-9.7-8.3
				c-0.4-2.4-0.2-5.9,0.7-10.3C718,171,719.6,164.6,721.9,156.2z M708.2,90.5c1.6-0.3,3.8,0.6,6.6,2.6c2.8,1.9,5.4,3.2,7.8,3.8
				c2.4,0.6,5,0.7,8,0.2c5.4-0.9,10.4-3.9,14.9-9c2-2.4,3.6-3.7,4.8-3.9c1.2-0.2,2.2,0.1,3.1,0.8c0.9,0.7,1.5,1.8,1.8,3.3
				c0.4,2.5-0.4,5.5-2.4,8.9c-2,3.4-5,6.5-8.9,9.3c-3.9,2.8-8.1,4.6-12.6,5.3c-6.7,1.1-12.7,0-18-3.5c-5.3-3.5-8.3-7.2-9-11.2
				c-0.3-1.5,0-2.9,0.7-4.2C705.7,91.5,706.8,90.7,708.2,90.5z"/>
		</g>
	</g>
	<g>
		<path fill="#E6E5D1" d="M443.3,295.4c-0.1,0.5-0.3,0.5-0.7,0.2c-0.7-0.5-1.5-1.8-1-4.5c0.8-4.3,5.3-16.8,8.6-23.9
			c0.3-0.6,0.7-0.9,1.3-0.5c1.9,1.1,2.7,2.5,2.2,6c-0.5,4.3-1.1,9.5-1.5,15.7c3.1-8.4,7.9-15.8,11.1-23.9c0.3-0.7,0.6-0.8,1.2-0.4
			c2,1.4,2.1,3.8,1.3,6.1c-1.8,6-4.3,15.3-5.2,21.8c-0.1,0.5-0.3,0.5-0.6,0.3c-0.8-0.4-1.5-1.6-1.4-4.5c0.1-2.6,1.6-9,3.3-14.8
			c-3.6,6.7-7.2,14.1-9.1,20.3c-0.1,0.5-0.3,0.6-0.7,0.4c-1.6-0.7-2.5-2.1-2.6-4.8c-0.1-2.5,0.1-8.5,0.9-14.5
			C447.8,280.8,444.6,289.3,443.3,295.4z"/>
		<path fill="#E6E5D1" d="M469.1,290.3c-3,0.4-3.7-2.7-3.3-5.6c0.4-2.9,1.7-7.5,3.6-11.8c0.2-0.5,0.7-0.6,1.1-0.3
			c1.2,1.2,1.4,3.1,0.3,5.8c-1.1,2.8-1.6,4.6-2,6.8c-0.5,2.2,0,3.7,0.9,3.6c1.7-0.2,3.4-3.6,4.9-7.7c1.8-4.8,2.4-7.9,3.4-10
			c0.3-0.7,0.6-0.8,1-0.5c0.8,0.6,1.5,2.4,0.9,4.7c-0.5,2.1-2,5.6-2.6,8c-0.6,2.6-0.1,4.3,1.4,3.9c1.7-0.4,3.3-3.6,4.4-6.9
			c0.1-0.4,0.5-0.5,0.7-0.2c0.2,0.3,0.5,1.4,0.1,2.7c-0.7,2.6-2.9,5.2-5.4,5.7c-2.7,0.5-4.2-1-4.3-3.5
			C473.3,287.4,471.5,290,469.1,290.3z"/>
		<path fill="#E6E5D1" d="M486.3,274.1c-0.6,0.9-1.2,1.2-1.8,1.3c-0.5,0.1-0.8-0.1-0.7-0.4c0.6-2.3,1.2-3.5,2.4-5.2
			c0.7-1,2.5-1.4,3.9,0.3c1.3,1,2.4,1,2.7,4.1c0,0.3,0.1,0.6,0.1,1l0,0.9c-0.2,3.7-2,8.5-4.9,10.2c-1.4,0.8-3.5,1.1-5.6-0.8
			c-1.5-1.3-1.3-3.1-1-4.8c0.1-1.1,2.5-0.3,2.5,1.9c0,1.3-0.1,2.5,0.5,2.7c1.4,0.7,3.6-1.2,4.9-5.5c0.4-1.3,0.8-3.7,0.9-4.8
			c0-1.4-0.1-4.4-0.9-4.5C488.1,270.3,488.3,271.2,486.3,274.1z M500.9,268.9c1.2,1.6,0,4.1-0.4,6.6c-0.1,0.5-0.2,0.7-0.8,0.5
			c-1.1-0.3-1.9-1.4-1.7-3.4c0.2-1.6,1.1-3.7,0.4-4c-0.8-0.4-3.4,2.9-4.6,7.1c-1.4,5.2,0.2,8.5,2.7,8c3.5-0.7,5.9-4.6,7.1-7.6
			c0.1-0.4,0.5-0.5,0.8-0.1c0.2,0.3,0.2,1.4-0.3,2.7c-1.1,2.8-4,5.5-7.2,6.2c-5.3,1.1-8.1-3.7-6.5-9.6c1.6-5.8,5.4-8.9,7.8-8.1
			C499.4,267.5,500.2,268.1,500.9,268.9z"/>
		<path fill="#E6E5D1" d="M515.9,263.5c0.3-0.6,0.6-0.8,1-0.5c0.8,0.6,1.5,2.4,0.9,4.7c-0.5,2.1-2,5.6-2.6,8c-0.6,2.6-0.3,4.4,1.1,4
			c1.7-0.4,3.4-3.7,4.3-6.9c0.1-0.4,0.4-0.5,0.7-0.2s0.5,1.4,0.1,2.7c-0.6,2.5-2.8,5.4-5.1,5.7c-2.3,0.3-3.7-0.8-4.1-2.7
			c-1,2-2.6,3.9-4.6,4.3c-3.9,0.8-5.8-4.4-3.3-10.1c2.4-5.6,5.3-8.2,7.4-8.6c1.8-0.4,2.9,0.9,3.2,2.5
			C515.2,265.3,515.6,264.3,515.9,263.5z M512.9,265.9c-1.4,0.1-3.9,3.5-5.4,7.7c-1.5,4-1.3,7.8,0.3,7.6c1.7-0.3,3.4-3.4,4.8-7.5
			C514.3,268.5,514.1,265.8,512.9,265.9z"/>
		<path fill="#E6E5D1" d="M523.4,279.4c-3,0.4-3.7-2.7-3.3-5.6c0.4-2.9,1.7-7.5,3.6-11.8c0.2-0.5,0.7-0.6,1.1-0.3
			c1.2,1.2,1.4,3.1,0.3,5.8c-1.1,2.8-1.6,4.6-2,6.8c-0.5,2.2,0,3.7,0.9,3.6c1.7-0.2,3.4-3.6,4.9-7.7c1.8-4.8,2.4-7.9,3.4-10
			c0.3-0.7,0.6-0.8,1-0.5c0.8,0.6,1.5,2.4,0.9,4.7c-0.5,2.1-2,5.6-2.6,8c-0.6,2.6-0.1,4.3,1.4,3.9c1.7-0.4,3.3-3.6,4.4-6.9
			c0.1-0.4,0.5-0.5,0.7-0.2c0.2,0.3,0.5,1.4,0.2,2.7c-0.7,2.6-2.9,5.2-5.4,5.7c-2.7,0.5-4.2-1-4.3-3.5
			C527.5,276.5,525.7,279.1,523.4,279.4z"/>
		<path fill="#E6E5D1" d="M553.8,266.2c0.1-0.4,0.4-0.5,0.7-0.2c0.4,0.4,0.5,1.4,0.1,2.7c-0.7,2.6-2.9,5.2-5.3,5.7
			c-3.9,0.8-5.6-1.2-3.5-9.3l-0.3,0c-2.2,7.5-4.4,10.8-6.6,11.3c-3,0.6-3.2-2.2-2.8-4.4c0.2-1.4,2.2-2.4,1.8-1.1
			c-0.7,2.1-0.4,4.6,0.6,4.4c1.1-0.2,2.6-3.1,5.7-10.9l3-7.7c0.3-0.7,1-0.9,1.4-0.5c0.8,0.6,1.1,2.2,0.9,3.8l-1.5,9.5
			c-0.5,2.7,0,4,1.6,3.6C551.3,272.6,552.8,269.5,553.8,266.2z"/>
		<path fill="#E6E5D1" d="M563.5,271.2c-0.1,0.4-0.3,0.5-0.6,0.3c-0.8-0.8-1.4-1.9-1.1-4.6c0.3-3.8,4.7-19.4,6.6-23.5
			c0.3-0.6,0.6-0.6,1-0.1c0.7,0.9,1.3,2.8,0.3,6.3c-0.7,2.2-1.6,4.9-2.5,8c4.7-5.2,9.5-11.6,12.6-16.7c0.2-0.4,0.6-0.4,0.8-0.1
			c0.4,0.9,0.7,2.3-0.4,4.7c-1.4,2.9-6.1,9.2-10.9,14.3c1.8,1.9,3.3,3.6,4,4.6c1.5,2.2,1.4,3.7,0.9,4.7c-0.2,0.3-0.5,0.4-0.8,0.1
			c-2.2-2.8-4.7-5.4-7.3-8C565.1,264.3,564.2,267.7,563.5,271.2z"/>
		<path fill="#E6E5D1" d="M591,248.6c0.3-0.6,0.6-0.8,1-0.5c0.8,0.6,1.5,2.4,0.9,4.7c-0.5,2.1-2,5.6-2.6,8c-0.6,2.6-0.3,4.4,1.1,4
			c1.7-0.4,3.4-3.7,4.3-6.9c0.1-0.4,0.4-0.5,0.7-0.2c0.2,0.3,0.5,1.4,0.1,2.7c-0.6,2.5-2.8,5.4-5.1,5.7c-2.3,0.3-3.7-0.8-4.1-2.7
			c-1,2-2.6,3.9-4.6,4.3c-3.9,0.8-5.8-4.4-3.3-10.1c2.4-5.6,5.3-8.2,7.4-8.6c1.8-0.4,2.9,0.9,3.2,2.5
			C590.3,250.3,590.7,249.3,591,248.6z M588,250.9c-1.4,0.1-3.9,3.5-5.4,7.7c-1.5,4-1.3,7.8,0.3,7.6c1.7-0.3,3.4-3.4,4.8-7.5
			C589.4,253.5,589.2,250.8,588,250.9z"/>
		<path fill="#E6E5D1" d="M604.1,260.4c-0.7-0.6-3.2,0.1-5,2c-0.3,0.3-0.5,0.4-0.7,0.1c-1-1.7-0.3-3.2,1-4.3c5.6-4.9,7.4-9.5,6-10.7
			c-1.4-1.2-6.5,2.9-8.9,7.6c-0.2,0.4-0.5,0.3-0.7,0c-0.6-1-0.4-3,0.8-4.9c1.3-2,3.5-3.6,5.5-4.3c1.8-0.6,3.1-0.6,4.4,0.7
			c1.3,1.2,1.8,3.1,0.9,5.6c-0.7,2.1-2.7,4.6-5.1,6.8c1-0.2,2-0.2,2.8,0.3c0.7,0.4,1.2,1.1,1.5,1.8c1.7-1.4,3.1-3.6,3.9-6.4
			c0.1-0.4,0.5-0.5,0.8-0.2c0.2,0.3,0.3,1.5-0.1,2.7c-0.6,2-2.7,3.9-4.3,5c0.9,4.5-2.2,11.7-4.5,13.7c-0.7,0.6-1.6,1.1-2.9,0
			c-1.1-0.9-2.5-2.2-1.9-4.7c0.8-3.9,3.9-6.7,7.2-8.8C604.7,261.6,604.5,260.8,604.1,260.4z M599.9,274.5c0.9,0.7,4.1-6,4.7-10.5
			C599.7,268.2,599,273.7,599.9,274.5z"/>
		<path fill="#E6E5D1" d="M613.3,261.5c-3,0.4-3.7-2.7-3.3-5.6c0.4-2.9,1.7-7.5,3.6-11.8c0.2-0.5,0.7-0.6,1.1-0.3
			c1.2,1.2,1.4,3.1,0.3,5.8c-1.1,2.8-1.6,4.6-2,6.8c-0.5,2.2,0,3.7,0.9,3.6c1.7-0.2,3.4-3.6,4.9-7.7c1.8-4.8,2.4-7.9,3.4-10
			c0.3-0.7,0.6-0.8,1-0.5c0.8,0.6,1.5,2.4,0.9,4.7c-0.5,2.1-2,5.6-2.6,8c-0.6,2.6-0.1,4.3,1.4,3.9c1.7-0.4,3.3-3.6,4.4-6.9
			c0.1-0.4,0.5-0.5,0.7-0.2c0.2,0.3,0.5,1.4,0.1,2.7c-0.7,2.6-2.9,5.2-5.4,5.7c-2.7,0.5-4.2-1-4.3-3.5
			C617.4,258.6,615.6,261.2,613.3,261.5z"/>
		<path fill="#E6E5D1" d="M628.1,258.2c-0.1,0.4-0.3,0.6-0.8,0.3c-1-0.7-1.5-2-1.3-4.2c0.3-2.8,2.4-9.3,4.2-13.7
			c0.2-0.5,0.5-0.5,0.9-0.2c0.8,0.9,1.4,2.7,0.8,4.2C630.9,248.2,629.2,253.9,628.1,258.2z M636.8,247.5c-2,1.5-9.8,4.3-9.8,4.3
			c-1.2,0.5-1.1-1.4,0.2-2c0,0,7.9-2.8,9.6-4.3L636.8,247.5z M634.5,251c0.4-3.3,2.2-8.8,3.3-11.2c0.3-0.6,0.5-0.8,1-0.5
			c0.8,0.5,1.5,2.3,0.9,4.6c-0.5,2-1.7,5.2-2.2,7.5c-0.5,2.6-0.1,4.2,1.2,3.9c1.9-0.5,3.6-3.7,4.3-6.8c0.1-0.4,0.4-0.4,0.7-0.1
			c0.5,0.6,0.5,1.5,0.2,2.7c-0.7,2.8-3,5.1-5.4,5.6C635.3,257.2,634,254.7,634.5,251z"/>
		<path fill="#E6E5D1" d="M646.3,254.9c-3,0.4-3.7-2.7-3.3-5.6c0.4-2.9,1.7-7.5,3.6-11.8c0.2-0.5,0.7-0.6,1.1-0.3
			c1.2,1.2,1.4,3.1,0.3,5.8c-1.1,2.8-1.6,4.6-2,6.8c-0.5,2.2,0,3.7,0.9,3.6c1.7-0.2,3.4-3.6,4.9-7.7c1.8-4.8,2.4-7.9,3.4-10
			c0.3-0.7,0.6-0.8,1-0.5c0.8,0.6,1.5,2.4,0.9,4.7c-0.5,2.1-2,5.6-2.6,8c-0.6,2.6-0.1,4.3,1.4,3.9c1.7-0.4,3.3-3.6,4.4-6.9
			c0.1-0.4,0.5-0.5,0.7-0.2c0.2,0.3,0.5,1.4,0.1,2.7c-0.7,2.6-2.9,5.2-5.4,5.7c-2.7,0.5-4.2-1-4.3-3.5
			C650.4,252,648.6,254.6,646.3,254.9z"/>
		<path fill="#E6E5D1" d="M665,238.2c-0.9,3.4-1.9,4.8-3.6,13.1c-0.1,0.4-0.4,0.5-0.7,0.2c-0.8-0.6-1.2-1.9-1-4.6
			c0.4-4,0.9-6.6,3.6-12.4c0.3-0.6,0.7-0.8,1.2-0.1C665,235.3,665.6,236.2,665,238.2z M672.7,232.9c0.9-1.6,2.1,0.2,1.5,2
			c-0.9,2.9-2.4,5.3-6.6,8.1c0.9,3.4,2.5,5.6,4.1,5.4c1.8-0.2,3.4-3.9,4.1-6.7c0.2-0.6,0.5-0.7,0.8-0.2c0.3,0.5,0.4,1.5,0,2.7
			c-0.7,2-2,5-5.4,5.6c-2.9,0.5-5.9-1.4-6.9-7c-0.2-0.8-0.1-0.9,0.7-1.3C668.4,239.5,670.7,236.7,672.7,232.9z"/>
	</g>
</g>
</svg>
